<?xml version="1.0" encoding="utf-8"?>
<!-- Generator: Adobe Illustrator 25.0.0, SVG Export Plug-In . SVG Version: 6.00 Build 0)  -->
<svg version="1.1"
	 id="svg3476" inkscape:version="0.91 r13725" xmlns:cc="http://creativecommons.org/ns#" xmlns:dc="http://purl.org/dc/elements/1.1/" xmlns:inkscape="http://www.inkscape.org/namespaces/inkscape" xmlns:rdf="http://www.w3.org/1999/02/22-rdf-syntax-ns#" xmlns:sodipodi="http://sodipodi.sourceforge.net/DTD/sodipodi-0.dtd" xmlns:svg="http://www.w3.org/2000/svg"
	 xmlns="http://www.w3.org/2000/svg" xmlns:xlink="http://www.w3.org/1999/xlink" x="0px" y="0px" viewBox="0 0 240 240"
	 style="enable-background:new 0 0 240 240;" xml:space="preserve">
<style type="text/css">
	.st0{fill:#264DE4;}
	.st1{fill:#2965F1;}
	.st2{fill:#EBEBEB;}
	.st3{fill:#FFFFFF;}
</style>
<sodipodi:namedview  bordercolor="#666666" borderopacity="1.0" fit-margin-bottom="0" fit-margin-left="0" fit-margin-right="0" fit-margin-top="0" id="base" inkscape:current-layer="layer1" inkscape:cx="181.367" inkscape:cy="256" inkscape:document-units="px" inkscape:pageopacity="0.0" inkscape:pageshadow="2" inkscape:window-height="704" inkscape:window-maximized="1" inkscape:window-width="1366" inkscape:window-x="0" inkscape:window-y="27" inkscape:zoom="0.35" pagecolor="#ffffff" showgrid="false">
	</sodipodi:namedview>
<g>
	<polygon id="polygon2989" class="st0" points="225.8,0 206.5,216 119.9,240 33.4,216 14.2,0 	"/>
	<polygon id="polygon2991" class="st1" points="190,202.2 206.5,17.7 120,17.7 120,221.6 	"/>
	<polygon id="polygon2993" class="st2" points="58.3,97.8 60.7,124.3 120,124.3 120,97.8 	"/>
	<polygon id="polygon2995" class="st2" points="120,44.2 119.9,44.2 53.6,44.2 56,70.6 120,70.6 	"/>
	<polygon id="polygon2997" class="st2" points="120,194.1 120,166.6 119.9,166.6 90.4,158.6 88.5,137.5 74.2,137.5 61.9,137.5 
		65.6,179.1 119.9,194.2 	"/>
	<polygon id="polygon3005" class="st3" points="152.5,124.3 149.5,158.6 119.9,166.6 119.9,194.2 174.2,179.1 174.6,174.6 
		180.8,104.9 181.5,97.8 186.3,44.2 119.9,44.2 119.9,70.6 157.2,70.6 154.8,97.8 119.9,97.8 119.9,124.3 	"/>
</g>
</svg>
