<?xml version="1.0" encoding="utf-8"?>
<!-- Generator: Adobe Illustrator 25.0.0, SVG Export Plug-In . SVG Version: 6.00 Build 0)  -->
<svg version="1.1" id="light" xmlns="http://www.w3.org/2000/svg" xmlns:xlink="http://www.w3.org/1999/xlink" x="0px" y="0px"
	 viewBox="0 0 512 512" style="enable-background:new 0 0 512 512;" xml:space="preserve">
<style type="text/css">
	.st0{fill:#FFFFFF;}
</style>
<path class="st0" d="M496.2,231.7L263.2,2.9c-4-3.9-10.4-3.9-14.4,0L15.7,231.7c-3.9,3.9-6.1,9.2-6.1,14.6c0,11.5,9,20.5,20.5,20.5
	h41.1v234.8c0,5.7,4.6,10.3,10.3,10.3l0,0c5.7,0,10.3-4.6,10.3-10.3v-245c0-5.7-4.6-10.3-10.3-10.3l-51.3-0.1L256,24.7l225.8,221.6
	l0.1,0.1h-51.3c-5.7,0-10.3,4.6-10.3,10.3v245.1c0,5.7,4.6,10.3,10.3,10.3l0,0c5.7,0,10.3-4.6,10.3-10.3V266.9H482
	c11.5,0,20.5-9,20.5-20.5C502.4,240.9,500.2,235.6,496.2,231.7z"/>
</svg>
