<?xml version="1.0" encoding="utf-8"?>
<!-- Generator: Adobe Illustrator 25.0.0, SVG Export Plug-In . SVG Version: 6.00 Build 0)  -->
<svg version="1.1" id="Layer_2_1_" xmlns="http://www.w3.org/2000/svg" xmlns:xlink="http://www.w3.org/1999/xlink" x="0px" y="0px"
	 viewBox="0 0 60 60" style="enable-background:new 0 0 60 60;" xml:space="preserve">
<style type="text/css">
	.st0{fill:#FFFFFF;}
</style>
<circle class="st0" cx="30" cy="30" r="30"/>
<rect x="14" y="23.4" width="7.3" height="22"/>
<path d="M17.6,20.4L17.6,20.4c-2.2,0.1-4-1.5-4.1-3.6c-0.1-2.1,1.5-3.9,3.6-4c0.2,0,0.4,0,0.5,0c2.1-0.1,3.9,1.5,4.1,3.6
	c0.1,2.1-1.5,3.9-3.6,4.1C18,20.4,17.8,20.4,17.6,20.4z"/>
<path d="M47.6,45.3h-7.3V33.6c0-3-1.1-5-3.7-5c-1.7,0-3.2,1.1-3.8,2.7c-0.2,0.6-0.3,1.2-0.2,1.8v12.3h-7.3c0,0,0.1-19.9,0-22h7.3
	v3.1c1.3-2.3,3.9-3.7,6.6-3.6c4.8,0,8.4,3.1,8.4,9.9L47.6,45.3z"/>
</svg>
