<?xml version="1.0" encoding="utf-8"?>
<!-- Generator: Adobe Illustrator 25.0.0, SVG Export Plug-In . SVG Version: 6.00 Build 0)  -->
<svg version="1.1" id="Layer_1" xmlns="http://www.w3.org/2000/svg" xmlns:xlink="http://www.w3.org/1999/xlink" x="0px" y="0px"
	 viewBox="0 0 32 32" style="enable-background:new 0 0 32 32;" xml:space="preserve">
<style type="text/css">
	.st0{display:none;}
	.st1{display:inline;}
</style>
<path d="M16,0C16,0,4,11.4,4,20.6C4,26.9,9.4,32,16,32s12-5.1,12-11.4C28,11.4,16,0,16,0L16,0z M8,20.6c0-4.3,4.2-10.3,8-14.6v22
	C11.6,28,8,24.7,8,20.6z"/>
<g class="st0">
	<path class="st1" d="M22.3,1.7h8.1v28.7h-5.6V8.1L25,9.3l-6.3,17.8h-5.5L7,9.7l0.2-1.7v22.3H1.6V1.7h8.1L16,21L22.3,1.7z"/>
</g>
</svg>
