<?xml version="1.0" encoding="utf-8"?>
<!-- Generator: Adobe Illustrator 25.0.0, SVG Export Plug-In . SVG Version: 6.00 Build 0)  -->
<svg version="1.1" id="Layer_1" xmlns="http://www.w3.org/2000/svg" xmlns:xlink="http://www.w3.org/1999/xlink" x="0px" y="0px"
	 viewBox="0 0 240 240" style="enable-background:new 0 0 240 240;" xml:space="preserve">
<style type="text/css">
	.st0{fill-rule:evenodd;clip-rule:evenodd;fill:#61DAFB;}
	.st1{fill:#61DAFB;}
</style>
<g transform="matrix(.05696 0 0 .05696 .647744 2.43826)">
	<g>
		<circle class="st0" cx="2095.39" cy="2060.46" r="376.24"/>
	</g>
	<g>
		<g>
			<path class="st1" d="M2095.38,2922.98c-528.41,0-990.53-62.49-1336.35-180.66c-475.17-162.4-770.4-423.68-770.4-681.87
				c0-248.68,273.24-492.47,730.92-652.1c375.33-130.83,863.94-202.9,1375.76-202.9h0.06c502.24,0,984.42,70.78,1357.63,199.24
				c469.07,161.5,749.12,406.64,749.12,655.77c0,258.58-305.51,520.44-797.34,683.41C3056.01,2859.33,2591,2922.98,2095.38,2922.98z
				 M2095.38,1385.46c-485.08,0-964.94,70.27-1316.55,192.87c-421.49,147.03-610.19,348.07-610.19,482.12
				c0,139.58,202.97,359.19,648.63,511.5c327.31,111.87,769.24,171.01,1278.1,171.01c476.91,0,921.8-60.37,1252.84-169.99
				c463.02-153.46,673.9-373.27,673.9-512.53c0-129.74-196.41-337.08-627.74-485.53C3039.55,1452.71,2578.2,1385.46,2095.38,1385.46
				z"/>
		</g>
		<g>
			<path class="st1" d="M1242.17,3937.23c-75.93,0-144.27-16.33-202.45-49.89c-215.5-124.21-290.15-482.7-199.75-959.03
				c74.19-390.57,255.81-849.8,511.43-1293.08h0.06c250.99-435.19,553.09-817.46,850.76-1076.49
				c374.24-325.63,726.42-445.92,942.31-321.39c224.05,129.16,298.31,524.68,193.71,1032.13
				c-73.93,359.39-251.18,793.99-498.96,1223.71c-264.04,457.82-548.98,826.91-824.08,1067.29
				C1735.48,3805.05,1458.13,3937.23,1242.17,3937.23z M2953.79,370.69c-140.93,0-367.29,92.32-633.39,323.83
				c-283.01,246.3-571.74,612.31-812.96,1030.58l0,0c-242.31,420.08-421.11,870.89-490.67,1236.76
				c-83.26,438.66-3.28,702.57,112.83,769.5c120.8,69.82,412.55,3.6,767.18-306.41c260.31-227.53,532.33-580.8,786.54-1021.65
				c238.46-413.52,408.44-829.1,478.65-1170.16c98.43-477.81,13.37-770.27-107.3-839.83
				C3029.14,378.6,2995.13,370.69,2953.79,370.69z"/>
		</g>
		<g>
			<path class="st1" d="M2949.61,3938.71c-203.93,0-462.96-123.31-732.53-355.34c-301.2-259.09-608.39-645.87-864.91-1088.96
				C1100.67,2060,920.33,1607.33,844.47,1219.78c-95.28-486.88-23.4-852.11,192.23-976.9c223.8-129.61,603.37,3.6,990.85,347.62
				c274.52,243.73,562.55,614.3,810.97,1043.51c264.75,457.17,442.19,888.37,513.17,1246.92
				c97.59,492.6,19.42,878.99-204.06,1008.34C3090.34,3922.51,3023.61,3938.71,2949.61,3938.71z M1234.14,374.36
				c-43.91,0-80.04,8.49-107.3,24.24c-112.32,65.06-193.32,338.94-105.69,786.6c72.13,368.52,245.01,801.45,486.81,1219.08h0.06
				c243.02,419.88,544.29,799.91,826.46,1042.67c338.3,291.17,606.84,353.92,723.02,286.54c120.8-69.88,209.14-355.59,117.65-817.59
				c-67.18-339.39-237.43-751.5-492.34-1191.76c-239.1-412.94-514.26-767.7-774.77-999.02
				C1625.67,474.39,1384.58,374.36,1234.14,374.36z"/>
		</g>
	</g>
</g>
</svg>
