<?xml version="1.0" encoding="utf-8"?>
<!-- Generator: Adobe Illustrator 25.0.0, SVG Export Plug-In . SVG Version: 6.00 Build 0)  -->
<svg version="1.1" id="Layer_1" xmlns="http://www.w3.org/2000/svg" xmlns:xlink="http://www.w3.org/1999/xlink" x="0px" y="0px"
	 viewBox="0 0 240 240" style="enable-background:new 0 0 240 240;" xml:space="preserve">
<style type="text/css">
	.st0{fill:#CF6296;}
</style>
<path class="st0" d="M206.55,133.45c-8.39,0.04-15.65,2.06-21.74,5.06c-2.23-4.45-4.48-8.36-4.86-11.26
	c-0.44-3.39-0.95-5.42-0.42-9.46c0.53-4.04,2.87-9.77,2.84-10.2c-0.03-0.43-0.52-2.49-5.36-2.52c-4.84-0.03-8.98,0.93-9.46,2.21
	c-0.49,1.28-1.42,4.15-2,7.15c-0.85,4.39-9.66,20.03-14.66,28.22c-1.64-3.19-3.03-6.01-3.32-8.24c-0.44-3.39-0.95-5.42-0.42-9.46
	c0.53-4.04,2.87-9.77,2.84-10.2c-0.03-0.43-0.52-2.49-5.36-2.52c-4.84-0.03-8.98,0.93-9.46,2.21c-0.49,1.28-1.01,4.26-2,7.15
	c-0.99,2.89-12.71,28.99-15.77,35.75c-1.56,3.45-2.92,6.22-3.88,8.11c0,0-0.01-0.01-0.01-0.01s-0.06,0.13-0.16,0.34
	c-0.82,1.61-1.31,2.5-1.31,2.5s0.01,0.01,0.01,0.03c-0.65,1.18-1.35,2.28-1.7,2.28c-0.24,0-0.73-3.15,0.11-7.47
	c1.74-9.05,5.93-23.17,5.89-23.66c-0.02-0.25,0.78-2.71-2.73-4c-3.41-1.25-4.63,0.83-4.94,0.84c-0.3,0.01-0.53,0.74-0.53,0.74
	s3.8-15.88-7.26-15.88c-6.91,0-16.5,7.56-21.21,14.42c-2.98,1.62-9.35,5.1-16.11,8.82c-2.6,1.43-5.25,2.89-7.76,4.27
	c-0.17-0.19-0.34-0.38-0.52-0.57c-13.41-14.31-38.2-24.43-37.15-43.66c0.38-6.99,2.81-25.41,47.63-47.74
	c36.72-18.3,66.11-13.26,71.19-2.1c7.26,15.94-15.71,45.57-53.84,49.84c-14.53,1.63-22.18-4-24.08-6.1c-2-2.21-2.3-2.31-3.05-1.89
	c-1.22,0.67-0.45,2.62,0,3.79c1.14,2.96,5.81,8.22,13.78,10.83c7.01,2.3,24.06,3.56,44.69-4.42c23.1-8.94,41.14-33.8,35.84-54.57
	c-5.39-21.13-40.43-28.08-73.59-16.3c-19.74,7.01-41.1,18.02-56.47,32.39C1.95,85.23-0.96,100.1,0.24,106.32
	c4.26,22.08,34.7,36.46,46.88,47.11c-0.6,0.33-1.17,0.64-1.68,0.93c-6.11,3.02-29.31,15.16-35.11,27.99
	c-6.58,14.55,1.05,24.99,6.1,26.39c15.65,4.35,31.71-3.48,40.34-16.35c8.63-12.87,7.57-29.63,3.61-37.28
	c-0.05-0.09-0.1-0.19-0.15-0.28c1.58-0.93,3.19-1.88,4.78-2.82c3.11-1.83,6.16-3.53,8.81-4.97c-1.48,4.06-2.57,8.93-3.13,15.96
	c-0.66,8.26,2.72,18.93,7.15,23.13c1.95,1.85,4.3,1.89,5.78,1.89c5.15,0,7.51-4.29,10.09-9.36c3.18-6.22,5.99-13.46,5.99-13.46
	s-3.54,19.56,6.1,19.56c3.51,0,7.04-4.55,8.62-6.87c0,0.03,0.01,0.04,0.01,0.04s0.09-0.15,0.27-0.45c0.36-0.56,0.57-0.91,0.57-0.91
	s0.01-0.04,0.02-0.1c1.41-2.45,4.54-8.04,9.24-17.25c6.06-11.9,11.88-26.81,11.88-26.81s0.54,3.65,2.31,9.67
	c1.04,3.55,3.26,7.47,5.01,11.23c-1.41,1.95-2.27,3.07-2.27,3.07s0.01,0.02,0.02,0.06c-1.12,1.49-2.38,3.1-3.7,4.67
	c-4.79,5.7-10.49,12.21-11.25,14.09c-0.9,2.21-0.69,3.84,1.05,5.15c1.27,0.96,3.53,1.11,5.89,0.95c4.3-0.29,7.33-1.36,8.82-2.01
	c2.33-0.82,5.04-2.12,7.58-3.99c4.7-3.45,7.53-8.39,7.26-14.93c-0.15-3.61-1.3-7.18-2.75-10.55c0.43-0.61,0.85-1.23,1.28-1.86
	c7.4-10.82,13.14-22.71,13.14-22.71s0.54,3.65,2.31,9.67c0.9,3.05,2.67,6.38,4.26,9.65c-6.96,5.66-11.28,12.23-12.78,16.54
	c-2.77,7.97-0.6,11.59,3.47,12.41c1.84,0.37,4.45-0.47,6.41-1.3c2.44-0.81,5.37-2.15,8.1-4.17c4.7-3.45,9.21-8.29,8.94-14.83
	c-0.12-2.98-0.93-5.93-2.03-8.77c5.9-2.46,13.54-3.82,23.27-2.69c20.87,2.44,24.97,15.47,24.19,20.93
	c-0.78,5.45-5.16,8.45-6.63,9.36c-1.46,0.91-1.91,1.22-1.79,1.89c0.18,0.98,0.85,0.94,2.1,0.73c1.72-0.29,10.96-4.44,11.36-14.51
	C240.49,147.37,228.24,133.33,206.55,133.45z M45.66,187.69c-6.91,7.54-16.57,10.39-20.72,7.99c-4.47-2.59-2.7-13.7,5.78-21.7
	c5.17-4.88,11.85-9.37,16.28-12.14c1.01-0.61,2.49-1.5,4.29-2.58c0.3-0.17,0.47-0.26,0.47-0.26l-0.01-0.01
	c0.35-0.21,0.7-0.42,1.07-0.64C55.91,169.74,52.91,179.77,45.66,187.69z M96.03,153.45c-2.41,5.87-7.45,20.89-10.52,20.08
	c-2.63-0.69-4.24-12.11-0.53-23.34c1.87-5.66,5.86-12.41,8.2-15.04c3.77-4.22,7.93-5.6,8.94-3.89
	C103.41,133.44,97.54,149.77,96.03,153.45z M137.64,173.3c-1.02,0.53-1.96,0.87-2.39,0.61c-0.32-0.19,0.42-0.89,0.42-0.89
	s5.21-5.6,7.26-8.15c1.19-1.48,2.58-3.24,4.08-5.21c0.01,0.2,0.02,0.39,0.02,0.58C147.01,166.95,140.53,171.48,137.64,173.3z
	 M169.7,166c-0.76-0.54-0.63-2.29,1.87-7.75c0.98-2.14,3.23-5.75,7.13-9.19c0.45,1.42,0.73,2.78,0.72,4.04
	C179.36,161.53,173.34,164.69,169.7,166z"/>
</svg>
