<?xml version="1.0" encoding="utf-8"?>
<!-- Generator: Adobe Illustrator 25.0.0, SVG Export Plug-In . SVG Version: 6.00 Build 0)  -->
<svg version="1.1" id="Layer_1" xmlns="http://www.w3.org/2000/svg" xmlns:xlink="http://www.w3.org/1999/xlink" x="0px" y="0px"
	 viewBox="0 0 240 80" style="enable-background:new 0 0 240 80;" xml:space="preserve">
<style type="text/css">
	.st0{fill:#003781;}
</style>
<g>
	<path class="st0" d="M23.5,41.7h-8.1l4.3-14L23.5,41.7z M11.2,57.2l2.8-9.2h10.9l2.6,9.2h10L27.5,22c-0.6-2.1-1.8-3-4-3H9.2v3.3
		h1.2c1.5,0,2.3,0.6,2.3,1.7c0,0.8-0.2,1.4-0.8,3.1l-10,30H11.2z"/>
	<path class="st0" d="M49.1,57.2V21.9c0-1.8-1.1-2.9-2.9-2.9h-8.8v3.3H38c1.5,0,2.1,0.6,2.1,2.1v32.7H49.1z"/>
	<path class="st0" d="M64.3,57.2V21.9c0-1.8-1.1-2.9-2.9-2.9h-8.8v3.3h0.6c1.5,0,2.1,0.6,2.1,2.1v32.7H64.3z"/>
	<path class="st0" d="M80,22.5c0-2.6-1.9-4.1-5.1-4.1s-5.2,1.5-5.2,4.1s2,4.1,5.2,4.1C78,26.6,80,25.1,80,22.5 M79.8,57.2V31.5
		c0-1.8-1.1-2.9-2.9-2.9h-8.7v3.2h0.5c1.5,0,2.1,0.7,2.1,2.2v23.2H79.8z"/>
	<path class="st0" d="M99.5,43.4V49c-1.5,1.5-3.3,2.5-4.9,2.5c-1.5,0-2.2-0.8-2.2-3s0.4-3.1,2.1-3.7C96.1,44.2,97.8,43.7,99.5,43.4
		 M87.4,36.8c2.7-1.4,5.7-2.1,8.8-2.2c2.4,0,3.3,0.9,3.3,3.4v0.6c-3.7,0.6-4.8,0.8-6.9,1.3c-1.2,0.3-2.3,0.6-3.4,1.1
		c-3.6,1.4-5.3,4.2-5.3,8.5c0,5.4,2.4,8.1,7.2,8.1c1.6,0,3.3-0.3,4.8-0.9c1.4-0.6,2.7-1.5,3.8-2.5v0.4c0,1.8,0.9,2.7,2.7,2.7h8.2
		v-3.1h-0.4c-1.5,0-2.1-0.7-2.1-2.5V37.9c0-7.3-2.5-9.8-9.8-9.8c-2.3,0-4.6,0.3-6.8,0.8c-2.1,0.5-4.2,1.2-6.1,2.3L87.4,36.8z"/>
	<path class="st0" d="M123.6,57.2V37.8c1.5-1.7,3-2.4,4.8-2.4c1.9,0,2.4,0.8,2.4,3.6v18.1h8.9V37.7c0-4.5-0.3-6-1.8-7.5
		c-1.2-1.3-3-2-5.4-2c-3.5,0-5.9,1.1-9.2,4.2v-1.1c0-1.8-0.9-2.7-2.8-2.7h-8.5v3.2h0.5c1.5,0,2.1,0.7,2.1,2.2v23.2H123.6z"/>
	<path class="st0" d="M166.2,51.2h-12.4l11.9-16.7v-5.9H147c-2.1,0-3.1,1-3.1,3.1v5.2h3.3v-0.5c0-1.3,0.7-1.9,2.1-1.9h6.4l-12,16.9
		v5.9h22.4L166.2,51.2z"/>
	<path class="st0" d="M213,56.4V24.1c0-2.6-0.9-3.4-3.4-3.4H202v3.6h0.5c1.7,0,2.1,0.4,2.1,2.5v29.7H213z M216.7,56.4h8.4V31.3
		c0-2.5-1-3.4-3.4-3.4h-5V56.4z M200.8,56.4V27.8h-5c-2.5,0-3.4,0.9-3.4,3.4v25.1H200.8z M233.1,40c0,14.2-10.2,24.6-24.3,24.6
		c-14.1,0-24.3-10.4-24.3-24.6s10.3-24.6,24.3-24.6S233.1,25.8,233.1,40 M238.1,40c0-16.7-12.5-29.3-29.3-29.3S179.5,23.3,179.5,40
		s12.5,29.3,29.3,29.3S238.1,56.8,238.1,40"/>
</g>
</svg>
