<?xml version="1.0" encoding="utf-8"?>
<!-- Generator: Adobe Illustrator 25.0.0, SVG Export Plug-In . SVG Version: 6.00 Build 0)  -->
<svg version="1.1" id="Capa_1" xmlns="http://www.w3.org/2000/svg" xmlns:xlink="http://www.w3.org/1999/xlink" x="0px" y="0px"
	 viewBox="0 0 240 80" style="enable-background:new 0 0 240 80;" xml:space="preserve">
<style type="text/css">
	.st0{fill:#004076;}
	.st1{fill:#F19800;}
</style>
<g>
	<path class="st0" d="M73,54.7V39h-2v5.2l0,0c-0.3,0.1-0.6,0.2-0.8,0.3v2.2c0.2-0.3,0.5-0.5,0.8-0.7l0,0v6.7l0,0
		c0,0.2-0.4,0.6-0.6,0.6c-0.1,0-0.2,0-0.2,0v1.7h0.1c0.1,0,0.2,0,0.3,0l0,0l0.6-0.6v0.5L73,54.7z M70.1,44.5c-1.2,0.5-2.9,2-2.9,5.6
		c0,3.3,1.3,4.7,2.9,4.7v-1.7c-0.5-0.2-0.8-1.2-0.8-2.6c0-2,0.4-3.2,0.8-3.8V44.5z"/>
	<path class="st0" d="M79.4,47.2c0-2.2-1.4-3-2.4-3h-0.2v1.6c0,0,0.1,0,0.2,0c0.4,0,0.6,0.4,0.6,1.3l0,0c0,0.7-0.2,1.4-0.7,2V51
		C78.3,50.4,79.4,48.9,79.4,47.2L79.4,47.2z M76.8,54.8c0.2,0,0.4,0,0.6,0c0.3,0,0.5,0,0.8-0.1l0,0v-1.5l0,0c-0.2,0-0.4,0-0.6,0
		c-0.3,0-0.6-0.2-0.8-0.3V54.8z M76.8,44.2c-1.2,0.1-2.8,0.9-2.8,5.3c0,3.9,1.4,5.1,2.8,5.3v-1.9c-0.4-0.5-0.6-1.2-0.6-1.8
		c0.2,0,0.4-0.1,0.6-0.2V49c-0.2,0.2-0.5,0.3-0.7,0.4v-0.5c0-2.3,0.3-3,0.7-3.2V44.2z"/>
	<path class="st0" d="M87.9,54.7V53l0,0c-0.2,0-0.5,0.1-0.7,0.1c-0.9,0-2.5-0.7-2.5-6.3s1.5-6.2,2.5-6.2c0.2,0,0.5,0,0.7,0.1l0,0V39
		l0,0c-0.3-0.1-0.7-0.2-1.1-0.2c-1.6,0-4.3,0.6-4.3,8s2.7,8,4.3,8C87.2,54.9,87.5,54.8,87.9,54.7L87.9,54.7z"/>
	<path class="st0" d="M94.4,49.5c0-4.8-1.9-5.4-3-5.4v1.7c0.5,0,0.9,0.7,0.9,3.6l0,0c0,2.9-0.5,3.6-0.9,3.6v1.7
		C92.4,54.9,94.4,54.2,94.4,49.5z M91.4,44.2L91.4,44.2c-1.1,0-3,0.6-3,5.4c0,4.8,2,5.3,3,5.3h0v-1.7h0c-0.5,0-0.9-0.7-0.9-3.6
		c0-2.9,0.5-3.6,0.9-3.6h0V44.2z"/>
	<polygon class="st0" points="97.5,54.7 97.5,39 95.5,39 95.5,54.7 	"/>
	<path class="st0" d="M104.6,49.5c0-4.8-1.9-5.4-2.9-5.4v1.7c0.5,0,0.9,0.7,0.9,3.6l0,0c0,2.9-0.5,3.6-0.9,3.6v1.7
		C102.7,54.9,104.6,54.2,104.6,49.5z M101.7,44.2L101.7,44.2c-1.1,0-3,0.6-3,5.4c0,4.8,2,5.3,3,5.3l0,0v-1.7l0,0
		c-0.5,0-0.9-0.7-0.9-3.6c0-2.9,0.5-3.6,0.9-3.6l0,0V44.2z"/>
	<path class="st0" d="M114.9,54.7v-6.9l0,0c0-2.5-1.1-3.7-2.8-3.7c-0.7,0-1.4,0.2-1.8,0.7c-0.5-0.5-1.1-0.7-1.8-0.7
		c-0.1,0-0.2,0-0.3,0l0,0l-0.6,0.6v-0.5h-1.9v10.5h2v-7.6l0,0c0-0.7,0.3-1.4,0.8-1.4s0.8,0.6,0.8,1.4l0,0v7.5h2v-7.5l0,0
		c0-0.7,0.3-1.4,0.8-1.4s0.8,0.6,0.8,1.4l0,0v7.5H114.9z"/>
	<path class="st0" d="M121.9,50.1c0-3.6-1.7-5.1-2.9-5.6v2.2c0.5,0.6,0.8,1.8,0.8,3.8l0,0c0,1.5-0.3,2.5-0.8,2.6v1.7
		C120.6,54.8,121.9,53.4,121.9,50.1L121.9,50.1z M119.1,44.5c-0.3-0.1-0.5-0.2-0.8-0.3l0,0V39h-2v15.7h1.9v-0.5l0.6,0.6l0,0
		c0.1,0,0.2,0,0.3,0h0.1v-1.7c-0.1,0-0.1,0-0.2,0c-0.3-0.1-0.5-0.3-0.6-0.6l0,0V46l0,0c0.3,0.2,0.6,0.4,0.8,0.7L119.1,44.5z"/>
	<path class="st0" d="M125,42.5v-2.9h-1.9v2.9H125z M125.1,54.7V44.2h-2v10.5H125.1z"/>
	<path class="st0" d="M131.4,54.7v-7.5l0,0c0-2.3-1.1-3.1-2.7-3.1v1.7c0.4,0,0.7,0.3,0.7,0.9l0,0v0.2l0,0c-0.2,0-0.5,0.1-0.7,0.2v2
		c0.2-0.3,0.4-0.5,0.7-0.5l0,0v4.1l0,0c-0.1,0.3-0.3,0.6-0.6,0.6c0,0,0,0,0,0v1.7c0,0,0.1,0,0.2,0l0,0l0.7-0.7v0.6L131.4,54.7z
		 M128.7,44.2L128.7,44.2c-0.5,0-1,0-1.5,0.2l0,0V46l0,0c0.4-0.2,0.9-0.2,1.3-0.2c0.1,0,0.2,0,0.2,0L128.7,44.2L128.7,44.2z
		 M128.7,47.1c-1.1,0.5-2.6,1.8-2.6,4.3c0,2,1.1,3.4,2.5,3.4c0,0,0.1,0,0.2,0v-1.7c-0.3,0-0.7-0.6-0.7-1.8c0-0.8,0.2-1.7,0.7-2.4
		V47.1z"/>
	<path class="st0" d="M77.1,30.7L73.7,8.1h-1.6v6.7l1.2,9.4h-1.2v2.5h1.5l0.5,4H77.1z M72.1,8.1h-1.4l-3.4,22.6h2.8l0.6-4h1.5v-2.5
		h-1.2l1.2-9.4V8.1z"/>
	<path class="st0" d="M84.7,26.4c0-2.2-0.8-3.4-2.5-5.1c-1.2-1.2-1.4-1.8-1.4-2.4c0-0.6,0.5-1.1,1.2-1.2c0.4,0,0.8,0,1.1,0.2l0,0
		l1.1-2.2l0,0c-0.7-0.3-1.5-0.5-2.3-0.5c-2.1-0.1-3.9,1.5-3.9,3.6c0,0,0,0.1,0,0.2c0,1.5,0.5,2.5,2.3,4.4c1.1,1.3,1.4,2.1,1.4,3.1
		c0,0.9-0.7,1.6-1.5,1.6c0,0,0,0-0.1,0c-0.5,0-0.9-0.1-1.3-0.3l0,0l-1.1,2.3l0,0c0.8,0.3,1.7,0.5,2.6,0.5c2.4,0.1,4.4-1.8,4.5-4.2
		C84.7,26.5,84.7,26.5,84.7,26.4L84.7,26.4z"/>
	<path class="st0" d="M93.2,19.8c0-3.2-1.9-4.4-3.5-4.4c-0.1,0-0.2,0-0.2,0v2.3c0.1,0,0.2,0,0.2-0.1c0.6,0,0.8,0.6,0.8,1.9l0,0
		c0,1.1-0.3,2.1-1.1,2.9v2.6C91.7,24.3,93.2,22.2,93.2,19.8L93.2,19.8z M89.5,30.7c0.3,0.1,0.6,0.1,0.9,0.1c0.4,0,0.7,0,1.1-0.1l0,0
		v-2.3l0,0c-0.3,0-0.6,0.1-0.9,0c-0.4,0-0.8-0.2-1.1-0.5L89.5,30.7z M89.5,15.5c-1.7,0.1-3.9,1.2-3.9,7.6c0,5.6,2,7.3,3.9,7.6V28
		c-0.5-0.5-0.8-1.3-0.9-2.6c0.3,0,0.6-0.1,0.9-0.2v-2.6c-0.3,0.3-0.6,0.5-1,0.6c0-0.3,0-0.5,0-0.8c0-3.3,0.5-4.3,1.1-4.5V15.5z"/>
	<path class="st0" d="M102.3,30.9V15.6h-2.7v0.8l-0.9-0.9l0,0c-0.1,0-0.3,0-0.4,0c0,0-0.1,0-0.2,0v2.5c0.1,0,0.2-0.1,0.3-0.1
		c0.4,0,0.8,0.5,0.9,0.8l0,0v9.5l0,0c-0.5-0.2-0.9-0.5-1.2-1v3.1c0.4,0.2,0.8,0.3,1.2,0.4l0,0v1.4l0,0c0,0.8-0.5,1.4-1.2,1.4v2.3
		C100.3,35.8,102.3,34.6,102.3,30.9L102.3,30.9z M98.2,15.5c-2.2,0.1-4.1,2-4.1,6.8c0,5.2,2.5,7.3,4.1,8.1v-3.1
		c-0.7-0.9-1.2-2.6-1.2-5.5c0-2.1,0.6-3.5,1.2-3.8V15.5z M98.2,33.5H98c-0.4,0-0.8-0.1-1.2-0.2l0,0v2.3l0,0c0.5,0.1,0.9,0.2,1.4,0.2
		l0,0V33.5z"/>
	<path class="st0" d="M112.2,25.6v-10h-2.9v10.8l0,0c0,1.1-0.5,2-1.2,2s-1.2-0.9-1.2-2l0,0V15.6H104v10l0,0c0,3.6,1.7,5.3,4.1,5.3
		S112.2,29.2,112.2,25.6z"/>
	<path class="st0" d="M119.5,18.1v-2.5H119c-0.9,0-1.8,0.4-2.3,1.2l0,0v-1.2h-2.8v15.1h2.9V21l0,0c0-1.8,1-2.9,2.4-2.9L119.5,18.1
		L119.5,18.1z"/>
	<path class="st0" d="M127.2,30.7V19.8l0,0c0-3.3-1.6-4.3-3.9-4.4v2.4c0.6,0.1,1,0.5,1,1.2l0,0v0.3l0,0c-0.3,0.1-0.7,0.2-1,0.3v2.9
		c0.2-0.3,0.6-0.6,1-0.8l0,0v5.9l0,0c-0.2,0.3-0.5,0.8-0.9,0.8h-0.1v2.4c0.1,0,0.2,0,0.2-0.1l0,0l1-1v0.9L127.2,30.7L127.2,30.7z
		 M123.3,15.4L123.3,15.4c-0.8,0-1.5,0.1-2.2,0.3l0,0v2.3l0,0c0.6-0.2,1.2-0.3,1.9-0.3c0.1,0,0.2,0,0.3,0L123.3,15.4L123.3,15.4z
		 M123.3,19.6c-1.5,0.7-3.8,2.5-3.8,6.3c0,2.9,1.7,5,3.5,5h0.2v-2.4c-0.5-0.1-0.9-0.8-0.9-2.5c0-1.2,0.3-2.4,0.9-3.4L123.3,19.6
		L123.3,19.6z"/>
	<path class="st0" d="M136.9,30.7V8.1H134v7.5l0,0c-0.4,0.1-0.8,0.2-1.2,0.4v3.1c0.3-0.5,0.7-0.8,1.2-0.9l0,0v9.5l0,0
		c-0.2,0.4-0.5,0.7-0.9,0.8c-0.1,0-0.2,0-0.3,0v2.5h0.2c0.1,0,0.3,0,0.4,0l0,0l0.9-0.9v0.8H136.9z M132.8,16c-1.7,0.8-4.1,2.9-4.1,8
		c0,4.8,1.9,6.8,4.1,6.8v-2.5c-0.7-0.3-1.2-1.7-1.2-3.9c0-2.8,0.5-4.5,1.2-5.5V16z"/>
	<path class="st0" d="M147.2,23.1c0-6.8-2.8-7.7-4.3-7.7V18c0.7,0,1.4,1.1,1.4,5.2l0,0c0,4.2-0.7,5.2-1.4,5.2v2.5
		C144.4,30.8,147.2,29.9,147.2,23.1L147.2,23.1z M142.9,15.4L142.9,15.4c-1.5,0-4.3,0.9-4.3,7.7s2.8,7.7,4.3,7.7l0,0v-2.5l0,0
		c-0.7,0-1.4-1-1.4-5.2s0.7-5.2,1.4-5.2l0,0V15.4z"/>
	<path class="st0" d="M154.2,18.1v-2.5h-0.5c-0.9,0-1.8,0.5-2.3,1.2l0,0v-1.2h-2.8v15.1h2.9V21l0,0c0-1.8,1-2.9,2.4-2.9L154.2,18.1
		L154.2,18.1z"/>
	<path class="st0" d="M161.9,30.7V19.8l0,0c0-3.3-1.7-4.3-3.9-4.4v2.4c0.6,0.1,0.9,0.5,0.9,1.2l0,0v0.3l0,0
		c-0.3,0.1-0.6,0.2-0.9,0.3v2.9c0.2-0.3,0.6-0.6,0.9-0.8l0,0v5.9l0,0c-0.1,0.3-0.4,0.8-0.9,0.8H158v2.4c0.1,0,0.2,0,0.2-0.1l0,0
		l0.9-1v0.9L161.9,30.7L161.9,30.7z M158,15.4L158,15.4c-0.8,0-1.5,0.1-2.2,0.3l0,0v2.3l0,0c0.6-0.2,1.2-0.3,1.9-0.3
		c0.1,0,0.2,0,0.3,0L158,15.4L158,15.4z M158,19.6c-1.5,0.7-3.7,2.5-3.7,6.3c0,2.9,1.6,5,3.5,5h0.2v-2.4c-0.5-0.1-1-0.8-1-2.5
		c0-1.2,0.3-2.4,1-3.4L158,19.6z"/>
	<path class="st0" d="M175.2,25c0-2.9-1.1-4.9-2.9-7.6c-1.4-2-2.4-3.5-2.4-5.1c0-1.2,0.8-2,1.7-2c0.5,0,1,0.1,1.4,0.3l0,0l1-2.2l0,0
		c-0.8-0.4-1.6-0.6-2.4-0.6c-2.9,0-4.8,1.8-4.8,4.8c0,2.2,0.8,3.9,2.7,6.6c1.4,2,2.5,3.9,2.5,6s-1.3,3-2.3,3c-0.7,0-1.4-0.2-2-0.5
		l0,0l-1.1,2.2l0,0c0.9,0.6,2,0.8,3,0.8C172.3,30.9,175.2,29.1,175.2,25L175.2,25z"/>
	<path class="st0" d="M184.8,23.1c0-6.8-2.8-7.7-4.3-7.7V18c0.7,0,1.4,1.1,1.4,5.2l0,0c0,4.2-0.7,5.2-1.4,5.2v2.5
		C182,30.8,184.8,29.9,184.8,23.1L184.8,23.1z M180.5,15.4L180.5,15.4c-1.5,0-4.3,0.9-4.3,7.7s2.8,7.7,4.3,7.7l0,0v-2.5l0,0
		c-0.7,0-1.4-1-1.4-5.2s0.7-5.2,1.4-5.2l0,0V15.4z"/>
	<polygon class="st0" points="189.4,30.7 189.4,8.1 186.5,8.1 186.5,30.7 	"/>
	<path class="st0" d="M194.5,13.1V9h-2.6v4.1H194.5z M194.7,30.7V15.6h-2.9v15.1H194.7z"/>
	<path class="st0" d="M204.7,30.7V8.1h-2.9v7.5l0,0c-0.4,0.1-0.8,0.2-1.2,0.4v3.1c0.3-0.4,0.7-0.8,1.2-0.9l0,0v9.5l0,0
		c-0.1,0.3-0.6,0.8-0.9,0.8c-0.1,0-0.2,0-0.3,0v2.5h0.2c0.1,0,0.3,0,0.4,0l0,0l0.9-0.9v0.8H204.7z M200.5,16c-1.7,0.8-4.1,2.9-4.1,8
		c0,4.8,1.9,6.8,4.1,6.8v-2.5c-0.7-0.3-1.2-1.7-1.2-3.9c0-2.8,0.6-4.5,1.2-5.5V16z"/>
	<path class="st0" d="M213.6,30.7V19.8l0,0c0-3.3-1.6-4.3-3.8-4.4v2.4c0.6,0.1,0.9,0.5,0.9,1.2l0,0v0.3l0,0
		c-0.3,0.1-0.6,0.2-0.9,0.3v2.9c0.2-0.3,0.6-0.6,0.9-0.8l0,0v5.9l0,0c-0.1,0.3-0.4,0.8-0.9,0.8h-0.1v2.4c0.1,0,0.2,0,0.2-0.1l0,0
		l0.9-1v0.9L213.6,30.7L213.6,30.7z M209.8,15.4L209.8,15.4c-0.8,0-1.5,0.1-2.2,0.3l0,0v2.3l0,0c0.6-0.2,1.2-0.3,1.9-0.3
		c0.1,0,0.2,0,0.3,0L209.8,15.4L209.8,15.4z M209.8,19.6c-1.5,0.7-3.7,2.5-3.7,6.3c0,2.9,1.7,5,3.5,5h0.3v-2.4c-0.5-0.1-1-0.8-1-2.5
		c0-1.6,0.5-2.8,1-3.4V19.6z"/>
	<path class="st0" d="M221,18.1v-2.5h-0.5c-0.9,0-1.8,0.4-2.3,1.2l0,0v-1.2h-2.8v15.1h2.9V21l0,0c0-1.8,1-2.9,2.4-2.9L221,18.1
		L221,18.1z"/>
	<path class="st0" d="M224.8,13.1V9h-2.6v4.1H224.8z M224.9,30.7V15.6H222v15.1H224.9z"/>
	<path class="st0" d="M234,30.7V19.8l0,0c0-3.3-1.6-4.3-3.9-4.4v2.4c0.6,0.1,1,0.5,1,1.2l0,0v0.3l0,0c-0.3,0.1-0.7,0.2-1,0.3v2.9
		c0.2-0.3,0.6-0.6,1-0.8l0,0v5.9l0,0c-0.1,0.3-0.4,0.8-0.9,0.8h-0.1v2.4c0.1,0,0.2,0,0.2-0.1l0,0l0.9-1v0.9L234,30.7L234,30.7z
		 M230.2,15.4L230.2,15.4c-0.8,0-1.5,0.1-2.2,0.3l0,0v2.3l0,0c0.6-0.2,1.2-0.3,1.9-0.3c0.1,0,0.2,0,0.3,0L230.2,15.4L230.2,15.4z
		 M230.2,19.6c-1.5,0.7-3.7,2.5-3.7,6.3c0,2.9,1.7,5,3.5,5h0.2v-2.4c-0.5-0.1-0.9-0.8-0.9-2.5c0-1.2,0.3-2.4,0.9-3.4L230.2,19.6
		L230.2,19.6z"/>
	<path class="st0" d="M25.9,1.5c0,0-14.4,14.6-15.3,15.4c-0.9,0.8-9.3,7.6-0.2,17.5c2,1.8,3.1,2.9,3.6,3.4c0.9,0.9,3.4,4.8-0.7,9
		S6,54,6,54h12.1c0,0,5.2-5.3,6.5-6.5c1.3-1.2,7-6.5-2-13.1c-3.3-2.8-10.5-9.2-3-17.6C22.9,13.6,30,5.7,30,5.7l0,0L25.9,1.5
		L25.9,1.5z"/>
	<path class="st1" d="M40.8,24.8c-0.6,6-5.9,10.4-11.9,9.8c-5.2-0.5-9.4-4.6-9.9-9.8H40.8z M19,23.2c0.3-6,5.5-10.6,11.5-10.3
		c5.6,0.3,10,4.7,10.3,10.3H19z"/>
	<path class="st0" d="M34.2,1.5c0,0,14.4,14.6,15.3,15.4c0.9,0.8,9.3,7.6,0.2,17.5c-2,1.8-3.1,2.9-3.6,3.4c-0.9,0.9-3.4,4.8,0.7,9
		s7.3,7.2,7.3,7.2H41.9c0,0-5.2-5.3-6.6-6.5c-1.4-1.2-6.8-6.5,2-13.1c3.4-2.8,10.5-9.2,3-17.6C37.2,13.6,30,5.7,30,5.7l0,0L34.2,1.5
		z"/>
	<path class="st0" d="M58.3,47.9c0.5,0,1.1,0.2,1.5,0.4c0.5,0.3,0.9,0.6,1.2,1.1c0.3,0.5,0.4,1,0.4,1.5c0,0.5-0.2,1.1-0.4,1.5
		c-0.3,0.5-0.6,0.9-1.1,1.1c-0.5,0.3-1,0.4-1.5,0.4l0,0v-0.5l0,0c0.5,0,0.9-0.1,1.3-0.3c0.4-0.2,0.7-0.6,0.9-0.9
		c0.2-0.4,0.3-0.8,0.3-1.3c0-0.5-0.1-0.9-0.3-1.3c-0.2-0.4-0.6-0.8-1-0.9c-0.4-0.2-0.8-0.3-1.3-0.3l0,0V47.9L58.3,47.9z M58.3,51.4
		c0.2,0.2,0.4,0.5,0.5,0.7l0,0l0.3,0.5h0.6L59.3,52l0,0c-0.2-0.2-0.3-0.5-0.5-0.6c-0.1-0.1-0.2-0.2-0.3-0.2c0.3,0,0.5-0.1,0.7-0.3
		c0.2-0.2,0.3-0.4,0.3-0.6c0-0.2,0-0.3-0.2-0.5c-0.1-0.2-0.3-0.3-0.5-0.3c-0.2,0-0.4-0.1-0.6-0.1v0.5c0.1,0,0.2,0,0.3,0
		c0.1,0,0.2,0.1,0.2,0.2c0.1,0.1,0.1,0.2,0.1,0.3c0,0.2-0.1,0.3-0.2,0.4c-0.2,0.1-0.3,0.1-0.5,0.1L58.3,51.4z M58.3,54
		c-0.5,0-1.1-0.2-1.5-0.4c-0.5-0.3-0.9-0.6-1.2-1.1c-0.3-0.5-0.4-1-0.4-1.5c0-0.5,0.2-1.1,0.4-1.5c0.3-0.5,0.7-0.9,1.2-1.1
		c0.5-0.3,1-0.4,1.5-0.4v0.5c-0.5,0-0.9,0.1-1.3,0.3c-0.4,0.2-0.7,0.6-0.9,0.9c-0.2,0.4-0.3,0.8-0.3,1.3s0.1,0.9,0.3,1.3
		c0.2,0.4,0.6,0.7,0.9,0.9c0.4,0.2,0.8,0.3,1.3,0.3V54L58.3,54z M58.3,49.3H57v3.3h0.5v-1.4h0.3c0.2,0,0.3,0,0.4,0.1c0,0,0,0,0,0.1
		v-0.6h-0.8v-1h0.8L58.3,49.3L58.3,49.3z"/>
	<path class="st1" d="M108.3,72.1L108.3,72.1c0.2-0.1,0.3-0.3,0.4-0.4c0.2-0.2,0.4-0.5,0.5-0.7c0,0,0,0,0-0.1c0,0,0-0.1,0-0.1h-0.2
		c-0.2,0.2-0.4,0.3-0.6,0.5v0c0-0.1,0.1-0.1,0.1-0.2c0-0.1,0.1-0.1,0.1-0.2c0,0,0.1-0.1,0.1-0.1l0.3-0.3l0-0.2l0.6-0.6l0.1,0l0-0.1
		l0-0.2l0.2-0.2l0.1,0l0-0.2l-0.1-0.2c0,0,0,0,0,0v0c0-0.2,0.1-0.3,0.2-0.4c0.2-0.2,0.4-0.3,0.6-0.3l0.2-0.1l0.2,0h0.4l0,0h0.1
		l0.2,0.1l0.1,0.1l0.1,0.1l0.2,0c0.1,0.1,0.3,0.2,0.5,0.3c0.2,0.1,0.3,0.2,0.4,0.4l0.2,0.2l0,0.1v0.1l0.1,0.1l0,0.1
		c0,0.1,0,0.2,0,0.3c0,0,0,0.1,0,0.2c0,0.4-0.1,0.8-0.3,1.2c-0.2,0.5-0.3,0.9-0.3,1.1h0.1l0.2-0.2h0.1l0.6-0.5h0.1l0.1-0.2l0.3-0.2
		l0.2-0.1l0.1-0.1l0.2-0.2l0.1,0c0.2-0.1,0.4-0.2,0.6-0.3c0.1-0.1,0.2-0.1,0.3-0.1c0,0,0.1,0,0.1,0c0,0,0,0,0,0.1
		c0,0.1,0,0.2-0.1,0.3c0,0.1-0.1,0.2-0.2,0.3l-0.2,0.2c-0.1,0.1-0.2,0.2-0.2,0.2c-0.1,0.1-0.1,0.2-0.2,0.2l0,0.1l-0.2,0.1v0
		l-0.1,0.1l-0.2,0.1l-0.2,0.2l-0.1,0.2l-0.2,0l0,0.1c-0.1,0.1-0.2,0.2-0.3,0.2c-0.1,0.1-0.2,0.1-0.3,0.2l-0.2,0.2
		c-0.1,0-0.1,0-0.2,0c0,0-0.1,0-0.1,0.1l-0.2,0.2l-0.1,0c0,0,0,0,0,0c0,0-0.1,0.1-0.1,0.1l-0.6,0.1l-0.1-0.1l-0.1,0
		c-0.1,0-0.1,0-0.2-0.1c0-0.1-0.1-0.2-0.1-0.2c0-0.1,0-0.2,0-0.3c0-0.1,0.1-0.2,0.2-0.4l0-0.2l0.1-0.2v-0.1l0.3-0.9l0-0.1v-0.1
		c0-0.1,0-0.2,0-0.3v-0.2c0-0.2,0-0.3-0.1-0.4c0-0.1-0.1-0.2-0.2-0.3l0-0.1c-0.1,0-0.2,0-0.3-0.1c-0.1-0.1-0.2-0.2-0.3-0.2l-0.2,0
		l-0.1,0.2l-0.4,0.2l-0.2,0.2l-0.1,0.1l-0.2,0.2l-0.1,0.2l-0.4,0.4l-0.1,0.1l-0.2,0.1l-0.1,0.1l-0.2,0.3c0,0,0,0.1-0.1,0.1
		c0,0-0.1,0-0.2,0.1l0,0.1c-0.1,0-0.2,0.1-0.3,0.2C108.4,72.1,108.3,72.1,108.3,72.1z M108.3,71.2L108.3,71.2c0,0.1,0,0.1-0.1,0.1
		c-0.1,0.1-0.2,0.2-0.3,0.2l-0.1,0.1c-0.1,0.1-0.2,0.3-0.2,0.4c-0.1,0.1-0.2,0.3-0.2,0.4v0l0,0.1c0,0,0,0,0,0h0.1c0,0,0,0,0,0
		c0.1-0.1,0.3-0.2,0.4-0.3l0.2-0.1c0.1,0,0.1,0,0.2-0.1l0,0c-0.2,0.2-0.5,0.4-0.7,0.5l-0.3,0l-0.2,0l-0.2-0.1l-0.2-0.2l-0.2-0.2
		c0-0.1-0.1-0.1-0.2-0.2c0-0.1-0.1-0.2-0.2-0.2l-0.2-0.3l-0.2-0.2l-0.2,0.1l-0.2,0l-0.1,0.2l-0.1,0.1l-0.1,0.2l-0.3,0.7
		c-0.1,0.2-0.2,0.4-0.2,0.6l-0.2,0.1v0.3l-0.2,0.5l-0.3,0.9l-0.1,0.1l0,0.3l-0.2,0.6l-0.1,0.1v0.2l-0.2,0.5c0,0,0,0.1,0,0.2
		c0,0,0,0.1,0,0.2l-0.3,0.7c0,0.1-0.1,0.2-0.1,0.2c0,0-0.1,0.1-0.2,0.1c0,0-0.1,0-0.2,0c0,0-0.1,0-0.1,0c0,0-0.1,0-0.2-0.1l-0.1,0
		l-0.2-0.3v-0.2l0-0.2V77c0.1-1,0.2-1.9,0.2-2.7c0.1-0.6,0.2-1.2,0.3-1.9l0-0.1v-0.2l0.1-0.7v-0.1v-0.2v0c0,0-0.1,0-0.1,0.2
		c0,0.1-0.1,0.2-0.2,0.2l-0.1,0.2l-0.2,0.2h0c0,0,0.1,0,0.1-0.1c0.1-0.1,0.2-0.2,0.3-0.3c0.1,0,0.1,0,0.2,0c0,0,0,0,0-0.1v-0.1
		c0.1-0.1,0.2-0.2,0.3-0.3c0.1-0.1,0.2-0.2,0.3-0.3v-0.1c0,0,0-0.1,0.1-0.1c0,0,0,0,0-0.1c0,0,0-0.1-0.1-0.1c0,0-0.1,0-0.1,0h-0.1
		c0,0-0.1,0-0.1,0l-0.2,0.1c-0.1,0-0.2,0.1-0.2,0.1c0,0-0.1,0.1-0.2,0.2l-0.3,0.1v-0.1l0,0c0.2-0.2,0.3-0.5,0.5-0.6l0.2-0.1l0-0.1
		l0.1-0.2l0.2-0.3l0.2-0.3l0.4-0.6l0.5-0.9l0.1,0l0.1-0.3l0.3-0.5l0.1-0.1l0.1,0l0-0.1l0.1-0.1l0.2-0.2l0.1-0.2c0,0,0-0.1,0-0.1
		s0,0,0.1,0c0.1,0,0.2,0.1,0.2,0.2c0.1,0.1,0.1,0.2,0.1,0.3c0,0.2,0,0.3,0,0.5c0,0.2-0.1,0.3-0.2,0.4l-0.1,0.3l-0.2,0.7l-0.2,0.8
		l-0.2,0.5l0,0.2l-0.2,0.3l-0.1,0.1v0.2l0,0.2l-0.1,0.1l0,0.2l-0.2,0.9l-0.1,0.6l-0.1,0.5l-0.2,0.8l-0.1,0.5l0,0.2l-0.1,0.1l0,0.1
		v0.1c-0.1,0.4-0.2,0.8-0.2,1.1c0,0.2-0.1,0.5-0.1,0.7v0.1l0,0l0.1-0.2V76l0-0.1l0-0.1l0-0.2v-0.2l0.1-0.1l0.1-0.3l0.1-0.1v-0.2
		l0.1-0.2v-0.1l0.1-0.2v-0.2l0.2-0.4l0-0.3l0.1-0.1l0-0.1l0.2-0.8l0-0.2l0.2-0.7l0.3-0.7c0-0.1,0.1-0.2,0.2-0.4c0-0.1,0-0.2,0.1-0.3
		l0.1-0.1l0.1-0.3l0.1-0.1v-0.2c0.1-0.1,0.2-0.2,0.3-0.3c0.1,0,0.2-0.1,0.3-0.1c0.2,0,0.3,0,0.4,0.2c0.1,0.2,0.2,0.3,0.3,0.5
		l0.2,0.3l0.2,0.2l0.1,0.2l0.1,0.2l0.1,0.2c0,0.1,0.1,0.2,0.2,0.3c0.1,0.1,0.3,0.1,0.4,0.1C108.1,71.4,108.2,71.3,108.3,71.2
		C108.3,71.2,108.3,71.2,108.3,71.2z M102.3,70.8L102.3,70.8c0,0.1,0,0.1,0,0.1c0,0-0.1,0-0.1,0l-0.2,0.2l0,0.2l-0.1,0h0
		c-0.1,0-0.2,0-0.2,0.1c-0.2,0-0.4-0.2-0.5-0.5c-0.1-0.2-0.2-0.3-0.3-0.5l-0.1-0.1l-0.1-0.2c-0.1-0.2-0.2-0.3-0.3-0.5
		c-0.1-0.1-0.3-0.2-0.4-0.3l-0.3,0.1h-0.2c-0.2,0.1-0.4,0.2-0.5,0.3c-0.2,0.2-0.5,0.5-0.9,0.9l-0.4,0.4c0-0.1,0-0.2,0-0.2
		c0-0.1,0-0.1,0-0.2l0.1-0.3v-0.2l0-0.2v-0.2l0-0.2v0c0-0.2,0.1-0.4,0.1-0.6c0-0.2,0-0.4,0-0.6c0-0.2,0-0.3,0-0.4
		c0-0.1-0.1-0.2-0.1-0.2h-0.1l-0.2,0c-0.1,0-0.3,0-0.4,0c-0.1,0-0.1,0-0.2,0.1l-0.2,0.2l-0.3,0.3l-0.6,0.6l-0.6,0.6l-0.6,0.6
		l-0.2,0.2l-0.2,0.1l0-0.2v-0.2l0.1-0.4v-0.2v-0.2c0.1-0.2,0.1-0.3,0.2-0.4s0-0.3,0-0.5c0-0.1,0-0.3-0.1-0.3
		c-0.1-0.1-0.2-0.2-0.3-0.1c-0.3,0-0.9,0.5-1.8,1.4c-0.4,0.4-0.7,0.8-1,1v0.1l-0.1,0.1c0,0-0.1,0.1-0.1,0.1v0v0c0,0,0.1-0.1,0.2-0.1
		c0.1,0,0.2-0.1,0.3-0.1c0-0.1,0.1-0.1,0.2-0.2c0.1,0,0.2-0.1,0.2-0.1l0.1-0.1c0,0,0.1,0,0.1,0h0.1c0,0,0.1,0,0.2,0c0,0,0,0,0,0.1
		c0,0,0,0.1,0,0.1c0,0,0,0.1-0.1,0.1l0,0.1c0,0.1-0.1,0.1-0.2,0.2c-0.1,0.1-0.2,0.2-0.3,0.3v0c0,0,0,0.1,0,0.2c-0.1,0-0.1,0-0.2,0
		c-0.1,0.2-0.3,0.4-0.5,0.5c0,0,0,0,0,0v-0.1c0,0,0,0,0.1-0.1l0.4-0.4l0.1-0.1c0.1-0.1,0.2-0.2,0.3-0.3c0.1-0.1,0.2-0.2,0.2-0.4
		l0.2,0c0,0,0.1,0,0.2-0.1c0,0,0.1,0,0.1,0s0.1,0,0.1,0c0,0,0,0,0,0.1s0,0.1,0,0.1c0,0,0,0.1,0,0.2l-0.2,0.5v0.2l-0.1,0.2l0,0.2
		l-0.2,0.5v0.1L92.1,73v0.2l0.1,0.1c0,0,0.1,0,0.1,0h0.1l0.1,0c0,0,0,0,0,0h0.1c0,0,0.1,0,0.2,0s0.1,0,0.1-0.1
		c0.2-0.1,0.3-0.3,0.4-0.4c0.1-0.1,0.2-0.2,0.2-0.3l0.2-0.3l0.1-0.1l0.4-0.5l0.1-0.2l0.2-0.2c0,0,0.1-0.1,0.2-0.2l0.4-0.5l0.3-0.2
		l0.2-0.2c0.1-0.1,0.2-0.2,0.3-0.2c0,0,0.1-0.1,0.2-0.1c0.1,0,0.1,0,0.2,0.1c0,0,0.1,0.1,0.1,0.2v0.2l-0.1,0.2l-0.1,0.3l0,0.1
		l-0.1,0.3L96,71.7l-0.2,0.8l-0.2,0.7c0,0.2,0,0.3,0.1,0.4c0.1,0.1,0.2,0.2,0.3,0.1c0.1,0,0.2,0,0.3-0.1c0.1-0.1,0.2-0.2,0.3-0.3
		l0.3-0.4l0.2-0.2l0.3-0.3l0.5-0.7l0.4-0.2c0.1,0,0.2-0.1,0.2-0.2c0.1-0.1,0.2-0.2,0.3-0.2c0.2,0,0.3,0.1,0.4,0.2c0,0,0,0,0,0
		l0.3,0.2l0,0.2l0.2,0.1l0.4,0.5l0.2,0.2l0.2,0.1c0,0.1,0.1,0.1,0.2,0.2c0.1,0,0.2,0.1,0.2,0.1c0,0,0.1,0,0.1,0c0,0,0.1,0,0.2,0
		l0.2-0.1c0.2,0,0.3-0.1,0.4-0.2c0.2-0.1,0.3-0.3,0.5-0.4l0,0l0,0c-0.2,0.1-0.4,0.2-0.6,0.3c-0.1,0.1-0.2,0.2-0.3,0.2
		c-0.1,0-0.1,0-0.2-0.1c0-0.1,0-0.1,0-0.2c0,0,0-0.2,0.2-0.3c0.1-0.2,0.2-0.3,0.4-0.4c0-0.1,0.1-0.2,0.2-0.2s0.2-0.1,0.2-0.2
		l0.1-0.2C102.2,70.8,102.3,70.8,102.3,70.8L102.3,70.8z M102.3,77L102.3,77z M91.1,70.9L91.1,70.9C91.1,71,91,71,91.1,70.9
		L91.1,70.9L91,71.1c-0.1,0-0.1,0.1-0.2,0.2c0,0-0.1,0.1-0.1,0.2c0,0-0.1,0-0.1,0.1c0,0-0.1,0.1-0.1,0.2c0,0.1-0.2,0.2-0.3,0.3l0,0
		v0.1v0c0,0.1,0,0.2-0.1,0.2c-0.1,0-0.2,0.2-0.2,0.3c0,0,0,0.1,0.1,0.1c0,0,0,0,0.1,0c0.1,0,0.1,0,0.2,0c0,0,0.1-0.1,0.1-0.1
		c0.1,0,0.2-0.1,0.2-0.1c0,0,0.1,0,0.1-0.1c0-0.1,0.1-0.1,0.2-0.2c0.1,0,0.2,0,0.2-0.1c0,0,0.1-0.1,0.2-0.2c0,0,0,0,0.1,0v0.1
		c-0.1,0-0.1,0.1-0.2,0.1L91,72.3l-0.1,0c0,0-0.1,0.1-0.1,0.1c0,0-0.1,0.1-0.2,0.2l-0.1,0.2l-0.2,0.2c-0.2,0.2-0.4,0.3-0.6,0.4
		c-0.2,0.1-0.4,0.2-0.6,0.2H89l-0.2,0l-0.1,0l0,0v-1.3c0,0,0,0,0.1,0c0.1,0,0.3,0.1,0.4,0.1c0.1,0,0.2,0,0.3,0
		c0.1,0,0.2-0.1,0.3-0.2l0.2,0l0.3-0.2h0.2l0-0.1c0.1-0.1,0.1-0.1,0.2-0.2c0.1-0.1,0.2-0.2,0.3-0.3l0.1-0.1L91.1,70.9
		C91.2,71,91.2,71,91.1,70.9L91.1,70.9z M88.7,70.7v-0.9v0l0.3-0.3l0.1-0.1c0-0.1,0-0.2,0.1-0.2c0-0.1,0.1-0.2,0.1-0.3v-0.1
		c0,0,0,0-0.1,0h0l-0.1,0.1L88.8,69l-0.1,0.1v-1.4v0h0.1l0-0.1c0.1-0.1,0.3-0.2,0.4-0.2c0.2-0.1,0.3-0.1,0.4-0.1h0.1
		c0,0,0.1,0,0.1,0l0.1,0l0.3,0.1l0.1,0.2l0,0c0,0.1,0.1,0.2,0.1,0.2c0,0,0,0.1,0,0.1v0.1v0l0,0.1v0.2l0,0.2l-0.1,0.2l0,0.2
		c0,0.1-0.1,0.2-0.2,0.2c-0.1,0.1-0.2,0.2-0.2,0.3l-0.1,0.1c-0.1,0.2-0.3,0.3-0.5,0.5C89.3,70.3,89,70.4,88.7,70.7L88.7,70.7z
		 M88.7,67.8v1.4l-0.2,0.2l-0.3,0.4c0,0-0.1,0.1-0.1,0.2c0,0,0,0.1,0,0.2h0v0l0,0c0,0,0,0,0,0c0,0,0,0,0.1,0h0.1c0,0,0,0,0,0
		c0,0,0,0,0.1-0.1l0.1-0.2l0.2-0.1v0.9h-0.1l-0.1,0.1l-0.3,0.2L88.1,71c0,0,0,0-0.1,0v0.1c0,0.1,0,0.1,0,0.2c0,0.1,0,0.2,0.1,0.2
		l0.1,0.1l0,0.2c0.1,0.1,0.2,0.2,0.3,0.2v1.3h-0.2c-0.2,0-0.3,0-0.5-0.1c-0.1,0-0.2-0.1-0.3-0.2h-0.1l-0.2-0.2l-0.1-0.2l-0.1-0.1
		L87,72.5c0-0.1-0.1-0.2-0.1-0.2l-0.1-0.3l0-0.2l-0.2,0.2l-0.1,0v0l0.2-0.1l0.1-0.1l0.2-0.2l0.1-0.2l0,0c0,0,0.1-0.1,0.2-0.2
		c0.1-0.2,0.2-0.3,0.3-0.4l0.1-0.1c0-0.1,0-0.2,0.1-0.3v0c0,0,0-0.1,0-0.1c0,0-0.1,0-0.2,0c-0.2,0-0.3,0.2-0.5,0.3
		c-0.2,0.2-0.5,0.3-0.7,0.4v0l0.1,0l0.2-0.2c0,0,0,0,0-0.1c0,0,0,0,0-0.1v-0.1l0.1-0.2l0-0.1l0-0.1c0-0.2,0.1-0.3,0.1-0.5
		c0-0.1,0.1-0.2,0.2-0.3l0.1-0.1l0-0.1c0.1-0.2,0.3-0.4,0.4-0.6c0.2-0.3,0.5-0.5,0.8-0.8h0.1L88.7,67.8z M86.5,70.9L86.5,70.9
		L86.4,71l0,0.1c-0.1,0-0.2,0.1-0.2,0.2c0,0-0.1,0.1-0.1,0.2l-0.1,0l-0.1,0.2c-0.1,0.1-0.1,0.2-0.2,0.2c0,0-0.1,0.1-0.2,0.2v0.2
		c-0.1,0-0.2,0.1-0.2,0.1c0,0,0,0.1,0,0.2c0,0,0,0.1,0,0.2c0,0,0.1,0,0.1,0c0.1,0,0.2,0,0.2,0c0,0,0.1-0.1,0.1-0.1l0.2-0.1l0.1-0.1
		c0,0,0-0.1,0.1-0.1c0.1,0,0.2-0.1,0.2-0.1l0.2-0.1l0,0v0l0,0c-0.1,0.1-0.2,0.2-0.4,0.3c-0.2,0.2-0.3,0.3-0.6,0.5L85.6,73l-0.3,0.2
		H85c0,0-0.1,0-0.1,0h-0.2c-0.1,0-0.3,0-0.4-0.1c-0.1,0-0.2-0.2-0.3-0.2l-0.1-0.1l-0.2-0.1v-0.1v-0.1l-0.1,0l-0.2-0.4v-0.3l-0.1-0.1
		l-0.2-0.3c0,0-0.1-0.1-0.1-0.2c-0.1-0.1-0.1-0.2-0.2-0.2s-0.1,0-0.1,0c0,0-0.1,0-0.1,0.1h-0.1l-0.1,0.1l-0.2,0.2l-0.1,0l-0.2,0.1
		l0,0.1l-0.1,0.1c-0.1,0.1-0.3,0.2-0.5,0.4c-0.1,0.1-0.2,0.2-0.3,0.2v0.3c0.1,0,0.1-0.1,0.2-0.1c0,0,0.1-0.1,0.1-0.2
		c0,0,0-0.1,0-0.1c0,0,0,0,0-0.1v-0.1c0,0,0-0.1,0-0.1c0,0,0-0.1-0.1,0h0v0l0,0h0v-0.6c0,0,0,0,0,0c0.1-0.1,0.2-0.2,0.3-0.3
		c0.1-0.1,0.2-0.2,0.2-0.3c0.1-0.1,0.2-0.2,0.2-0.2l0.1-0.2l0.1,0v-0.1c0.1-0.1,0.2-0.2,0.3-0.3c0.2-0.2,0.3-0.3,0.4-0.5l0.2-0.1
		l0.1-0.2l0.2-0.1h0.6l0.3,0.2c0.1,0.1,0.2,0.3,0.3,0.8v0.1l0.1,0.8l0.1,0.1c0,0.2,0.1,0.4,0.2,0.6c0.1,0.1,0.2,0.2,0.4,0.2
		c0.1,0,0.2,0,0.2,0c0.1,0,0.2-0.1,0.2-0.2l0.2,0l0.1-0.1l0.3-0.3L86.5,70.9C86.5,70.9,86.6,70.9,86.5,70.9L86.5,70.9z M81.4,64.5
		v-1.9c0.1,0,0.2-0.1,0.3-0.1c0,0,0,0,0.1,0h0.1c0.1,0,0.2,0.1,0.3,0.2c0.1,0.1,0.1,0.2,0.1,0.3v0l0,0v0.3l0,0c0,0,0,0.1,0,0.1v0.1
		c0,0,0,0.1,0,0.1c0,0.1,0,0.1-0.1,0.2l-0.2,0.1l-0.1,0.1C81.7,64.3,81.6,64.4,81.4,64.5L81.4,64.5z M84,66.5l-0.2,0.1
		c0,0-0.1,0-0.1,0c0,0-0.1-0.1-0.1-0.1l-0.1-0.1c0,0,0-0.1-0.1-0.2s0-0.1,0-0.1c0-0.2,0.1-0.4,0.2-0.5c0.2-0.2,0.3-0.4,0.5-0.6
		l0.1,0l0.1,0v-0.2l0.3-0.3l0.2,0c0,0,0.1-0.1,0.2-0.1c0,0,0.1,0,0.2,0c0.1,0,0.2,0,0.3,0.1c0.1,0,0.1,0.1,0.1,0.2v0l-0.1,0.5
		l-0.1,0.3l-0.1,0.1v0.2L85.2,66c0,0.1-0.1,0.2-0.2,0.2c0,0-0.1,0.1-0.2,0.2l-0.1,0l0,0.1c-0.1,0.1-0.2,0.1-0.3,0.2
		c-0.1,0-0.1,0-0.2,0h-0.1L84,66.5z M69.5,65.6l0-0.1l0.4-0.3c0,0,0,0,0.1,0H70c0,0,0.1,0,0.1,0c0,0,0,0.1,0,0.1v0v0L70,66.1l0,0.5
		l-0.1,0.5l0,0.4l-0.1,0.4V68l-0.1,0.4l0,0.3l-0.1,0.6l-0.1,0.3l0.1,0.3l-0.1,0.8l0,0.5c0,0,0,0,0,0.1v0c0,0,0,0.1,0,0.2
		c0,0,0.1,0.1,0.1,0.1c0,0,0.1,0,0.1,0.1c0,0,0,0.1,0,0.2c0,0.1,0,0.2,0,0.2c0,0.1,0,0.2-0.1,0.2l0,0.3l-0.1,0.2l-0.1,0.4l0,0.3
		l-0.1,0.2v0.1c0,0.2,0,0.3-0.1,0.4c-0.1,0.2-0.2,0.3-0.4,0.4l-0.2,0.1l-0.1,0.1h0c0,0,0,0-0.1,0h0c0,0,0,0,0,0l0,0.2
		C68.1,74.9,68,75,67.9,75c-0.1,0-0.2,0.1-0.3,0.1h-0.2c0,0-0.1-0.1-0.2-0.2c0,0,0,0,0-0.1l0-0.4l0.1-0.4l0.1-0.6l0.1-0.5l0.1-0.5
		l0.2-0.5l0-0.2l0.1-0.3l0.1-0.3l0.1-0.5l0.1-0.2l0-0.2l0.1-0.5l0.1-0.5l0.2-0.7l0.1-0.4l0.1-0.2V68l0.1-0.5l0.1-0.5
		c0,0,0-0.1,0.1-0.1c0,0,0-0.1,0.1-0.1l0-0.1h0c0,0,0,0,0-0.1v0c0,0,0,0,0-0.1l0.2-0.6l0.1-0.3L69.5,65.6L69.5,65.6z M81.4,62.7v1.9
		c-0.2,0.2-0.5,0.4-0.7,0.5c-0.4,0.2-0.8,0.5-1.1,0.6c0,0,0,0-0.1,0h0c0,0-0.1,0-0.2,0c0,0-0.1-0.1-0.1-0.1l0-0.1c0,0,0-0.1,0-0.1
		c0,0,0-0.1,0.1-0.1c0,0,0.1-0.1,0.2-0.2c0.4-0.3,0.6-0.5,0.6-0.8c-0.2,0-0.3,0.1-0.4,0.2c-0.2,0.1-0.3,0.3-0.5,0.4L79,65L79,65.1
		c-0.2,0.2-0.5,0.5-0.6,0.8c-0.2,0.2-0.2,0.5-0.2,0.7c0,0.1,0,0.2,0.1,0.3c0,0.1,0.1,0.2,0.2,0.3l0.1,0.2v0.1c0,0,0,0.1,0,0.2
		c0,0,0.1,0.1,0.2,0.1c0.2,0.2,0.4,0.6,0.8,1c0.3,0.5,0.8,0.9,1.3,1.5c0,0,0,0.1,0.1,0.2c0,0,0.1,0.1,0.2,0.2
		c0.1,0.2,0.2,0.3,0.2,0.5c0,0.2,0.1,0.3,0,0.5v0.2c0,0.1,0,0.1,0,0.2l0.2,0v-0.5c-0.2,0.2-0.4,0.4-0.6,0.6v0.2
		c-0.1,0-0.1,0.1-0.2,0.1c0,0-0.1,0.1-0.1,0.2s0,0.1,0.1,0.2c0,0,0.1,0,0.1,0c0.2-0.1,0.5-0.2,0.6-0.4v0.4c0,0,0,0,0,0l-0.5,0.2
		L80.7,73c-0.1,0.1-0.3,0.3-0.4,0.5s-0.4,0.3-0.6,0.5l-0.1,0.1l-0.1,0.1c-0.2,0.1-0.3,0.2-0.5,0.3c-0.2,0.1-0.3,0.2-0.4,0.3l0,0
		c-0.1,0.1-0.2,0.2-0.3,0.2c-0.1,0-0.2,0.1-0.4,0.2l-0.1,0.1l-0.1,0l-0.1,0.1c-0.1,0-0.2,0-0.3,0c-0.1,0-0.2,0-0.3,0.1l0,0h0
		c-0.2,0-0.3,0-0.4-0.1c-0.2-0.1-0.3-0.2-0.5-0.3L76,74.8v0c0,0,0-0.1,0-0.1s0-0.1,0-0.1c0,0,0-0.1,0-0.1l0-0.1
		c0-0.1,0.1-0.2,0.3-0.3c0.2-0.2,0.5-0.3,0.7-0.4l0.1-0.1l1.6-0.7c0,0,0,0,0.1,0c0,0,0,0,0.1,0c0.1,0,0.1,0,0.2,0.1s0,0.1,0.1,0.1
		c0,0,0,0.1,0,0.1c0,0-0.1,0.1-0.2,0.1l-0.1,0l-0.2,0.1c-0.1,0-0.1,0-0.2,0.1c0,0-0.1,0.1-0.1,0.1l0,0.1c0,0,0,0,0,0
		c0,0,0.1,0,0.1,0c0.2,0,0.4-0.2,0.5-0.3c0.3-0.2,0.4-0.4,0.4-0.5v-0.1c0,0,0,0,0-0.1c0,0,0,0,0-0.1c0.1,0,0.2-0.1,0.2-0.2
		c0.1,0,0.2-0.1,0.2-0.1v-0.2c0-0.3-0.4-0.9-1.1-1.7c-0.2-0.2-0.2-0.3-0.3-0.4L78.3,70l-0.1-0.1L78,69.7l-0.1,0
		c-0.1-0.1-0.2-0.2-0.3-0.4c-0.1-0.2-0.2-0.2-0.3-0.3l-0.2-0.4l-0.1-0.1l-0.1-0.2v-0.1c0,0,0,0,0-0.1c0,0,0,0-0.1,0
		c-0.1-0.2-0.2-0.4-0.2-0.6c0-0.2-0.1-0.3-0.1-0.5c0,0,0-0.1,0-0.1c0,0,0-0.1,0-0.1v-0.2c0-0.1,0.1-0.2,0.1-0.3
		c0-0.1,0.1-0.3,0.1-0.3l0.3-0.2l0-0.2c0.2-0.3,0.3-0.5,0.5-0.7c0.2-0.2,0.3-0.3,0.5-0.4c0-0.1,0.1-0.1,0.2-0.2
		c0.1,0,0.1-0.1,0.2-0.1v-0.1c0.2-0.2,0.5-0.4,0.9-0.6c0.1,0,0.1-0.1,0.2-0.1l0.2-0.1l0.1-0.1c0.5-0.2,0.9-0.4,1.3-0.5
		C81,62.8,81.2,62.7,81.4,62.7L81.4,62.7z M70,62.8l0.2,0l0.1-0.1c0.1,0,0.2,0,0.2,0c0,0,0.1,0.1,0.1,0.1h0l0.1,0.1l0,0.1l0.1,0.1
		l0,0.4c0,0-0.1,0.2-0.2,0.3c-0.1,0.1-0.1,0.2-0.2,0.3l-0.2,0l-0.1,0.1l0,0.1H70l0,0.1c-0.1,0-0.1,0-0.2,0c0,0-0.1,0-0.2,0
		c-0.1,0-0.1,0-0.2,0c0,0,0,0-0.1,0l-0.3-0.2l0-0.1L69,64l0-0.1l0.1-0.3l0.1-0.1l0-0.1l0,0v-0.2l0.1-0.3c0.1-0.1,0.1-0.1,0.2-0.2
		c0.1,0,0.2-0.1,0.2-0.1l0.1,0L70,62.8z"/>
	<path class="st1" d="M135.8,72L135.8,72c0.1-0.1,0.2-0.2,0.3-0.2l0.2-0.2l0,0c0,0,0.1-0.1,0.1-0.1l0.1-0.1l0-0.1l0.1,0l0.1,0
		l0.2-0.2l0.2-0.3c0,0,0.1-0.1,0.2-0.3c0.1-0.2,0.3-0.2,0.5-0.2c0,0,0.1,0,0.1,0c0,0,0,0,0,0.1c0,0.1,0,0.3-0.1,0.4
		c0,0.1-0.1,0.2-0.1,0.3v0c0,0,0,0,0,0.1l-0.1,0.2c0,0,0,0.1-0.1,0.2c0,0,0,0,0,0.1c0,0.2-0.1,0.3-0.1,0.5c-0.1,0.3-0.2,0.7-0.3,1.2
		l0,0.2l0,0.1v0.2c0,0.1,0,0.2,0.1,0.2c0.1,0,0.2,0.1,0.2,0.1c0.2,0,0.3,0,0.5-0.1c0.2-0.1,0.3-0.2,0.4-0.3c0.2-0.1,0.3-0.3,0.4-0.4
		c0.2-0.2,0.4-0.4,0.7-0.8l0.2-0.3c0.1,0,0.2-0.1,0.2-0.1c0.1,0,0.1-0.1,0.2-0.2l0.2-0.2l0.2,0c0.2-0.2,0.4-0.3,0.5-0.4
		c0.1,0,0.2,0,0.2-0.1h0.1c0,0,0.1,0,0.1,0c0.1,0.1,0.2,0.2,0.3,0.3c0.1,0.1,0.2,0.2,0.3,0.3v0.2c0.1,0.3,0.3,0.5,0.5,0.8
		c0.2,0.2,0.3,0.3,0.6,0.3c0,0,0.1,0,0.1,0c0,0,0.1,0,0.2-0.1l0.3-0.2l0.1-0.1l0.1,0c0.1,0,0.2-0.2,0.3-0.3l0.1,0l0.1-0.1
		c0.2-0.2,0.4-0.4,0.5-0.6l0.5-0.5l0.1-0.1c0,0,0-0.2,0.1-0.3c0,0,0-0.1,0-0.2c0,0,0,0-0.1,0c-0.2,0-0.3,0.1-0.5,0.3
		c-0.2,0.2-0.4,0.3-0.6,0.3l-0.1,0.1l-0.2,0.2l-0.1,0.1l-0.1,0c0,0-0.1,0-0.2,0h-0.1c-0.1,0-0.2-0.1-0.3-0.3c0-0.1-0.2-0.2-0.2-0.3
		l0.1-0.2c0-0.2-0.1-0.3-0.2-0.4c-0.1-0.2-0.2-0.3-0.2-0.4l-0.2-0.2c0-0.1-0.1-0.2-0.2-0.2c-0.1-0.1-0.3-0.1-0.4-0.1
		c-0.2,0-0.5,0.1-0.7,0.2c-0.3,0.2-0.5,0.4-0.8,0.6l-0.2,0.2l-0.2,0.2c0,0-0.1,0.1-0.1,0.1c0,0-0.1,0.1-0.1,0.2l0,0.1l0,0.1l-0.2,0
		c-0.1,0.1-0.2,0.2-0.3,0.3c-0.1,0.1-0.2,0.2-0.2,0.3l-0.3,0.3v-0.1c0-0.1,0-0.1,0.1-0.2c0,0,0.1-0.1,0.1-0.2v-0.1v0l0.1,0
		c0.1-0.3,0.2-0.5,0.2-0.7l0.2-0.5V70l0.1-0.2c0-0.1,0.1-0.2,0.1-0.2s0-0.2,0.1-0.3l0-0.3c0-0.1,0-0.2,0-0.2c0-0.2,0-0.3-0.1-0.5
		c-0.1-0.1-0.2-0.2-0.3-0.3h-0.2l-0.1,0l-0.2,0.1l-0.2,0.1l-0.2,0c-0.6,0.5-1.1,1-1.5,1.5c-0.3,0.3-0.5,0.6-0.7,0.8l-0.1,0.2
		l-0.2,0.1l-0.1,0.1c0,0,0,0.1,0,0.2l0,0V71c0,0,0.1,0,0.1-0.1c0.1-0.1,0.2-0.1,0.3-0.1c0,0,0.1-0.1,0.1-0.2c0.1,0,0.1-0.1,0.2-0.1
		c0.1-0.1,0.1-0.1,0.2-0.2c0.1,0,0.2,0,0.2,0c0,0,0.1,0,0.1,0c0,0,0,0,0,0.1l0,0c0,0,0,0.1,0,0.1v0.1c0,0,0,0.1,0,0.1
		c0,0-0.1,0.1-0.1,0.2c-0.1,0.1-0.2,0.2-0.3,0.3c0,0,0,0,0,0c0,0.1,0,0.1,0,0.2s-0.1,0.1-0.2,0.1c0,0.1-0.2,0.2-0.3,0.3
		C136,71.8,135.9,71.9,135.8,72z M135.8,70.9L135.8,70.9c0,0.1,0,0.1-0.1,0.1h0h0c0,0,0,0,0,0.1c0,0-0.2,0.1-0.3,0.3
		c-0.2,0.2-0.4,0.4-0.6,0.7v0.2c-0.1,0-0.1,0.1-0.2,0.1c0,0,0,0.1,0,0.2s0,0.1,0,0.1c0,0,0.1,0.1,0.1,0.1c0.2,0,0.3-0.1,0.5-0.2
		c0.2-0.1,0.4-0.3,0.7-0.5v0c0,0,0,0,0,0l-0.3,0.2h-0.2l-0.2,0.2l-0.2,0c-0.1,0.1-0.2,0.2-0.2,0.2c-0.1,0-0.2,0.1-0.3,0.1
		c-0.3,0-0.6-0.1-0.9-0.3c-0.2-0.2-0.4-0.5-0.4-0.8c0,0,0,0,0-0.1c0,0,0,0,0,0c0,0-0.1,0-0.1,0s-0.1,0.1-0.1,0.2l-0.2,0.2l-0.3,0.2
		v0l-0.1,0.2l-0.2,0.3l-0.2,0.1c-0.1,0.2-0.2,0.4-0.4,0.6c-0.2,0.2-0.5,0.3-0.7,0.4h-0.2h-0.2c-0.3-0.1-0.5-0.3-0.6-0.5
		c-0.2-0.3-0.3-0.7-0.3-1l-0.1-0.4v-0.4l-0.2-0.1l-0.1,0l0,0.1l-0.2,0.1h-0.1c0,0-0.1,0-0.2,0c0,0,0,0.1,0,0.1v0l0,0.2l0,0.1h-0.1
		l0,0v0c0,0,0.1,0,0.1-0.1c0.1,0,0.2-0.1,0.3-0.2c0.1-0.1,0.2-0.2,0.2-0.3c0,0,0.1,0,0.2-0.1c0,0,0-0.1,0.1-0.2
		c0-0.1,0.2-0.2,0.3-0.3s0.2-0.2,0.3-0.3l0-0.1c0,0,0-0.1,0-0.1v-0.1c0,0,0-0.1,0-0.1c0,0-0.1,0-0.2,0h-0.1c0,0-0.1,0-0.1,0.1
		c-0.1,0.1-0.1,0.1-0.2,0.2c-0.1,0-0.2,0.1-0.2,0.2c0,0-0.1,0-0.1,0c0,0-0.1,0-0.2,0.1l-0.2,0.1l-0.1,0v-0.1c0,0,0.1-0.1,0.1-0.1
		l0.2-0.2l0.1-0.1l0.1-0.2l0.1-0.1l0.4-0.4l0.2-0.1l-0.1-0.1l0.2-0.3l0.3-0.2V69l0.5-0.7l0.1,0h0.1l0.1-0.1h0.1
		c0.2,0,0.2-0.1,0.2-0.1c0,0,0.1,0,0.1,0c0.1,0,0.2,0,0.2,0.1c0.1,0.1,0.1,0.2,0.1,0.2v0.1l0,0c0,0.2-0.1,0.3-0.2,0.4l-0.2,0.2v0.2
		l-0.2,0.5l-0.2,0.8l0,0.2l0,0.2c0,0.2-0.1,0.3-0.1,0.4s0,0.2,0,0.2s0,0.1,0,0.2c0,0,0,0.1,0,0.1v0.2c0,0,0,0.1,0,0.2
		c0,0.1,0,0.2,0.1,0.2l0.1,0l0.2-0.1l0.1-0.2h0.2l0-0.1l0.2-0.2l0.2-0.1l0.1-0.2l0.4-0.3l0.1-0.1l0.1-0.1l0-0.1l0.2-0.3l0.3-0.5
		l0.2-0.2v-0.1l0.2-0.1c0.1,0,0.2,0,0.3,0c0.1,0,0.2,0,0.2,0c0,0,0,0,0,0h0c0.2,0,0.2,0.2,0.3,0.6c0,0.3,0,0.5,0.1,0.8
		c0,0.2,0.2,0.3,0.2,0.4c0.1,0.1,0.2,0.2,0.3,0.2h0l0,0l0.1,0l0.1,0l0.1-0.1l0.2-0.2L135.8,70.9C135.8,71,135.8,71,135.8,70.9z
		 M128.5,70.9L128.5,70.9l-0.2,0.2l-0.1,0.2c-0.1,0-0.1,0-0.2,0.1c0,0-0.1,0.1-0.1,0.2l-0.2,0.1c-0.1,0-0.2,0.1-0.3,0.2
		s-0.2,0.2-0.2,0.2c0,0,0,0.1-0.1,0.2c0,0-0.1,0.1-0.1,0.1l0-0.1c0.2-0.4,0.3-0.8,0.4-1.2c0.1-0.6,0.2-1.3,0.3-2.1v-0.1l0-0.1
		c0-0.2,0-0.3,0-0.5c0-0.2,0-0.3,0.1-0.5v-0.4c0-0.1,0-0.2-0.2-0.3c-0.1-0.1-0.3-0.1-0.4-0.1c-0.1,0-0.2,0.1-0.3,0.2
		c-0.2,0.2-0.3,0.3-0.4,0.4v0.1c-0.2,0.2-0.3,0.3-0.6,0.6c-0.2,0.2-0.3,0.3-0.5,0.5c0,0,0,0.1-0.1,0.2c0,0-0.1,0.1-0.1,0.1
		c0,0.1-0.1,0.1-0.1,0.2c0,0,0,0.1-0.1,0.1l-0.1,0.1v1.1l0.1-0.1l0.2-0.2c0,0,0.1-0.1,0.2-0.2c0-0.1,0-0.1,0.1-0.2
		c0.1-0.1,0.1-0.1,0.2-0.2l0.2-0.2c0,0,0.1,0,0.1-0.1c0,0,0,0,0.1,0c0.1,0,0.1,0,0.2,0.1c0,0.1,0,0.2,0,0.2V70c0,0.2,0,0.3,0,0.5
		c0,0,0,0,0,0.1v0.1c0,0,0,0,0,0c0,0.2-0.1,0.3-0.1,0.5c0,0.1,0,0.2,0,0.3l0,0.1c0,0.2-0.1,0.5-0.1,0.8c-0.1,0.2-0.1,0.5-0.2,0.7
		c0,0.1,0,0.2,0,0.2c0,0,0,0.1-0.1,0.1c-0.1,0.1-0.1,0.1-0.2,0.2c-0.1,0.1-0.1,0.2-0.2,0.3l0,0.1l-0.1,0.1c-0.2,0.2-0.3,0.3-0.4,0.5
		v1.1c0,0,0,0,0.1-0.1l0-0.1l0.2-0.2c0-0.1,0-0.1,0.1-0.2c0,0,0.1-0.1,0.1-0.1V75c0,0.1,0,0.2,0,0.2v0.1l-0.2,0.2c0,0.1,0,0.2,0,0.3
		c0,0.1,0,0.1-0.1,0.2c0,0.1,0,0.2-0.1,0.2v1.4c0.1-0.1,0.2-0.3,0.2-0.4V77h0.1c0.3-0.6,0.5-1.1,0.7-1.4c0.2-0.3,0.3-0.6,0.3-0.9
		c0-0.1,0-0.2,0-0.2c0-0.1,0-0.1,0.1-0.2l0.1-0.3c0-0.1,0.1-0.2,0.1-0.3c0-0.1,0.1-0.2,0.2-0.3l0.2-0.2c0-0.1,0-0.2,0.1-0.2
		c0.1,0,0.2-0.1,0.2-0.1l0.4-0.4l0-0.1l0.1-0.1c0,0,0,0,0,0c0-0.2,0.2-0.3,0.3-0.3c0.1-0.1,0.2-0.2,0.3-0.2c0,0,0.1-0.1,0.1-0.1v0
		c0,0-0.1,0-0.1,0c0,0,0,0.1-0.1,0.1l-0.2,0.1c0,0-0.1,0.1-0.1,0.1l-0.2,0.1c0,0-0.1,0.1-0.1,0.2c0,0-0.1,0-0.2,0.1c0,0,0,0-0.1,0
		h-0.1c0,0-0.1,0-0.2,0c0,0-0.1,0-0.1-0.1c0,0,0-0.1,0-0.1c0,0,0-0.1,0.1-0.1l0.2-0.1v-0.2c0,0,0,0,0.1-0.1c0.2-0.2,0.2-0.3,0.3-0.3
		l0-0.2l0.2,0c0-0.1,0.1-0.2,0.2-0.2C128.4,71,128.5,71,128.5,70.9L128.5,70.9C128.5,71,128.5,70.9,128.5,70.9L128.5,70.9z
		 M117.2,69.4l0.2-0.1c0-0.1,0-0.2,0.1-0.2c0-0.1,0.1-0.2,0.1-0.3c0,0,0-0.1,0-0.1c0,0,0,0-0.1,0l0,0l-0.2,0.1l-0.3,0.3l0,0.1v-1.4
		l0,0h0.1l0-0.1c0.1-0.1,0.3-0.2,0.4-0.2c0.2,0,0.3-0.1,0.5-0.1h0.2c0,0,0,0,0.1,0l0,0l0.3,0.1l0.1,0.2l0,0c0,0.1,0.1,0.2,0.1,0.2
		c0,0,0,0.1,0,0.1v0.1l0,0.1v0.2l-0.1,0.2l-0.1,0.2l0,0.2c0,0.1-0.1,0.1-0.2,0.2s-0.1,0.2-0.2,0.3l0,0.1c-0.1,0.2-0.3,0.3-0.5,0.5
		c-0.2,0.2-0.4,0.3-0.7,0.6l-0.1,0v-0.9l0,0L117.2,69.4L117.2,69.4z M125,69.4v1.1c0,0-0.1,0-0.2,0.1c-0.1,0-0.1,0.1-0.2,0.2
		l-0.2,0.1c0,0.1-0.1,0.2-0.1,0.2c-0.1,0-0.1,0.1-0.2,0.2l-0.1,0.1l-0.2,0.2c-0.1,0-0.1,0.1-0.2,0.2c-0.1,0-0.1,0.1-0.2,0.2
		c0,0,0,0.1-0.1,0.1c0,0-0.1,0.1-0.2,0.1c0,0-0.1,0-0.1,0.1c0,0-0.1,0.1-0.1,0.1l-0.2,0.1c-0.1,0-0.1,0-0.2,0.1c0,0-0.1,0.1-0.1,0.1
		c0,0-0.1,0-0.2,0c0,0-0.1,0.1-0.1,0.2c0,0-0.1,0.1-0.2,0.1c0,0-0.1,0-0.1,0s0,0-0.1,0l-0.1-0.1c0-0.1,0-0.2,0.1-0.3
		c0,0,0.1-0.1,0.2-0.1v-0.2c0.1-0.1,0.1-0.2,0.2-0.2c0.1-0.1,0.1-0.2,0.2-0.2l0.1-0.2l0.2,0c0-0.1,0.1-0.2,0.2-0.2
		c0.1,0,0.2-0.1,0.2-0.2c0,0,0.1-0.1,0.1-0.2c0,0,0.1-0.1,0.1-0.1c0.1-0.1,0.1-0.2,0.2-0.2c0,0,0.1-0.1,0.1-0.1c0,0,0.1,0,0.1-0.1
		c0,0,0.1-0.1,0.1-0.2l0.3-0.3c0.1-0.1,0.2-0.2,0.4-0.4c0,0,0.1,0,0.1,0c0,0,0-0.1,0-0.1L125,69.4L125,69.4z M125,74.5v1.1
		c0,0-0.1,0.1-0.1,0.1c0,0.1,0,0.2,0,0.2V76l-0.2,0.5c0,0,0,0,0,0v0c0,0.1,0,0.1,0,0.2c0,0,0,0.1,0,0.2V77c0.1,0,0.1-0.1,0.2-0.1
		c0,0,0-0.1,0.1-0.2c0.1-0.1,0.1-0.2,0.2-0.3c0,0,0-0.1,0-0.2v1.4l0,0c-0.1,0.2-0.2,0.3-0.4,0.5c0,0.1-0.1,0.2-0.2,0.2
		c-0.1,0-0.2,0-0.3,0c-0.2,0-0.4-0.2-0.4-0.4c0,0,0-0.1,0-0.2c0-0.1,0-0.2,0-0.2v-0.3c0-0.1,0-0.2,0-0.2c0-0.1,0-0.2,0.1-0.3
		l0.1-0.2v-0.1c0.2-0.5,0.3-0.9,0.5-1.3C124.5,75.1,124.7,74.8,125,74.5L125,74.5z M116.9,73.3L116.9,73.3L116.9,73.3h0.3h0.1
		c0.2,0,0.4-0.1,0.5-0.2c0.2-0.1,0.4-0.2,0.6-0.4l0.2-0.2l0.1-0.2c0.1,0,0.1-0.1,0.2-0.2c0,0,0.1-0.1,0.1-0.1l0.1,0l0.2-0.1
		c0,0,0.1-0.1,0.2-0.2c0.2-0.1,0.3-0.3,0.5-0.5c0.1,0,0.1,0,0.2,0c0,0,0-0.1,0-0.2v0c0.1-0.1,0.2-0.2,0.3-0.3c0-0.1,0.1-0.2,0.2-0.2
		l0-0.1c0,0,0,0,0.1-0.1c0,0,0-0.1,0-0.1c0,0,0-0.1,0-0.1c0,0-0.1,0-0.1,0h-0.1c0,0-0.1,0-0.1,0l-0.1,0.1c-0.1,0-0.2,0-0.2,0.1
		s-0.1,0.1-0.2,0.2c-0.1,0-0.2,0.1-0.2,0.1c-0.1,0-0.2,0.1-0.2,0.2l-0.1,0.2l-0.2,0.1c-0.1,0.1-0.2,0.2-0.3,0.3
		c-0.1,0.1-0.2,0.2-0.2,0.2l-0.1,0.1h-0.2l-0.3,0.2l-0.1,0c-0.1,0.1-0.2,0.1-0.3,0.2c-0.1,0-0.2,0-0.2,0c-0.1,0-0.3,0-0.4-0.1
		c0,0,0,0-0.1,0L116.9,73.3z M116.9,69.1l-0.2,0.2l-0.3,0.4c0,0.1-0.1,0.2-0.1,0.3c0,0,0,0,0,0c0,0,0,0,0,0s0,0,0,0c0,0,0,0,0.1,0
		h0.2c0,0,0,0,0,0c0,0,0,0,0-0.1l0.1-0.2l0.1-0.1v0.9h0l0,0.1l-0.3,0.2l-0.1,0.2l0,0c0,0,0,0,0,0.1c0,0.1,0,0.1,0,0.2
		c0,0.1,0,0.2,0.1,0.2l0.1,0.1l0,0.2c0.1,0.1,0.2,0.2,0.3,0.2v1.3h-0.2c-0.2,0-0.3,0-0.5-0.1c-0.1,0-0.2-0.1-0.3-0.2h-0.1l-0.2-0.2
		l-0.1-0.2l-0.1-0.1c-0.1,0-0.1-0.1-0.1-0.2c0-0.1-0.1-0.2-0.1-0.2L115,72l0-0.2l-0.2,0.2l-0.2,0.1l-0.2,0.1c-0.1,0-0.2,0.1-0.2,0.1
		c0,0-0.1,0.1-0.2,0.1l-0.1,0.1l-0.2,0.1c0,0-0.1,0.1-0.1,0.1c-0.1,0-0.2,0-0.3,0c0,0,0,0-0.1,0c0,0,0-0.1,0-0.2c0,0,0-0.1,0.1-0.2
		c0,0,0.1-0.1,0.2-0.1v-0.2c0.1,0,0.1-0.1,0.2-0.2c0-0.1,0.1-0.1,0.2-0.2l0.1-0.2l0.1,0c0-0.1,0.1-0.2,0.2-0.2
		c0.1,0,0.2-0.1,0.2-0.2l0-0.1l0.2-0.1l0.2-0.2c0,0,0,0,0-0.1c0,0,0-0.1,0-0.1v-0.1l0.1-0.2l0-0.1l0-0.1c0-0.2,0.1-0.3,0.1-0.5
		c0-0.1,0.1-0.2,0.2-0.3l0.1-0.1l0-0.1c0.1-0.2,0.3-0.4,0.4-0.6c0.2-0.3,0.5-0.5,0.8-0.8h0.1l0-0.1L116.9,69.1z"/>
	<path class="st1" d="M152.4,73.1v-0.9l0.1,0l0.6-0.6l0.2-0.3l0.1,0l0-0.2l0-0.1c0.1-0.2,0.2-0.4,0.2-0.6l0,0v-0.2
		c-0.1-0.2-0.2-0.3-0.3-0.4c-0.1-0.1-0.2-0.1-0.4-0.1h-0.1c0,0-0.1,0-0.1,0l-0.2,0l-0.1,0.2c0,0-0.1,0-0.1,0.1v-2.1h0.1
		c0.1,0,0.2,0,0.3,0c0.1,0,0.1,0.1,0.1,0.1c0,0-0.1,0.1-0.2,0.2c-0.1,0.1-0.2,0.3-0.3,0.4l0.3-0.2l0.2-0.1c0,0,0.1,0,0.1,0
		s0.1,0,0.1,0h0.1h0h0.2c0.4,0,0.7,0.2,0.9,0.5c0.2,0.2,0.3,0.6,0.3,0.9v0.1c0,0,0,0.1,0,0.1l-0.1,0.4l0,0.2l-0.1,0.3l-0.2,0.4
		l-0.1,0.2l-0.2,0.1l0,0.2c0,0.1-0.1,0.2-0.2,0.3c-0.2,0.2-0.4,0.4-0.6,0.6l-0.1,0.2l-0.2,0.1l-0.1,0l-0.2,0.2
		C152.5,73,152.5,73,152.4,73.1C152.4,73.1,152.4,73.1,152.4,73.1L152.4,73.1z M160,71.6c-0.1,0-0.2,0.1-0.2,0.2
		c-0.1,0.1-0.1,0.2-0.2,0.2s0,0-0.1,0c0,0,0,0-0.1,0h0c0,0,0,0-0.1,0.1l-0.1,0.1c-0.1,0.1-0.2,0.1-0.2,0.2c-0.1,0-0.1,0-0.2,0.1
		l-0.2,0.1l-0.1,0.1l-0.2,0.1c0,0-0.1,0-0.1,0h-0.2l0-0.1c0-0.1,0-0.2,0-0.2c0,0,0-0.1,0.1-0.1l0-0.2c0,0,0.1-0.1,0.2-0.1l0.3-0.3
		l0-0.2h0.1c0.1,0,0.1,0,0.2,0c0,0,0-0.1,0.1-0.1l0.1-0.2l0.3-0.1c0-0.1,0.1-0.2,0.2-0.2c0,0,0.1-0.1,0.2-0.2
		c0.1-0.1,0.2-0.2,0.3-0.2s0.2-0.1,0.2-0.1l0.1,0c0-0.1,0.1-0.1,0.1-0.2c0.1-0.1,0.2-0.2,0.2-0.2l0.3-0.2c0.1-0.1,0.1-0.2,0.2-0.2
		c0.1-0.1,0.2-0.2,0.2-0.3l0.2,0v-0.2l0.6-0.5l0.2-0.1c0,0,0.1,0,0.1-0.1s0.1,0,0.1-0.1l0.1-0.2l0.1,0c0-0.1,0.1-0.2,0.2-0.2
		c0.1,0,0.2-0.1,0.2-0.1l0.1,0l0.1-0.1c0.2-0.1,0.3-0.3,0.6-0.4c0.1,0,0.2-0.1,0.2-0.2l0.2-0.1c0.1,0,0.1,0,0.2,0s0.1,0,0.1,0
		c0,0,0.1,0,0.1,0c0,0,0.1,0,0.1,0h0.1c0,0,0.1,0,0.1,0c0.1,0,0.2,0,0.3,0.1c0.1,0.1,0.1,0.1,0.1,0.2l0,0v0l0,0c0,0,0,0,0,0
		s-0.1,0.2-0.2,0.3c-0.2,0.2-0.3,0.3-0.5,0.4l-0.1,0.1c0,0.1-0.2,0.2-0.3,0.4l-0.3,0.3l-0.2,0.1l-0.1,0.2l-0.2,0.1l-0.2,0.2
		l-0.2,0.1l0,0.1l-0.2,0.2l-0.2,0.2l-0.2,0.1c-0.1,0.1-0.2,0.2-0.3,0.3c-0.1,0.1-0.2,0.2-0.3,0.3l-0.3,0.3l-0.2,0.3
		c0,0,0,0.1-0.1,0.1c0,0-0.1,0.1-0.1,0.1l-0.1,0.3c0,0,0,0,0.1,0h0c0,0,0,0,0.1,0l0.2-0.1l0.2-0.1l0.1-0.1l0.2-0.2l0.1,0h0.2
		c0-0.1,0.1-0.2,0.2-0.2c0,0,0.1,0,0.1,0l0-0.2l0.2-0.1c0.1-0.1,0.2-0.2,0.3-0.3s0.3-0.2,0.4-0.3l0.3-0.3l0.3-0.3
		c0.1-0.1,0.2-0.2,0.3-0.2c0.2,0,0.3-0.1,0.4-0.1c0.1,0,0.2,0.1,0.2,0.2c0.1,0.1,0.1,0.2,0.1,0.3v0l-0.1,0.1l0,0.1l0,0.4l0,0.2
		l0.1,0.1v0.2c0,0.2,0.1,0.3,0.2,0.4s0.2,0.2,0.4,0.2c0.2,0,0.3-0.1,0.4-0.2c0.2-0.1,0.2-0.2,0.2-0.3s0.1,0,0.2-0.1s0.2-0.1,0.3-0.1
		l0.2-0.2c0.1,0,0.1,0,0.2,0c0,0,0.1-0.1,0.1-0.1l0.1-0.1h0.1c0,0,0.1,0,0.1,0c0,0,0,0.1,0,0.2v0c0,0,0,0.1,0,0.1c0,0,0,0.1-0.1,0.1
		c-0.1,0.1-0.1,0.2-0.2,0.3c-0.1,0.1-0.2,0.2-0.3,0.3l0,0.2l-0.2,0c0,0.1-0.1,0.2-0.2,0.2c-0.1,0.1-0.2,0.1-0.3,0.1
		c0,0.1-0.1,0.2-0.2,0.2c-0.1,0-0.2,0.1-0.2,0.1c-0.1,0.2-0.3,0.3-0.4,0.4c-0.2,0.1-0.3,0.1-0.5,0.1c-0.4,0-0.7-0.1-1-0.4
		c-0.3-0.3-0.4-0.6-0.4-1V71c0,0,0-0.1,0-0.2c0,0-0.1,0-0.1,0.1c0,0-0.1,0.1-0.2,0.1l-0.1,0.2l-0.3,0.2l-0.2,0.2l-0.1,0.1
		c0,0,0,0-0.1,0h-0.1c0,0,0,0-0.1,0v0c0,0.2-0.2,0.4-0.5,0.6c-0.3,0.3-0.7,0.5-1.1,0.7c-0.1,0.1-0.2,0.2-0.3,0.2
		c-0.1,0-0.2,0.1-0.3,0.1c-0.2,0-0.3-0.1-0.5-0.2c-0.2-0.1-0.2-0.3-0.2-0.4c0-0.1,0-0.2,0.1-0.3c0-0.2,0.1-0.3,0.2-0.4L160,71.6z
		 M149,70.9c0.1,0,0.2-0.1,0.2-0.1c0.1,0,0.1-0.1,0.2-0.1c0,0,0,0,0.1,0c0.1-0.1,0.2-0.2,0.3-0.2l0.1,0c0,0,0.1-0.1,0.2-0.1
		c0,0,0.1,0,0.1,0c0,0,0.1,0,0.1,0c0,0,0,0,0,0.1c0,0,0,0.1,0,0.1c0,0,0,0.1-0.1,0.1l0,0.1c-0.1,0.1-0.2,0.2-0.2,0.3
		c-0.1,0.1-0.2,0.2-0.3,0.3c0,0,0,0.1-0.1,0.2c0,0-0.1,0-0.2,0l-0.1,0.2l-0.3,0.3c0,0-0.1,0.1-0.1,0.1v-0.1c0.2-0.2,0.3-0.2,0.4-0.4
		l0-0.2l0.2-0.1l0.2-0.2l0.1-0.1l0,0.2c-0.1,0.3-0.2,0.5-0.2,0.8c0,0.1,0,0.1,0,0.2s0,0.1,0,0.1l0,0.1v0.1c0,0.3,0.1,0.6,0.3,0.8
		s0.5,0.3,0.8,0.3c0.1,0,0.2,0,0.2,0c0,0,0.1,0,0.1-0.1h0.1c0.1,0,0.1,0,0.2-0.1c0.1,0,0.2,0,0.3-0.1l0.1-0.2h0.1h0.3
		c0,0,0.1-0.1,0.1-0.1v-1l-0.2,0.1c-0.1,0-0.2,0.1-0.3,0.2c-0.1,0-0.2,0.1-0.3,0.2l-0.2,0c0,0-0.1,0-0.2,0c0,0-0.1-0.1-0.1-0.1v-0.1
		c0,0,0-0.1-0.1-0.2v-0.3l0.1-0.2v-0.2l0-0.2v-0.2l0.2-0.3c0,0,0-0.1,0-0.1c0,0,0-0.1,0-0.2s0,0,0,0h0.1l0.2,0
		c0.1,0,0.2-0.1,0.3-0.3c0.1-0.2,0.2-0.3,0.3-0.4v-2.1c-0.1,0-0.3,0-0.4,0.1c-0.2,0.2-0.4,0.3-0.6,0.5l0,0.1l-0.2,0.1
		c-0.1,0.1-0.2,0.2-0.3,0.3c-0.1,0.1-0.2,0.2-0.3,0.3l-0.3,0.4l-0.3,0.3l-0.4,0.4l0,0.1l-0.1,0l-0.1,0.2l-0.2,0.1c0,0,0,0.1-0.1,0.1
		C149,70.8,149,70.9,149,70.9L149,70.9z M148.7,64.5c0,0.2-0.1,0.3-0.1,0.5c0,0.2-0.1,0.4-0.2,0.6c0.1,0,0.1,0,0.2,0
		c0,0,0.1,0,0.1,0c0,0,0.1,0,0.1,0c0,0,0,0,0,0.1v0c0,0.2,0,0.3,0,0.5s0,0.2,0,0.3c0,0.1,0,0.2-0.1,0.3c-0.1,0.1-0.2,0.1-0.3,0.1
		c-0.2,0-0.3,0-0.4,0c0,0.2-0.1,0.2-0.1,0.3s-0.1,0.2-0.2,0.3c0,0,0,0,0,0.1c0,0,0,0,0,0.1c0,0,0,0.1-0.1,0.1l-0.1,0.1
		c-0.2,0.9-0.4,1.6-0.5,2.1c-0.1,0.5-0.2,1.1-0.3,1.4v0.1c0,0,0,0,0,0.1v0.1c0,0.2,0,0.3-0.1,0.5c0,0.1,0,0.3,0,0.4
		c0,0,0,0.1,0.1,0.1c0,0,0.1,0.1,0.1,0.1s0.1,0,0.2-0.1c0,0,0.1,0,0.1-0.1c0,0,0.1,0,0.1,0h0.1c0,0,0-0.1,0-0.1v-0.1l0,0
		c0.1-0.1,0.2-0.2,0.3-0.3l0.4-0.3c0,0,0-0.1,0-0.1c0,0,0.1-0.1,0.1-0.1c0.1-0.1,0.2-0.1,0.2-0.2c0.1-0.1,0.2-0.2,0.2-0.2l0,0
		l0.1-0.1c0,0,0,0,0.1,0v0c-0.1,0.1-0.1,0.1-0.2,0.2s-0.2,0.1-0.3,0.3s-0.4,0.4-0.6,0.7v0.2c-0.1,0-0.1,0.1-0.2,0.1c0,0,0,0.1,0,0.2
		s0,0.1,0,0.1c0,0,0.1,0.1,0.1,0.1c0.2-0.1,0.4-0.2,0.6-0.4c0.2-0.1,0.4-0.3,0.5-0.4v0.1c-0.1,0-0.1,0.1-0.2,0.2
		c0,0.1-0.1,0.1-0.2,0.2c0,0,0,0-0.1,0c0,0,0,0,0,0.1c-0.1,0.2-0.2,0.3-0.3,0.4c-0.1,0.1-0.2,0.2-0.3,0.2c-0.1,0-0.1,0-0.1,0
		c0,0,0,0.1-0.1,0.2c-0.1,0.2-0.3,0.3-0.5,0.5c-0.2,0.2-0.3,0.3-0.6,0.4h0c0,0-0.1,0.1-0.2,0.1c0,0-0.1,0-0.2,0s0,0-0.1,0h-0.1
		c0,0,0,0,0,0h0h0c0,0,0,0-0.1,0c0,0,0,0,0,0l-0.1-0.1c-0.2,0-0.3-0.1-0.4-0.2c-0.1-0.2-0.1-0.5-0.1-0.7c0,0,0-0.1,0-0.1v-0.2
		c0,0,0-0.1,0-0.2v-0.3c0-0.1,0-0.2,0-0.3c0-0.1,0-0.2,0.1-0.3l0-0.1c0,0,0,0,0,0c0,0,0-0.1,0-0.1v-0.1l0.2-0.8
		c0-0.2,0.1-0.4,0.2-0.6c0,0,0.1-0.1,0.2-0.2c0,0,0,0,0-0.1v0l-0.1-0.1l0.1-0.3l-0.1,0.2c0,0-0.1,0.1-0.2,0.2
		c-0.1,0.1-0.2,0.2-0.2,0.3c0,0-0.1,0.1-0.2,0.2c-0.1,0-0.2,0.1-0.2,0.2l-0.2,0.2c0,0.1,0,0.1-0.1,0.2c0,0-0.1,0-0.1,0s-0.1,0-0.2,0
		c0,0,0,0.1,0,0.2l0,0.1l-0.2,0.2c0,0-0.1,0.1-0.1,0.1c0,0,0,0.1-0.1,0.2l-0.1,0.1c-0.1,0.1-0.2,0.1-0.2,0.1c0,0-0.1,0.1-0.2,0.1
		c0,0-0.1,0-0.1,0.1c0,0-0.1,0-0.2,0.1c-0.1,0-0.2,0.1-0.2,0.1c0,0-0.1,0.1-0.1,0.1l-0.2,0.1c0,0-0.1,0-0.1,0h-0.1c0,0-0.1,0-0.2,0
		c0,0,0-0.1,0-0.1v0c0,0,0-0.1,0.1-0.1c0,0,0.1,0,0.1-0.1V72c0.1-0.1,0.2-0.1,0.2-0.2c0.1-0.1,0.1-0.1,0.2-0.2l0-0.1l0.3-0.2
		c0-0.1,0.1-0.1,0.2-0.2c0,0,0.1-0.1,0.2-0.2l0.1-0.2c0,0,0,0,0,0s0.1-0.1,0.2-0.2l0,0c0.1,0,0.1,0,0.2,0v-0.1l0.2-0.2
		c0.2-0.2,0.3-0.4,0.5-0.6c0.1-0.3,0.3-0.5,0.5-0.7l0.1-0.1c0.1,0,0.1,0,0.1,0c0,0,0,0,0-0.1v0l0,0c0.1-0.1,0.2-0.2,0.2-0.3
		c0.1-0.1,0.1-0.2,0.2-0.3l0,0c0.1,0,0.2-0.1,0.3-0.4c0.1-0.3,0.2-0.5,0.3-0.7c0,0,0.1-0.1,0.1-0.2c0-0.1,0.1-0.2,0.1-0.2l-0.2,0
		c-0.1,0-0.2,0-0.2,0.1c0,0-0.1,0-0.2,0c0,0-0.1,0-0.2,0c-0.1,0-0.1,0-0.2,0h0c0,0,0,0-0.1,0l0,0h-0.2h0h-0.7c0,0-0.1,0-0.1-0.1
		c0,0,0,0-0.1-0.1c0,0,0,0,0,0.1c0,0,0,0.1-0.1,0.1s0,0,0,0h0c0,0-0.1,0-0.2,0l-0.2-0.1c-0.1,0-0.1,0-0.2,0c0-0.1,0-0.1,0-0.2
		c0,0,0-0.1,0-0.3c0-0.1,0-0.3,0-0.4v-0.2h0.1l0,0c0,0,0,0,0.1,0c0.1,0,0.1,0,0.2,0c0.1,0,0.2,0,0.3,0h0.3c0.1,0,0.2,0,0.3,0
		c0.1,0,0.3,0,0.4,0c0.1,0,0.2,0,0.2,0c0,0,0.1,0,0.1,0c0.1,0,0.2,0,0.2,0l0,0c0,0,0,0,0.1,0l0,0c0,0,0,0,0.1,0h0.5
		c0.1,0,0.2,0,0.2,0l0.1,0.1c0.1,0,0.2,0,0.2,0c0.1,0,0.2,0,0.2-0.1c0.1-0.2,0.2-0.4,0.3-0.5c0-0.1,0.1-0.3,0.1-0.4
		c0-0.1,0.1-0.1,0.2-0.2c0,0,0.1-0.1,0.2-0.1v0c0-0.1,0-0.2,0.2-0.2c0.1-0.1,0.2-0.1,0.3-0.1c0,0,0.1,0,0.2,0c0,0,0.1,0.1,0.1,0.2
		c0,0,0,0.1,0,0.2C148.7,64.4,148.7,64.5,148.7,64.5L148.7,64.5z"/>
	<path class="st1" d="M175.3,70.9c0.1,0,0.1-0.1,0.2-0.1c0.1,0,0.1-0.1,0.2-0.1c0,0,0,0,0.1,0c0.1-0.1,0.2-0.2,0.3-0.2l0.1,0
		c0,0,0.1-0.1,0.2-0.1c0,0,0.1,0,0.2,0c0,0,0.1,0,0.1,0c0,0,0.1,0,0.1,0.1c0,0,0,0.1,0,0.1c0,0,0,0.1-0.1,0.1l0,0.1
		c-0.1,0.1-0.2,0.2-0.2,0.3c-0.1,0.1-0.2,0.2-0.3,0.3c0,0,0,0.1-0.1,0.2c0,0-0.1,0-0.2,0l-0.1,0.2l-0.3,0.3c0,0-0.1,0.1-0.1,0.1
		v-0.1l0.2-0.2l0.1-0.1l0-0.1l0.1-0.1l0.1,0l0.2-0.2l0.1-0.1h0.1c0,0,0.1,0,0.1-0.1c0,0,0.1,0,0.1,0c0,0,0.1,0,0.2,0.2
		c0,0,0.1,0.1,0.1,0.2l0.2,0.3l0.1,0.1v0.2l0.2,0.4l0.1,0l0,0.1v0.1l0.1,0.1l0.1,0.1c0.1,0.1,0.2,0.2,0.3,0.2c0.1,0,0.3,0.1,0.4,0.1
		h0.1c0,0,0.1,0,0.1,0h0.3l0.3-0.2l0.1-0.1c0.2-0.1,0.4-0.3,0.6-0.5c0.1-0.1,0.2-0.2,0.3-0.3l0.2-0.1l0.1-0.1l0.2-0.2l0.1-0.2l0,0
		c0,0,0.1-0.1,0.2-0.2c0.1-0.2,0.2-0.3,0.3-0.4l0.1-0.1c0-0.1,0-0.2,0.1-0.3c0,0,0,0,0,0c0,0,0-0.1,0-0.1c0,0-0.1,0-0.1,0
		c-0.2,0-0.3,0.2-0.5,0.3c-0.2,0.2-0.5,0.3-0.8,0.4l-0.1,0.2l-0.3,0.3l-0.1,0.1l-0.2,0c-0.1,0.1-0.2,0.1-0.2,0.2s-0.2,0-0.2,0
		c-0.2,0-0.3,0-0.4-0.2c-0.1-0.2-0.2-0.4-0.2-0.6l-0.1-0.1l-0.1-0.8V70c0-0.4-0.2-0.7-0.2-0.8l-0.3-0.2h-0.6l-0.2,0.1l-0.1,0.2
		l-0.2,0.1c-0.1,0.1-0.2,0.3-0.4,0.5c-0.2,0.2-0.2,0.3-0.3,0.3l0,0.1l-0.1,0l-0.2,0.2c-0.1,0.1-0.2,0.2-0.2,0.2
		C175.3,70.8,175.3,70.8,175.3,70.9L175.3,70.9z M177.4,66.5l-0.2,0.1c0,0-0.1,0-0.1,0c0,0-0.1-0.1-0.1-0.1l-0.1-0.1
		c0,0,0-0.1-0.1-0.2c0,0,0-0.1,0-0.1c0-0.2,0-0.4,0.2-0.5c0.2-0.2,0.3-0.4,0.5-0.6l0.1,0l0.2,0v-0.2l0.3-0.3l0.2,0
		c0,0,0.1-0.1,0.2-0.1c0,0,0.1,0,0.2,0c0.1,0,0.2,0,0.3,0.1c0.1,0,0.1,0.1,0.1,0.2v0l-0.1,0.5l-0.1,0.3l-0.1,0.1v0.2l-0.1,0.3
		c-0.1,0.1-0.1,0.2-0.2,0.2c-0.1,0.1-0.1,0.1-0.2,0.2l-0.1,0l0,0.1c-0.1,0.1-0.2,0.1-0.3,0.2c-0.1,0-0.1,0-0.2,0h-0.1L177.4,66.5
		L177.4,66.5z M186.6,72.1l0,0.1l-0.4,0.3c0,0,0,0,0,0c0,0,0,0-0.1,0c-0.1,0-0.1,0-0.1-0.1s0-0.1,0-0.1l0,0v0l0.2-0.7l0-0.5l0.1-0.5
		l0-0.4l0.1-0.4v-0.2l0.1-0.4V69l0.1-0.6l0.1-0.3l0-0.3l0.1-0.8l0-0.5c0,0,0,0,0-0.1v0c0,0,0-0.1,0-0.2c0,0-0.1,0-0.1,0
		c0,0-0.1,0-0.1-0.1c0,0,0-0.1,0-0.2c0,0,0-0.1,0-0.2c0-0.1,0.1-0.2,0.1-0.2l0.1-0.3l0.1-0.2l0.1-0.3v-0.3l0.1-0.2v-0.1
		c0-0.2,0-0.3,0.1-0.5c0.1-0.2,0.2-0.3,0.4-0.4l0.2,0l0.1-0.1h0.1c0,0,0,0,0,0l0,0l0,0c0,0,0,0,0,0l0-0.2c0.1-0.1,0.2-0.2,0.3-0.2
		c0.1,0,0.2-0.1,0.3-0.1l0.2,0h0c0,0,0.1,0.1,0.2,0.2c0,0,0,0,0,0.1l-0.1,0.4l-0.1,0.4l-0.1,0.6l-0.1,0.5l-0.2,0.5l-0.1,0.5V66
		l-0.2,0.3l-0.1,0.3l-0.1,0.5l-0.1,0.2v0.2l-0.1,0.4l-0.1,0.6l-0.2,0.7l-0.1,0.4l-0.1,0.2v0.2l-0.1,0.5l-0.1,0.5c0,0,0,0.1,0,0.1
		c0,0,0,0-0.1,0.1v0.1h0.1c0,0,0,0,0,0c0,0,0,0,0,0.1s0,0,0,0.1l-0.2,0.6l-0.1,0.3L186.6,72.1L186.6,72.1z M186,75l-0.2,0l-0.1,0
		c-0.1,0-0.2,0-0.2,0c0,0-0.1,0-0.1-0.1h0l-0.1-0.1l0-0.1l-0.1-0.1v-0.4c0.1-0.1,0.2-0.2,0.2-0.3c0-0.1,0.1-0.2,0.2-0.3l0.1,0
		l0.1-0.1l0-0.1h0.1l0-0.1c0,0,0,0,0.1,0c0.1,0,0.2,0,0.2-0.1c0.1,0,0.1,0,0.1,0c0,0,0,0,0.1,0.1l0.3,0.2v0.1l0.1,0l0,0.1l0,0.3
		l-0.1,0.1v0.1l0,0.1v0.2l-0.2,0.3c0,0.1-0.1,0.1-0.2,0.2c-0.1,0-0.2,0-0.2,0h-0.2L186,75z M175,64.5c0,0.2-0.1,0.3-0.1,0.5
		c-0.1,0.2-0.1,0.4-0.2,0.6c0,0,0.1,0,0.2,0c0,0,0.1,0,0.2,0c0,0,0.1,0,0.1,0c0,0,0,0,0,0.1v0c0,0.2,0,0.3,0,0.5c0,0.1,0,0.2,0,0.3
		c0,0.1,0,0.2-0.1,0.3c0,0.1-0.2,0.1-0.3,0.1s-0.3,0-0.4,0c0,0.1-0.1,0.2-0.1,0.3c0,0.1-0.1,0.2-0.1,0.3c0,0,0,0,0,0.1v0.1
		c0,0,0,0.1,0,0.1c0,0,0,0-0.1,0.1c-0.2,0.9-0.4,1.6-0.5,2.1c-0.2,0.5-0.2,1.1-0.3,1.4v0.1c0,0,0,0,0,0.1c0,0,0,0,0,0.1c0,0,0,0,0,0
		v0c0,0.2,0,0.3-0.1,0.5c0,0.1,0,0.3,0,0.4c0,0,0,0.1,0.1,0.1c0,0,0,0.1,0.1,0.1c0,0,0.1,0,0.2-0.1c0,0,0.1,0,0.1-0.1c0,0,0,0,0.1,0
		h0.1c0,0,0-0.1,0-0.1v0l0,0c0.1-0.1,0.2-0.2,0.3-0.3l0.4-0.3c0,0,0-0.1,0-0.1c0,0,0,0,0.1-0.1c0.1,0,0.2-0.1,0.2-0.2
		c0.1-0.1,0.2-0.2,0.2-0.2l0.1,0l0-0.1c0,0,0.1,0,0.1,0l0,0c-0.1,0-0.1,0.1-0.2,0.2c0,0-0.2,0.1-0.3,0.3c-0.2,0.2-0.4,0.4-0.6,0.7
		v0.2c0,0-0.1,0.1-0.2,0.1c0,0-0.1,0.1-0.1,0.2c0,0,0,0.1,0.1,0.2s0.1,0,0.1,0c0.3-0.2,0.6-0.3,0.9-0.6c0.1,0,0.2-0.1,0.3-0.2v0.1
		c-0.1,0-0.1,0.1-0.2,0.2c0,0.1-0.1,0.1-0.2,0.2c0,0,0,0-0.1,0c0,0,0,0,0,0.1c-0.1,0.2-0.2,0.3-0.3,0.4c-0.1,0.1-0.2,0.2-0.3,0.2
		c0,0-0.1,0-0.1,0c0,0,0,0.1,0,0.2c-0.1,0.2-0.3,0.3-0.5,0.5c-0.2,0.2-0.4,0.3-0.6,0.4h-0.1c0,0-0.1,0.1-0.1,0.1c0,0-0.1,0-0.2,0
		s0,0-0.1,0h0c0,0,0,0,0,0h0h0c0,0,0,0-0.1,0s0,0-0.1,0c0,0,0,0-0.1-0.1c-0.2,0-0.3-0.1-0.4-0.2c-0.1-0.2-0.1-0.5-0.1-0.7v-0.1
		c0,0,0-0.1,0-0.1V73c0,0,0-0.1,0-0.2v-0.3c0-0.1,0-0.2,0-0.3c0-0.1,0-0.2,0.1-0.3l0-0.1l0,0v-0.2c0.1-0.3,0.1-0.6,0.2-0.8
		c0.1-0.2,0.1-0.4,0.2-0.6c0.1,0,0.1-0.1,0.2-0.2c0,0,0,0,0-0.1c0,0,0,0,0,0c0,0,0,0,0-0.1l0.1-0.3l-0.1,0.2c0,0-0.1,0.1-0.1,0.2
		c-0.1,0.1-0.2,0.2-0.2,0.3c0,0-0.1,0.1-0.2,0.2c-0.1,0-0.2,0.1-0.2,0.2l-0.2,0.2c0,0.1-0.1,0.2-0.1,0.2c0,0-0.1,0-0.1,0
		c0,0-0.1,0-0.1,0c0,0,0,0.1,0,0.2l0,0.1l-0.2,0.2c0,0-0.1,0.1-0.1,0.1c0,0,0,0.1-0.1,0.2l-0.1,0.1c-0.1,0-0.2,0.1-0.3,0.1
		c0,0-0.1,0.1-0.2,0.1c0,0-0.1,0-0.2,0.1c0,0-0.1,0-0.1,0.1c-0.1,0-0.2,0.1-0.2,0.1c0,0-0.1,0.1-0.1,0.1l-0.2,0.1c0,0,0,0-0.1,0
		h-0.1c-0.1,0-0.1,0-0.2,0c0,0,0-0.1,0-0.1v0c0,0,0-0.1,0.1-0.1c0,0,0.1,0,0.1-0.1v-0.2c0.1-0.1,0.2-0.1,0.2-0.2
		c0-0.1,0.1-0.1,0.1-0.2v-0.1l0.3-0.2c0-0.1,0.1-0.1,0.1-0.2c0.1,0,0.2-0.1,0.2-0.2l0.1-0.2c0,0,0,0,0,0c0,0,0.1-0.1,0.2-0.2v0
		c0,0,0.1,0,0.2,0v-0.1l0.2-0.2c0.2-0.3,0.4-0.5,0.5-0.6c0.1-0.3,0.3-0.5,0.5-0.7l0.1-0.1c0,0,0.1,0,0.1,0c0,0,0,0,0-0.1
		c0,0,0,0,0,0c0,0,0,0,0,0c0.1-0.1,0.2-0.2,0.2-0.3c0.1-0.1,0.1-0.2,0.2-0.3h0c0,0,0.2-0.1,0.3-0.4c0.1-0.2,0.2-0.5,0.3-0.7
		c0,0,0.1-0.1,0.1-0.2c0-0.1,0.1-0.2,0.1-0.2l-0.2,0c-0.1,0-0.2,0-0.2,0.1c0,0-0.1,0-0.2,0c-0.1,0-0.1,0-0.2,0c-0.1,0-0.1,0-0.2,0h0
		c0,0,0,0-0.1,0c0,0,0,0,0,0h-0.1c0,0,0,0-0.1,0h-0.9c0,0-0.1,0-0.1-0.1l-0.1-0.1c0,0,0,0,0,0.1s-0.1,0.1-0.1,0.1l0,0h0
		c0,0-0.1,0-0.2,0c0,0-0.1-0.1-0.2-0.1c-0.1,0-0.1,0-0.2,0c0,0-0.1-0.1,0-0.2c0-0.1,0-0.2,0-0.3c0-0.1,0-0.3,0-0.4v-0.2h0
		c0,0,0,0,0,0c0,0,0,0,0.1,0c0.1,0,0.1,0,0.2,0c0.1,0,0.2,0,0.3,0h0.3c0.1,0,0.2,0,0.3,0c0.2,0,0.3,0,0.4,0c0.1,0,0.2,0,0.2,0
		c0,0,0.1,0,0.1,0c0.1,0,0.2,0,0.2,0h0c0,0,0,0,0,0c0,0,0,0,0,0c0,0,0.1,0,0.1,0h0.5c0.1,0,0.2,0,0.2,0l0.1,0.1c0.1,0,0.2,0,0.2,0
		l0.2-0.1c0.1-0.2,0.2-0.4,0.2-0.5c0-0.2,0.1-0.3,0.1-0.4s0.1-0.1,0.1-0.2c0,0,0.1-0.1,0.2-0.1v0c0-0.1,0-0.2,0.2-0.2
		c0.1-0.1,0.2-0.1,0.3-0.1c0,0,0.1,0,0.2,0c0,0,0.1,0.1,0.1,0.2c0,0,0,0.1,0.1,0.2C175,64.4,175,64.5,175,64.5L175,64.5z"/>
	<path class="st1" d="M80.4,72l0.6-0.2c0,0,0,0,0.2-0.1l0.4-0.2c0,0,0.3-0.1,0.2,0.1c-0.1,0.2-0.2,0.4-0.2,0.4s0.2,0.1-0.1,0.3
		c-0.2,0.2-0.3,0.3-0.5,0.4c-0.1,0.1-0.3,0.2-0.4,0.2c0,0-0.2-0.3-0.2-0.4C80.3,72.3,80.4,72.2,80.4,72z"/>
	<path class="st1" d="M84.9,71.9l0.6-0.2c0.1,0,0.3-0.1,0.4-0.2c0.2-0.1,0.5-0.3,0.5-0.3c0.1-0.2,0.3-0.3,0.4-0.4
		c0.2-0.1,0.2-0.2,0.4-0.3s0.3-0.2,0.5-0.3c0.1,0,0.2,0,0.3,0c0,0,0.1,0.3,0,0.5s-0.3,0.4-0.5,0.5c-0.2,0.2-0.4,0.3-0.6,0.5
		c-0.2,0.2-1.2,0.9-1.2,0.9l-0.5,0.2l-0.3-0.4L84.9,71.9z"/>
	<path class="st1" d="M89.4,72.2l0.6-0.3c0,0,0-0.1,0.2-0.2c0.3-0.1,0.2-0.1,0.4-0.3c0.2-0.2,0.2-0.3,0.4-0.4l0.5-0.4l0.5-0.3
		l0.3-0.2c0,0,0.2-0.3,0.3,0s0.2,0.2,0,0.4c-0.1,0.2-0.2,0.4-0.4,0.5c-0.2,0.1-0.6,0.6-0.6,0.6L91.2,72c-0.2,0.2-0.4,0.3-0.6,0.5
		c-0.2,0.1-0.7,0.4-0.7,0.4s-0.2-0.1-0.3-0.3C89.5,72.4,89.4,72.3,89.4,72.2z"/>
	<path class="st1" d="M101.3,71.4l0.5-0.1c0.2-0.1,0.3-0.2,0.3-0.3c0.1-0.1,0.2-0.3,0.3-0.4l0.7-0.5c0,0,0.5-0.3,0.5-0.2
		c0,0.2,0,0.4,0,0.6c-0.1,0.2-0.3,0.3-0.4,0.5c-0.2,0.1-0.3,0.2-0.4,0.3c-0.2,0.3-0.8,0.8-0.8,0.8s0,0.2-0.4,0.3
		c-0.4,0.1-0.6,0.2-0.8,0c-0.1-0.2-0.2-0.4-0.2-0.6L101.3,71.4z"/>
	<path class="st1" d="M107.5,71.4l0.2,0.1l0.2-0.1l0.3-0.2c0.1-0.1,0.2-0.2,0.3-0.3c0.2-0.1,0.3-0.2,0.5-0.3l0.4-0.2
		c0,0,0.3-0.2,0.3,0.1c-0.1,0.2,0,0.4,0,0.4l-0.3,0.3c-0.1,0.2-0.2,0.3-0.3,0.4c-0.2,0.2-0.3,0.3-0.4,0.5c-0.2,0.2-0.3,0.3-0.5,0.4
		l-0.5,0.1l-0.3-0.1c0,0-0.1,0-0.1-0.3c0-0.2,0.1-0.3,0.2-0.5L107.5,71.4z"/>
	<path class="st1" d="M126.9,72.2l0.4-0.2l0.2-0.2l0.5-0.4l0.4-0.3l0.4-0.4l0.4-0.4c0,0,0.1-0.3,0.4-0.3s0.7,0,0.7,0.2
		c0,0.2-0.1,0.4-0.2,0.5c-0.2,0.2-0.3,0.3-0.5,0.4l-0.3,0.3c-0.1,0.2-0.2,0.3-0.3,0.3c-0.3,0.2-0.5,0.3-0.7,0.5
		c-0.2,0.2-0.3,0.2-0.5,0.4c-0.2,0.2-0.4,0.3-0.7,0.4c-0.2,0-0.3-0.3-0.3-0.3L126.9,72.2z"/>
	<path class="st1" d="M134.6,71.4c0.2,0,0.3,0.1,0.4,0.1c0,0,0.1,0,0.2-0.1s0.2,0,0.3-0.2s0-0.2,0.3-0.3c0.2-0.1,0.4-0.2,0.5-0.4
		c0.2-0.1,0.5-0.3,0.5-0.3l0.4-0.3l0.2,0.2l-0.1,0.2l-0.3,0.6l-0.5,0.5l-0.6,0.6c-0.2,0.2-0.3,0.3-0.5,0.5s-0.4,0.2-0.6,0.2
		c-0.3,0-0.2,0.2-0.3-0.2c-0.1-0.2-0.1-0.5-0.1-0.7L134.6,71.4z"/>
	<path class="st1" d="M147.4,72.5l0.2-0.3c0.1-0.1,0.2-0.2,0.3-0.3c0.1-0.2,0.3-0.3,0.4-0.3c0.2-0.2,0.5-0.3,0.6-0.5
		c0.1-0.2,0.3-0.3,0.4-0.4c0.1-0.2,0.3-0.3,0.5-0.4c0.2-0.1,0.3-0.2,0.5-0.2c0.2,0,0.3-0.2,0.3,0.2c-0.1,0.5-0.3,0.8-0.8,1
		c-0.2,0.1-0.4,0.3-0.4,0.3l-0.3,0.4l-0.3,0.3c-0.1,0.1-0.2,0.2-0.4,0.3c-0.2,0.2-0.5,0.3-0.7,0.4l-0.2-0.1L147.4,72.5z"/>
	<path class="st1" d="M173.6,72.5c0.1-0.2,0.3-0.3,0.4-0.5c0.2-0.1,0.3-0.3,0.5-0.4c0.3-0.3,0.4-0.4,0.6-0.6
		c0.2-0.2,0.3-0.3,0.5-0.4c0.3-0.2,0.1-0.2,0.5-0.3c0.2-0.1,0.4-0.2,0.6-0.2c0,0,0.2-0.1,0.2,0s0.1,0.2-0.1,0.4s-0.1,0.2-0.3,0.4
		c-0.2,0.1-0.3,0.2-0.4,0.3c-0.2,0.3-0.5,0.5-0.8,0.7c-0.4,0.3-0.4,0.4-0.6,0.5c-0.2,0.2-0.4,0.4-0.6,0.5c-0.2,0-0.3,0-0.5,0
		L173.6,72.5z"/>
</g>
</svg>
