<?xml version="1.0" encoding="UTF-8"?>
<svg xmlns="http://www.w3.org/2000/svg" id="Icons" viewBox="0 0 60 60" width="512" height="512"><path d="M9,34.707V38.35a6.5,6.5,0,0,0,.907,3.32,11.976,11.976,0,0,1,12.19-.006A6.508,6.508,0,0,0,23,38.35V35.609A3.108,3.108,0,0,1,20.47,37H12.077A3.109,3.109,0,0,1,9.4,35.39Z"/><path d="M12.077,35H20.47a1.182,1.182,0,0,0,1.035-.782L22.473,32H9.739l1.386,2.384A1.135,1.135,0,0,0,12.077,35Z"/><rect x="9" y="28" width="14" height="2"/><path d="M6.5,37H7V34H6.5a1.5,1.5,0,0,0,0,3Z"/><path d="M27,35.5A1.5,1.5,0,0,0,25.5,34H25v3h.5A1.5,1.5,0,0,0,27,35.5Z"/><path d="M4.894,47.451A6.453,6.453,0,0,0,2,53v4a1,1,0,0,0,1,1H5.607a12.011,12.011,0,0,1-.713-10.549Z"/><path d="M24,18a2,2,0,0,0-2-2H19a2,2,0,0,0-2,2v.019A24.677,24.677,0,0,1,24,19.1Z"/><path d="M7.107,27.385A2,2,0,0,1,9,26H23a2,2,0,0,1,1.893,1.385A4.247,4.247,0,0,0,27,24.122C27,21.772,22.271,20,16,20S5,21.772,5,24.122A4.247,4.247,0,0,0,7.107,27.385Z"/><path d="M27.106,47.451A12.011,12.011,0,0,1,26.393,58H29a1,1,0,0,0,1-1V53A6.452,6.452,0,0,0,27.106,47.451Z"/><path d="M21.805,43.858A10,10,0,0,0,6,52a10.01,10.01,0,0,0,2.007,6h2.712c-.072-.063-.147-.119-.216-.185a1,1,0,0,1,.186-1.592l4.811-2.78a1.008,1.008,0,0,1,1,0l4.8,2.77a1,1,0,0,1,.2,1.582c-.074.072-.162.135-.24.2h2.735a10,10,0,0,0-.029-12.055A9.812,9.812,0,0,0,21.805,43.858ZM15,50.85a1,1,0,0,1-.5.866l-4.8,2.77a1,1,0,0,1-1.47-.623A7.709,7.709,0,0,1,8,52a8.046,8.046,0,0,1,5.715-7.668A1,1,0,0,1,15,45.29Zm8.77,3.013a1,1,0,0,1-1.47.623l-4.8-2.77a1,1,0,0,1-.5-.866V45.29a1,1,0,0,1,1.285-.958A8.046,8.046,0,0,1,24,52,7.709,7.709,0,0,1,23.77,53.863Z"/><path d="M57.413,24.587A1.983,1.983,0,0,0,56,24H51a1,1,0,0,1,0-2h3a2,2,0,0,0,0-4H48l-6-.01a1.99,1.99,0,0,1-1.68-3.07A19.44,19.44,0,0,0,43,3.888a2,2,0,0,0-3.24-1.453,1.982,1.982,0,0,0-.748,1.339,12.827,12.827,0,0,1-1.689,5,5.935,5.935,0,0,1-3.406,3.093,12.568,12.568,0,0,0-4.063,2.641c-.32.285-.63.571-.937.854a21.3,21.3,0,0,1-2.943,2.4c.005.08.024.156.024.238v1.949c1.919,1.047,3,2.47,3,4.173,0,2.186-1.556,4.283-4,5.5V32h.5a3.49,3.49,0,0,1,.362,6.963C27.773,40,29.274,40,35,40H52a2,2,0,0,0,0-4H49a1,1,0,0,1,0-2h5a2,2,0,0,0,0-4H51a1,1,0,0,1,0-2h5a2,2,0,0,0,1.413-3.413Z"/></svg>
