<?xml version="1.0" encoding="iso-8859-1"?>
<!-- Generator: Adobe Illustrator 21.0.0, SVG Export Plug-In . SVG Version: 6.00 Build 0)  -->
<svg xmlns="http://www.w3.org/2000/svg" xmlns:xlink="http://www.w3.org/1999/xlink" version="1.1" id="Capa_1" x="0px" y="0px" viewBox="0 0 512 512" style="enable-background:new 0 0 512 512;" xml:space="preserve" width="512" height="512">
<g>
	<path d="M184.549,120.708l19.469,14.11l-7.432,22.822c-3.461,10.627,0.288,22.189,9.328,28.771   c9.06,6.593,21.237,6.606,30.309,0.03l19.505-14.138l19.505,14.138c4.527,3.282,9.83,4.923,15.133,4.923   c5.319,0,10.639-1.651,15.175-4.953c9.041-6.581,12.79-18.143,9.329-28.771l-7.432-22.821l19.47-14.113   c9.062-6.569,12.83-18.132,9.379-28.771c-3.455-10.652-13.307-17.809-24.514-17.809h-24.101l-7.44-22.847   C276.769,40.645,266.921,33.5,255.728,33.5s-21.041,7.145-24.504,17.778l-7.44,22.848h-24.101c-11.208,0-21.06,7.157-24.515,17.81   C171.718,102.575,175.487,114.138,184.549,120.708z"/>
	<path d="M10.656,120.707l19.468,14.112l-7.432,22.821c-3.461,10.628,0.288,22.189,9.329,28.771   c4.537,3.303,9.855,4.954,15.175,4.953c5.302,0,10.605-1.641,15.133-4.922l19.505-14.139l19.506,14.139   c9.069,6.573,21.25,6.562,30.308-0.031c9.04-6.581,12.789-18.144,9.328-28.771l-7.432-22.821l19.469-14.112   c9.062-6.569,12.831-18.132,9.381-28.771c-3.455-10.652-13.307-17.81-24.515-17.81h-24.101l-7.44-22.848v0.001   C102.875,40.645,93.027,33.5,81.834,33.5S60.793,40.645,57.33,51.278l-7.44,22.848H25.789c-11.207,0-21.059,7.157-24.514,17.809   C-2.176,102.575,1.594,114.138,10.656,120.707z"/>
	<path d="M358.987,120.707l19.469,14.112l-7.432,22.821c-3.461,10.627,0.288,22.189,9.328,28.771   c9.06,6.593,21.237,6.606,30.309,0.03l19.505-14.138l19.505,14.138c4.527,3.282,9.83,4.923,15.133,4.923   c5.319,0,10.639-1.651,15.175-4.953c9.041-6.581,12.79-18.143,9.329-28.771l-7.432-22.821l19.468-14.112   c9.063-6.569,12.832-18.132,9.381-28.772c-3.455-10.652-13.307-17.809-24.514-17.809H462.11l-7.44-22.848v0.001   C451.207,40.645,441.359,33.5,430.166,33.5s-21.041,7.145-24.504,17.778l-7.44,22.848h-24.101c-11.208,0-21.06,7.157-24.515,17.81   C346.156,102.575,349.926,114.138,358.987,120.707z"/>
	<path d="M145.79,393.63c-38.52,0-69.87,31.34-69.87,69.87c0,5.15,0.56,10.17,1.62,15h136.51c1.06-4.83,1.62-9.85,1.62-15   C215.67,424.97,184.32,393.63,145.79,393.63z"/>
	<path d="M174.6,334.83c0-15.83-12.92-28.7-28.81-28.7c-15.88,0-28.8,12.87-28.8,28.7s12.92,28.7,28.8,28.7   C161.68,363.53,174.6,350.66,174.6,334.83z"/>
	<path d="M449.63,221.73H62.37C27.98,221.73,0,249.71,0,284.1v132.03c0,29.01,19.9,53.45,46.77,60.39   c-0.56-4.26-0.85-8.61-0.85-13.02c0-39.32,22.84-73.4,55.95-89.68c-9.26-10.37-14.88-24.03-14.88-38.99   c0-32.37,26.38-58.7,58.8-58.7c32.43,0,58.81,26.33,58.81,58.7c0,14.96-5.63,28.62-14.88,38.99   c33.11,16.28,55.95,50.36,55.95,89.68c0,5.1-0.38,10.11-1.12,15h205.08c34.39,0,62.37-27.98,62.37-62.37V284.1   C512,249.71,484.02,221.73,449.63,221.73z M367.866,355.983h-66.012c-8.284,0-15-6.716-15-15s6.716-15,15-15h66.012   c8.284,0,15,6.716,15,15S376.15,355.983,367.866,355.983z M440.279,306.128H301.452c-8.284,0-15-6.716-15-15s6.716-15,15-15   h138.827c8.284,0,15,6.716,15,15S448.563,306.128,440.279,306.128z"/>
</g>















</svg>
