<?xml version="1.0" encoding="utf-8"?>
<!-- Generator: Adobe Illustrator 25.0.0, SVG Export Plug-In . SVG Version: 6.00 Build 0)  -->
<svg version="1.1"
	 id="svg2" xmlns:cc="http://creativecommons.org/ns#" xmlns:dc="http://purl.org/dc/elements/1.1/" xmlns:inkscape="http://www.inkscape.org/namespaces/inkscape" xmlns:rdf="http://www.w3.org/1999/02/22-rdf-syntax-ns#" xmlns:sodipodi="http://sodipodi.sourceforge.net/DTD/sodipodi-0.dtd" xmlns:svg="http://www.w3.org/2000/svg"
	 xmlns="http://www.w3.org/2000/svg" xmlns:xlink="http://www.w3.org/1999/xlink" x="0px" y="0px" viewBox="0 0 240 80"
	 style="enable-background:new 0 0 240 80;" xml:space="preserve">
<style type="text/css">
	.st0{fill:#808080;}
	.st1{fill:#2CA02C;}
</style>
<sodipodi:namedview  bordercolor="#666666" borderopacity="1" gridtolerance="10" guidetolerance="10" id="namedview38" inkscape:current-layer="svg2" inkscape:cx="62.097918" inkscape:cy="60.755586" inkscape:pageopacity="0" inkscape:pageshadow="2" inkscape:showpageshadow="false" inkscape:window-height="844" inkscape:window-maximized="1" inkscape:window-width="1600" inkscape:window-x="-4" inkscape:window-y="-4" inkscape:zoom="1" objecttolerance="10" pagecolor="#ffffff" showgrid="false" showguides="true">
	<inkscape:grid  empspacing="5" enabled="true" id="grid3087" snapvisiblegridlinesonly="true" type="xygrid" visible="true">
		</inkscape:grid>
</sodipodi:namedview>
<g>
	<g id="g6" transform="matrix(0.01183002,0,0,-0.01198294,-1.2529667,98.679823)">
		<path id="path8" inkscape:connector-curvature="0" d="M15906.6,6973.5c-13.8-13.8-18.5-131.1-18.5-430.6
			c0-408.9-4.7-452.2-50.9-419.8c-10.9,7.7-57,27.8-103.5,43.2c-117.3,43.2-495.5,44.7-606.6,3.1
			c-106.4-38.5-151.3-63.2-228.4-126.6c-253.1-211.4-327.2-699.1-160.5-1065c75.6-169.8,239.3-297.8,439.9-348.8
			c122-30.9,467.7-24.7,574.2,9.3c271.6,89.5,419.8,251.5,487.7,532.4c18.5,81.7,24.7,250,29.4,929.1
			c4.7,577.2,1.5,839.6-10.9,861.2c-15.4,27.8-32.4,30.9-174.3,30.9C15980.6,6992,15918.9,6985.8,15906.6,6973.5z M15678.1,5967.2
			c160.5-94.1,209.9-228.4,209.9-572.6c0-213-4.7-248.4-37-341c-67.9-185.2-177.6-254.6-402.9-253.1
			c-180.5,1.5-290.2,50.9-353.4,160.5c-80.3,137.3-112.6,492.3-63.2,700.7c63.2,268.6,185.2,364.3,450.7,351.9
			C15585.5,6008.9,15622.6,5999.6,15678.1,5967.2z"/>
		<path id="path10" inkscape:connector-curvature="0" d="M19694.2,6978.2c-6.2-7.7-13.8-205.2-20-439.8c-4.7-234.6-13.8-426-20-426
			s-54.1,18.5-109.6,40.1c-81.7,34-131.1,41.6-284,47.8c-288.7,12.3-435.2-30.9-597.4-179c-200.6-183.6-285.6-558.7-199.2-885.9
			c77.2-293.3,240.8-449.1,538.7-512.4c285.5-60.1,637.4,9.3,808.8,160.5c128.2,112.6,200.6,277.8,226.9,524.8
			c21.6,205.2,23.2,1612.8,1.5,1654.6c-15.4,26.2-34,29.4-177.6,29.4C19774.4,6992,19698.9,6985.8,19694.2,6978.2z M19458.1,5968.8
			c38.5-23.2,85-60.1,101.9-83.3c18.5-24.7,37-49.4,44.7-58.7c40.1-49.4,69.5-225.3,71-416.7c1.5-456.9-106.6-606.5-441.4-608.1
			c-203.7-1.5-308.7,52.5-376.6,194.5c-83.3,177.4-86.4,586.5-4.7,784.1c74.1,179,185.2,242.3,409,234.6
			C19363.9,6010.4,19399.4,6002.7,19458.1,5968.8z"/>
		<path id="path12" inkscape:connector-curvature="0" d="M14014.3,6945.7c-60.3-38.5-117.3-134.2-117.3-192.9
			c1.5-131.1,114.2-245.3,240.8-242.3c134.3,1.5,228.4,97.2,230,234.6c0,92.6-32.4,151.3-112.6,203.7
			C14198,6987.4,14072.9,6985.8,14014.3,6945.7z"/>
		<path id="path14" inkscape:connector-curvature="0" d="M8587.5,6191c-409.1-61.7-663.7-364.2-663.7-788.6
			c0-321,149.7-552.5,447.6-691.5c137.3-63.2,200.6-78.8,362.8-91.1c155.8-9.3,322.5,12.3,455.4,61.7
			c163.6,60.1,399.8,242.3,381.3,293.3c-3.1,10.9-37,17-85,17c-57-1.5-91.1-12.3-129.6-41.6c-58.7-44.7-132.7-77.2-274.7-121.9
			c-134.3-41.7-402.8-34-510.9,13.8c-89.5,40.1-192.9,132.7-228.4,203.7c-38.5,77.2-67.9,209.9-57,256.2l9.3,38.5H8955
			c504.8,0,668.4,4.7,697.6,20c35.6,18.5,38.5,27.8,37,123.5c-3.1,200.6-85,368.8-253.1,524.8c-72.6,67.9-118.8,94.1-226.9,134.2
			c-122,44.7-155.9,49.4-336.5,54C8763.5,6200.3,8633.8,6197.2,8587.5,6191z M9079.8,5967.2c138.9-71,206.8-158.9,247-322.5
			c30.9-125,54.1-120.4-529.5-115.7l-510.9,4.7l4.7,69.4c6.2,100.3,29.4,160.5,94.1,243.9c58.7,72.6,154.3,134.2,251.6,158.9
			c27.8,6.2,120.4,10.9,206.8,7.7C8973.4,6008.9,9010.4,6001.1,9079.8,5967.2z"/>
		<path id="path16" inkscape:connector-curvature="0" d="M12219.3,6194.1c-154.3-6.2-159-6.2-168.3-43.2
			c-18.5-77.2,6.2-875.1,32.5-995.5c44.7-219.2,143.5-358.1,317.9-453.8c299.4-163.6,739.4-125,986.3,86.4
			c105,89.5,206.8,291.6,233.1,466.1c7.7,52.5,12.3,282.4,10.9,510.8l-4.7,416.7l-108,7.7c-58.7,4.7-138.9,4.7-177.6,0l-69.4-7.7
			l-9.3-517c-4.7-284-13.8-534-20-555.6c-47.9-157.4-137.3-259.3-257.8-293.3c-91.1-26.2-276.3-18.5-350.4,15.4
			c-98.8,44.7-138.9,97.2-179,231.5c-20,67.9-24.7,171.3-24.7,581.8c0,469.2-7.7,568-43.2,557.1
			C12381.3,6200.3,12305.8,6195.6,12219.3,6194.1z"/>
		<path id="path18" inkscape:connector-curvature="0" d="M13977.2,6186.3c-13.8-13.8-18.5-211.4-18.5-793.3
			c0-691.5,3.1-776.3,24.7-784.1c30.9-12.3,290.2-12.3,321,0c21.6,7.7,24.7,92.6,24.7,793.3s-3.1,785.5-24.7,793.3
			C14259.8,6212.6,13997.4,6206.5,13977.2,6186.3z"/>
		<path id="path20" inkscape:connector-curvature="0" d="M10648.1,6166.3c-233.1-44.7-350.4-101.9-486.2-237.7
			c-149.7-151.3-214.6-334.9-206.8-584.9c6.2-171.3,38.5-288.6,109.6-407.5c128.2-213,299.4-310.2,591.2-334.9
			c160.5-13.8,305.6-60.3,358.1-114.2c66.4-71,89.5-197.6,89.5-503.2c0-18.5,301-24.7,345.7-7.7c20,7.7,23.2,32.4,17,151.3
			c-12.3,243.9-18.5,263.9-89.5,339.6c-35.6,38.5-89.5,83.3-118.9,98.8c-72.6,38.5-74.1,86.4-1.5,92.6
			c118.9,12.3,330.3,168.2,412.2,305.6c55.6,94.1,92.6,217.6,105,345.7c38.5,412-200.6,747-600.5,841.1
			C11016.9,6186.3,10794.7,6192.5,10648.1,6166.3z M11063.2,5967.2c192.9-50.9,305.6-185.2,348.8-416.7
			c10.9-60.3,15.4-152.7,10.9-216.1c-23.2-316.3-162.1-487.7-433.8-535.5c-208.4-35.6-396.7,9.3-517.1,125
			c-120.4,115.7-155.8,219.2-155.8,458.3c0,87.9,9.3,196,21.6,242.3c43.2,163.6,163.6,288.6,325.7,338
			C10763.8,5991.9,10955.2,5994.9,11063.2,5967.2z"/>
		<path id="path22" inkscape:connector-curvature="0" d="M17059.6,6160.2c-254.6-64.8-427.5-243.9-490.8-503.2
			c-44.7-188.3-32.4-435.2,32.3-620.5c69.4-200.6,239.3-353.4,444.5-399.7c159-37,372-37,466.1-1.5
			c75.6,29.4,228.4,177.4,228.4,220.6c0,12.3,10.9,21.6,23.2,21.6c17,0,23.2-29.3,26.2-134.2l4.7-135.8l146.7-4.7
			c80.3-3.1,163.6,0,183.7,4.7l35.6,9.3l-7.7,481.6c-7.7,515.5-13.8,561.8-94.1,728.5c-81.7,165.1-262.4,293.3-480.1,339.6
			C17434.6,6195.6,17187.6,6194.1,17059.6,6160.2z M17572,5948.6c137.3-67.9,200.6-208.3,211.4-464.5
			c18.5-439.8-145.1-683.7-461.6-683.7c-214.6,0-341.2,98.8-393.6,307.1c-37,149.7-23.2,532.4,23.2,649.7
			c52.5,128,143.5,208.3,262.4,233C17312.7,6010.4,17491.7,5990.4,17572,5948.6z"/>
		<path id="path24" inkscape:connector-curvature="0" class="st0" d="M15525.4,4470c-12.3-27.8-44.7-72.6-74.1-97.3l-54.1-46.3
			l-182.1,7.7c-202.3,7.7-294.9-10.9-415.2-81.7c-71-40.1-208.4-183.6-208.4-216.1c0-10.9-10.9-27.8-23.2-38.5
			c-12.3-10.9-34-55.6-47.9-100.3c-41.7-128-20-191.4,92.6-282.4c37-29.4,30.9-64.8-12.3-64.8c-20,0-44.7-10.9-55.6-23.2
			c-10.9-12.3-27.8-23.2-38.5-23.2c-18.5,0-86.4-47.8-188.3-131.1c-72.6-58.7-71-125,3.1-176c43.2-29.3,85-40.1,205.2-49.4
			c197.6-17,284-37,402.8-94.1c176-86.4,228.4-214.5,182.1-438.3c-46.3-216.1-166.7-385.9-355-497
			c-169.8-101.9-429.1-129.6-642.1-67.9c-61.7,18.5-120.4,38.5-131.1,46.3c-142,103.3-179,137.3-179,157.4c0,12.3-10.9,37-23.2,52.5
			c-27.8,37-30.9,180.5-4.7,206.8c10.9,10.9,32.4,18.5,50.9,18.5c67.9,0,97.3,92.6,38.5,123.5c-40.1,21.6-148.2-20-203.7-78.7
			c-64.8-67.9-52.5-194.5,37-362.6c63.2-118.8,259.3-259.3,429.1-308.7c376.6-108,811.9,69.4,990.9,405.9
			c182.1,342.6,199,611.2,47.9,756.3c-61.7,58.7-197.6,128-250,128c-17,0-49.4,7.7-72.6,15.4c-23.2,9.3-103.5,20-176,21.6
			c-134.3,6.2-247,38.5-247,72.5c0,38.5,115.8,123.5,284,205.2c95.7,47.8,189.9,86.4,208.4,86.4s85,24.7,146.7,54
			c203.7,95.7,364.3,313.3,370.4,497c1.5,75.6,6.2,83.3,89.5,162c91.1,86.4,122,151.3,89.5,189.8
			C15579.3,4536.5,15548.5,4525.6,15525.4,4470z M15253.7,4220c77.2-64.8,66.4-155.8-35.6-307.1
			c-91.1-132.7-248.4-225.3-385.9-225.3c-103.5,0-129.6,17-171.4,109.5c-27.8,60.3-27.8,64.8,1.5,151.3
			c60.3,180.5,245.5,308.7,449.2,310.2C15192,4260.1,15213.6,4254,15253.7,4220z"/>
		<path id="path26" inkscape:connector-curvature="0" class="st0" d="M14090,4325c-196.1-26.2-344.2-106.4-500.1-274.7
			c-174.5-186.7-265.5-344.1-304.1-524.8c-21.6-109.5-10.9-183.6,38.5-246.9c55.6-71,92.6-87.9,208.4-94.1
			c132.7-7.7,254.6,26.2,416.7,120.4c122,69.4,259.3,169.8,248.4,180.5s-103.5-29.4-138.9-58.7c-17-13.8-54.1-35.6-81.7-46.3
			c-27.8-10.7-55.6-27.8-61.7-37c-6.2-10.9-64.8-35.4-132.7-54c-152.9-44.7-239.3-38.5-304.1,23.1c-41.7,40.1-44.7,50.9-44.7,162
			v118.8l74.1,26.2c40.1,13.8,85,32.4,98.8,40.1c15.4,7.7,35.6,13.8,44.7,13.8c46.3,0,311.8,151.3,430.7,246.9
			c202.3,162,260.9,236.1,243.9,319.4C14316.8,4287.9,14181,4337.3,14090,4325z M14196.4,4220c30.9-29.4,30.9-30.9-4.7-89.5
			c-74.1-117.3-441.4-361.2-608.1-402.8c-23.2-6.2-46.3-17-50.9-24.7c-4.6-7.7-18.5-13.8-30.9-13.8c-69.4,0,35.6,194.5,196.1,358.1
			c112.6,114.2,277.8,197.6,395.1,197.6C14145.5,4244.7,14181,4237,14196.4,4220z"/>
		<path id="path28" inkscape:connector-curvature="0" class="st0" d="M12615.9,4277.2c-220.8-72.5-339.6-177.4-339.6-296.3
			c0-78.8,138.9-202.1,345.7-305.6c202.3-103.3,247-149.7,236.2-245.3c-15.4-138.9-112.7-211.4-280.9-211.4
			c-162,1.5-271.6,40.1-359.6,128c-40.1,40.1-80.3,86.4-87.9,101.9c-15.4,27.8-18.5,26.2-43.2-12.3c-26.3-40.1-26.3-41.6,21.6-115.7
			c64.8-98.8,168.2-163.6,291.6-186.7c97.3-16.9,270.2-9.3,301,15.4c9.3,6.2,32.4,17,54.1,23.2c100.4,29.3,206.8,149.7,239.3,267
			c17,69.4,17,84.8-7.7,138.9c-35.6,78.7-112.6,134.2-336.5,246.9c-166.7,81.7-265.5,160.5-265.5,208.3
			c0,66.4,165.2,152.7,359.6,191.4c114.2,21.6,146.7,23.1,200.6,6.2c94.1-27.8,120.4-27.8,138.9,1.5c30.9,47.8-7.7,61.7-199,67.9
			C12736.3,4304.9,12685.4,4300.3,12615.9,4277.2z"/>
		<path id="path30" inkscape:connector-curvature="0" class="st0" d="M19530.6,4277.2c-225.3-72.5-362.8-203.7-333.4-317.9
			c12.3-50.9,98.8-146.6,155.8-172.9c24.7-10.9,77.2-38.5,115.8-61.7c120.4-69.4,146.7-81.7,162-81.7c9.3,0,52.5-30.9,95.7-69.4
			c72.6-63.2,80.3-75.6,78.8-132.7c-1.5-80.3-49.4-151.3-135.8-196c-171.4-89.5-523.3,23.1-585,186.7c-20,54.1-35.6,52.5-60.3-4.6
			c-20-43.2-18.5-50.9,30.9-112.6c71-91,100.3-112.6,205.2-152.7c118.8-44.7,288.7-47.8,409.1-6.2c122,43.2,237.7,160.5,260.8,268.6
			c9.3,43.2,12.3,100.3,7.7,126.6c-15.4,71-123.5,157.4-327.2,257.7c-245.5,121.9-296.3,160.5-296.3,225.3
			c0,71,43.2,106.4,194.5,154.3c171.4,55.6,305.6,67.9,382.8,35.6c67.9-29.4,117.3-20,117.3,20c0,43.2-60.3,60.1-231.5,60.1
			C19660.2,4304.9,19592.3,4297.2,19530.6,4277.2z"/>
		<path id="path32" inkscape:connector-curvature="0" class="st0" d="M16615.1,4271c-9.3-12.3-34-81.7-54.1-154.3
			c-58.7-214.5-148.2-345.7-382.8-558.7c-225.3-206.8-348.8-285.5-446-285.5c-86.4,0-95.7,15.4-75.7,125
			c23.2,117.3,52.5,208.3,108,330.3c27.8,60.1,58.7,132.7,69.4,163.6c10.9,30.9,49.4,106.4,83.3,168.2
			c35.6,60.3,63.2,123.5,63.2,138.9c0,46.3-58.7,54-101.9,13.8c-43.2-40.1-146.7-248.4-214.6-430.6c-13.8-38.5-32.4-83.3-40.1-100.3
			c-23.2-54-72.6-213-91.1-299.4c-38.5-168.2-18.5-202.1,120.4-202.1c165.2,0,364.3,121.9,598.9,367.3
			c112.6,117.3,157.4,132.7,138.9,50.9c-43.2-205.2-41.7-308.7,4.7-368.8l24.7-34l50.9,30.9c40.1,24.7,49.4,38.5,40.1,58.7
			c-21.6,43.2-12.3,234.6,15.4,350.3c30.9,131.1,41.7,163.6,128.2,405.9c37,103.3,66.4,200.6,63.2,216.1
			C16712.2,4291,16639.8,4300.3,16615.1,4271z"/>
		<path id="path34" inkscape:connector-curvature="0" class="st0" d="M18522.8,4260.1c-146.7-18.5-277.8-94.1-436.9-253.1
			c-114.2-114.2-152.9-165.1-205.2-271.6c-159-325.6-100.4-540.2,149.7-540.2c122,0,186.7,21.6,331.9,108
			c109.6,64.8,253.1,196,372,339.6c105,125,188.3,305.6,203.7,435.2c7.7,67.9,4.7,87.9-20,118.8
			C18862.3,4266.3,18731.1,4286.4,18522.8,4260.1z M18741.9,4167.5c69.4-35.6,87.9-94.1,64.8-203.7
			c-40.1-172.9-299.4-507.7-463-595.8c-189.9-100.3-279.3-108-356.6-30.9c-86.4,86.4-81.7,229.9,15.4,422.9
			c105,208.3,268.6,356.5,452.2,408.9C18581.4,4204.6,18669.3,4204.6,18741.9,4167.5z"/>
		<path id="path36" inkscape:connector-curvature="0" class="st0" d="M17624.5,4229.3c-15.4-17-40.1-30.9-54.1-30.9
			c-47.9,0-206.8-118.8-328.7-245.3c-66.4-69.4-126.6-125-134.3-125c-18.5,0-20,87.9-3.1,98.8c13.8,9.3,88,196,101.9,259.3
			c12.3,54.1-3.1,61.7-77.2,35.6c-55.6-18.5-61.7-26.2-85-109.5c-13.8-50.9-57-174.3-95.7-276.2c-38.6-101.9-81.7-216.1-95.7-254.6
			c-75.6-216.1-98.8-293.3-103.5-333.4c-4.7-38.5,1.5-44.7,37-49.4c49.4-6.2,57,6.2,114.2,176c64.8,192.9,100.3,250,262.4,415.1
			c211.4,214.5,268.6,262.4,375.1,316.3c154.3,77.2,222.3,57,163.6-46.3c-46.3-81.7-9.3-126.6,49.4-61.7
			c41.7,43.2,86.4,179,75.6,223.7c-9.3,35.4-17,38.5-92.6,38.5C17672.3,4260.1,17646.1,4252.5,17624.5,4229.3z"/>
	</g>
	<path id="path26-1" inkscape:connector-curvature="0" class="st1" d="M42.6,13.1c0-3.8,0.2-6.9,0.5-9.3c-0.7,0-1.6-0.1-2.5-0.1
		c-0.9,0-1.6,0-2.5,0.1c0.2,2.3,0.5,5.4,0.5,9.3c0.1,36.2-16.8,46.2-27,49c6.8,8.5,17.3,14.1,29.1,14.1s22.5-5.6,29.1-14.1
		C59.6,59.3,42.6,49.3,42.6,13.1 M36.1,12.5c0-3.5-0.1-6.3-0.4-8.4C17.8,6.6,4,21.7,4,39.9c0,2.5,0.2,4.8,0.7,7.2
		C15.7,44.5,36.1,36.4,36.1,12.5 M45.9,4.1c17.9,2.5,31.7,17.5,31.7,35.8c0,2.5-0.2,4.8-0.7,7.2c-11.1-2.6-31.5-10.7-31.5-34.6
		C45.5,9.1,45.6,6.4,45.9,4.1"/>
</g>
</svg>
