<?xml version="1.0" encoding="utf-8"?>
<!-- Generator: Adobe Illustrator 25.0.0, SVG Export Plug-In . SVG Version: 6.00 Build 0)  -->
<svg version="1.1" id="Layer_1" xmlns="http://www.w3.org/2000/svg" xmlns:xlink="http://www.w3.org/1999/xlink" x="0px" y="0px"
	 viewBox="0 0 240 80" style="enable-background:new 0 0 240 80;" xml:space="preserve">
<style type="text/css">
	.st0{fill-rule:evenodd;clip-rule:evenodd;fill:#211645;}
	.st1{fill-rule:evenodd;clip-rule:evenodd;fill:#FFFFFF;}
</style>
<desc>Created with Sketch.</desc>
<g id="Symbols">
	<g id="Elements-_x2F_-Logo-_x2F_-Default" transform="translate(-1.000000, -1.000000)">
		<g id="logo" transform="translate(1.000000, 1.000000)">
			<g id="Seguros" transform="translate(75.000000, 66.000000)">
				<path id="Fill-26" class="st0" d="M109.9-3c0.2,2.6,2.5,2.8,4.7,3.7c2.7,1.1,2.4,2.7,1,3.5c-1.1,0.6-3,0.6-4.2-1
					c-0.6-0.8-0.9-1.7-1.2-2.1C110.2,1,109.7,1,109.6,1c0,0,0,4.2,0,4.4c-0.1,0.4,1-0.8,1.2-0.8c1.4,0,2.9,0.9,4.3,0.6
					c2.7-0.6,3.5-2,3.6-4c0-1.5-1.1-2.9-2.9-3.6c-1-0.4-2.4-0.8-3.1-1.4c-1.6-1.3,0.5-2.5,2.5-1.9c2.4,0.8,2.2,2.3,2.3,2.3
					c0.1,0,0.4,0,0.5,0c0.1,0.1,0.1-2,0.1-3.4c0-0.2-0.2-0.2-0.4-0.1c-0.1,0-0.2,0.1-0.2,0.2c-0.4,0.2-1.2,0.2-1.6,0
					c-1-0.4-2.6-0.3-3.8,0.1C110.7-6,109.8-4.7,109.9-3"/>
				<path id="Fill-20" class="st0" d="M102-6.8c-0.8,0-1.5,0.1-2.2,0.3c-0.7,0.2-1.2,0.4-1.7,0.6c-0.5,0.3-0.9,0.5-1.2,0.8
					C96.4-4.8,96-4.4,95.7-4c-0.3,0.4-0.6,1-0.8,1.5c-0.2,0.6-0.3,1.2-0.3,1.9c0,0.6,0.1,1.1,0.3,1.7c0.2,0.6,0.5,1.1,0.9,1.6
					C96.1,3.2,96.5,3.6,97,4c0.4,0.3,0.9,0.6,1.4,0.8c0.5,0.2,1,0.4,1.6,0.5c0.5,0.1,1,0.2,1.5,0.2c0.5,0,1,0,1.5-0.1
					c0.5-0.1,1-0.2,1.5-0.4c0.5-0.2,1-0.4,1.4-0.7c0.3-0.2,0.6-0.4,0.9-0.7c0.3-0.3,0.6-0.7,0.9-1.1c0.3-0.4,0.5-0.9,0.7-1.4
					c0.2-0.5,0.3-1.1,0.3-1.7c0-0.8-0.1-1.5-0.4-2.1c-0.3-0.6-0.6-1.2-1.1-1.7c-0.5-0.5-1-0.9-1.5-1.3c-0.6-0.3-1.2-0.6-1.8-0.8
					C103.3-6.7,102.6-6.8,102-6.8 M102.5-5.8c1,0.2,1.7,0.8,2.2,1.6c0.5,0.8,0.5,2.2,0.5,3.1c0,1.2-0.1,3.1-0.9,4.2
					c-0.4,0.5-0.8,1.3-1.9,1.4c-2.9,0.3-3.7-1.8-4-3.7c-0.2-1.1-0.1-3,0.2-4C99.2-4.9,100.6-6.2,102.5-5.8"/>
				<path id="Fill-25" class="st0" d="M82.9-5.8C83-5.3,85-6.6,85-3.3v5.9c0,2.1-2,1.7-2,2c0,0.2,0,0.5,0.1,0.5l7.3,0
					c0.1,0,0.1-0.6,0-0.6c-1.5-0.1-2-1.2-2-2.3v-4.1c0-0.3,0.6-1.4,1.7-1.7c2.7-0.8,2.9,1.1,3.5,1.1c0.3-1.3,0.8-2.8,0.8-3.1
					c-0.1-0.8-0.8-1.1-1.4-1.2c-2.3-0.1-3.5,1.9-4.6,3.6c0,0,0.2-3.7,0.1-3.7l-5.7,0.6L82.9-5.8z"/>
				<path id="Fill-24" class="st0" d="M82.2,5c-2,0.2-3.8,0.3-5.2,0.2l0-2.3c0-0.1,0-0.2,0-0.3c-1.9,2.3-4.9,3.2-6.8,2.2
					c-0.8-0.4-1.8-1.4-1.8-2.4l0-6.1c0-0.9,0-1.4-0.2-1.6c-0.2-0.2-0.3-0.3-1.4-0.4l0-0.7c1.4-0.1,4.2-0.5,5-0.5l0,6.1
					c0,2,0.1,3.5,0.9,4.1c1.3,1,4.1-0.6,4.3-2.1c0.1-0.4,0.2-2,0.2-4.4c0-1.4-0.2-2.2-0.4-2.4c-0.2-0.2-0.5-0.2-1.7-0.3l0.1-0.7
					c1.7-0.2,3.5-0.1,5.1-0.4l0,7.9c0,1.1-0.1,2.2,0.5,2.8c0.3,0.3,0.7,0.5,1.2,0.6C82.3,4.5,82.2,4.6,82.2,5"/>
				<path id="Fill-21" class="st0" d="M52.6-3.8c-0.6,1.6-0.5,2.6,0.2,3.9c0.5,0.9,1.9,1.3,2.4,1.5c0.2,0.1,0.5,0.2,0.2,0.4
					c-0.3,0.2-1.4,0.5-2.3,0.9c-1,0.5-1.6,2.6,0.2,3.5c0.9,0.5,2.1,0.4,1.8,0.8c-0.1,0.1-0.7,0.1-1.4,0.4c-1.9,0.7-2.3,1.8-2.3,2.7
					c0,1.5,1.8,2.8,4.1,3.4c1.1,0.3,2.4,0.4,3.4,0.4c0.7,0,1.9-0.2,2.8-0.5c1.4-0.5,2.5-1.3,3.3-2.4c0.9-1.2,1.2-3-0.4-4.5
					c-1.9-1.9-5.9-1.8-8.3-2.3C54.1,3.9,55.2,2,57,2.2c0.8,0.1,2.3,0.1,3.3-0.1c3.2-0.8,5.7-3.4,2.7-6.6c0,0,0-0.1,0-0.1
					c0-0.1,0.1-0.1,0.2-0.1h2.5l0.1-1.7l-0.2-0.3l-7.9,0c-0.6,0-1.3,0.1-1.8,0.3C54.5-6.1,53.2-5.1,52.6-3.8 M54.1,9
					c-0.4-2.2,9.8-2.5,9.5,1.3c-0.1,1.3-2.9,1.8-4.7,1.6C56.9,11.6,54.5,11,54.1,9 M56.4-5.1c1.2-1.1,3.2-1.1,4.2,0.7
					c0.9,1.6,0.9,4.1-0.9,5.3c-1.1,0.8-2.7,0.3-3.4-0.6c-0.4-0.5-0.6-1.1-0.7-1.7C55.3-2.6,55.4-4.3,56.4-5.1"/>
				<path id="Fill-23" class="st0" d="M50.4-1.7c0.4,0,0.3-0.3,0.2-0.5c-1.1-4.4-5.3-5.6-8.4-4.2c-2.3,1-3.8,3.2-3.8,6
					c0,0.9,0.3,1.9,0.6,2.6c0.3,0.7,0.7,1.3,1.3,1.8c0.6,0.5,1.2,0.9,2,1.2c3.3,1.2,6.8-0.2,8.3-3.3c0.2-0.4,0.1-0.5-0.1-0.4
					c-4.3,4.6-7.3,2-8.1-0.5C41.9-0.4,42-1.7,42-1.7H50.4z M42-2.4c-0.1,0,0.2-3.4,2.5-3.6c1.9-0.2,3.3,3.6,2.4,3.6L42-2.4z"/>
				<path id="Fill-22" class="st0" d="M26.2-7.5c0.3,2.6,1.8,3.8,3.3,4.8c0.9,0.5,1.9,1.2,2.8,1.6c2.1,1,3.7,3.1,1.4,4.8
					c-0.8,0.6-2,0.8-3.1,0.6C30,4.2,29.5,3.8,29,3.7c-2.2-0.8-2.1-3.6-2.4-3.9c-0.1-0.1-0.7-0.1-0.8-0.1c-0.1,0,0,5.4,0,5.7
					c0,0.1,0.5,0.1,0.6,0c0.4-0.1,0.3-1,0.5-1c1.7,0.2,2.6,1.2,5.3,1c0.5,0,1.1-0.2,1.6-0.3c0.9-0.3,2.1-1,2.6-1.7
					c1.3-1.8,1.3-4.1,0.3-5.9c-0.3-0.5-0.7-0.8-1.3-1.3c-1.7-1.5-5.6-2.5-6.6-4.4c-2.2-4.3,5.9-5.1,7-0.5c0,0,0,0.4,0,0.4
					c0.2,0,0.5,0,0.6,0c0.2,0.1,0.1-0.4,0.1-0.6l0-4c0-0.5-0.5-0.4-0.7-0.1c-0.2,0.2-0.6,0.4-0.8,0.4c-0.4,0.1-1,0-1.3-0.1
					c-1.3-0.6-3.3-0.4-4.8,0.2C27.3-11.7,25.9-10,26.2-7.5"/>
			</g>
			<polygon id="Fill-2" class="st0" points="183.6,48.5 198.6,48.5 198.6,47.4 183.6,47.4 			"/>
			<polygon id="Fill-1" class="st0" points="100.8,48.5 173.1,48.5 173.1,47.4 100.8,47.4 			"/>
			<g id="Liberty" transform="translate(75.000000, 27.000000)">
				<path id="Fill-1_1_" class="st0" d="M106.5,3.4c-0.1-0.4,1.1-0.6,1.1-0.7c0-0.4,0.1-0.3-0.2-0.4l-6.8,0c-0.2,0,0,1,0.1,1
					c0.6,0,1.4,0,1.6,0.5l2.8,5.4c1.3,2.5,2.5,4.9,2.3,5.5c-0.2,0.9-1.8,4.9-3.9,5.4c-0.8,0.2-2.7-0.5-2.6-0.1c0.1,0.4,0,2-0.7,3.5
					c0,0.1,2.1,0.5,3.8-0.6c0.8-0.5,1.4-1.5,1.9-2.6l6.7-14.8c0.2-0.5,0.5-1.4,1.1-1.9c0.6-0.6,1.5-0.8,1.5-0.8l0.2-0.6l-5,0
					c-0.2,0,0,0.6,0,0.6c0.2,0,0.7,0.1,1,0.2c0.7,0.8,0.8,0.9,0.3,2.3l-2.1,4.9C109,9.3,106.9,5.2,106.5,3.4"/>
				<path id="Fill-3" class="st0" d="M97.4,4.1l3.3,0c0.2,0,0.3,0,0.4-0.1c0.1-0.1,0.1-0.6,0-0.7c0-0.1-0.1-0.2-0.2-0.2l-1.1,0h-2
					c-0.7,0-0.5-0.3-0.5-1.3l0-3.1c0-0.5-0.3-0.6-0.7-0.1l-4.9,4.9c-0.3,0.3-0.2,0.6,0.1,0.6l1.8,0c0.1,0,0.1,0.3,0.1,0.5v7.4
					c0,4.2,5.5,4.8,7.6,2.1c0.3-0.4,0.8-1.3,0.1-0.8c-2.3,1.6-4.2,0.8-4.2-2L97.4,4.1z"/>
				<path id="Fill-5" class="st0" d="M78.9,3.5c0,0.5,2.2-0.6,2.2,2.7v6.2c0,2.2-2.1,1.8-2.1,2.1c0,0.2,0,0.5,0.1,0.5l7.6,0
					c0.1,0,0.1-0.6,0-0.6c-1.9-0.2-1.9-1.2-1.9-2.4V7.3c0-0.3,0.5-1,1.6-1.3c2.8-0.9,3,1,3.5,1c0.5,0,0.8-2.5,0.8-2.9
					c-0.2-1.7-2-2.1-3.2-1.5c-1.5,0.8-2.4,2.8-2.8,3.5c0,0,0.2-3.8,0.1-3.7l-6,0.3L78.9,3.5z"/>
				<path id="Fill-7" class="st0" d="M78.6,8c0.4,0,0.3-0.3,0.2-0.5c-1.2-4.8-5.4-6-8.6-4.6c-2.3,1.1-3.9,3.4-4,6.4
					c0,1,0.3,2,0.6,2.8c0.3,0.8,0.8,1.4,1.4,2c0.6,0.5,1.3,1,2,1.3c3.4,1.3,7-0.2,8.6-3.5c0.2-0.4,0.1-0.5-0.1-0.4
					c-4.5,4.9-7.5,2.1-8.4-0.5C69.8,9.4,69.9,8,69.9,8H78.6z M69.9,7.2c-0.1,0,0.2-3.6,2.6-3.9c2-0.2,3.4,3.9,2.5,3.9L69.9,7.2z"/>
				<path id="Fill-9" class="st0" d="M50.7,14c0,0.2-0.1,0.5,0.2,0.5c2.8,0,3.3,0.4,3.6,0.4c2.4,0.2,4.9-0.2,6.2-0.7
					c1.8-0.8,3-2,3.6-3.8c1.1-3.2-0.4-7.5-4-8.4c-4.2-1-6.2,3.1-6.2,1.3l0.1-8.9l-5.4,0.4l0,0.5c0,0.1,1.9,0.7,1.9,1L50.7,14z
					 M54.2,5.8c0-0.2,0-0.4,0-0.6c0.1-0.7,2-1.4,2.6-1.5C62.4,3.1,62.2,14,56.5,14c-1.9,0-2.3-0.9-2.3-2.6V5.8z"/>
				<path id="Fill-11" class="st0" d="M46.4-3.6c0-0.4-0.1-0.7-0.3-1c-0.2-0.3-0.4-0.5-0.7-0.7c-0.3-0.2-0.6-0.3-1-0.3
					c-0.4,0-0.7,0.1-1,0.3c-0.3,0.2-0.5,0.4-0.7,0.7c-0.2,0.3-0.3,0.6-0.3,1c0,0.4,0.1,0.7,0.3,1c0.2,0.3,0.4,0.5,0.7,0.7
					c0.3,0.2,0.6,0.3,1,0.3c0.4,0,0.7-0.1,1-0.3c0.3-0.2,0.5-0.4,0.7-0.7C46.3-2.9,46.4-3.2,46.4-3.6"/>
				<path id="Fill-13" class="st0" d="M43,11.8c0,0.4,0,1.7-0.4,2c-0.4,0.3-1.5,0.7-1.5,0.8c0,0.3,0.2,0.4,0.5,0.4l5.3,0
					c0.3,0,0.7,0.1,1,0c0.3-0.1,0.2-0.6-0.2-0.6c-1.5,0-1.1-1.5-1.2-2.4c-0.2-6.1-0.1-8.5-0.1-9.5c0-0.2-3.8,0.2-5.4,0.4
					c-0.2,0-0.1,0.7,0,0.7c1.5-0.1,2.2,1.1,2.2,2.5L43,11.8z"/>
				<path id="Fill-15" class="st0" d="M28.4,11.1c0,0.3,0,0.6,0,0.8c-0.1,1.6-2.4,1.5-2.4,1.6l0.2,0.6l13.2,0c0.7,0,0.8,0,1-0.1
					c0.1-0.1,0.2-0.3,0.2-0.6c0.1-1.3,0.3-2.7,0.4-4c0-0.1-0.1-0.1-0.2-0.1c-0.3,0-0.5,0.5-0.6,0.7c-0.7,1.3-1.2,2.2-2.6,2.8
					c-0.9,0.4-3.1,0.6-4.1,0c-0.4-0.2-0.6-0.5-0.8-1c-0.1-0.4-0.2-1-0.2-1.6V-1.1c0-0.3,0-0.5,0.1-0.7c0-0.2,0.1-0.4,0.2-0.6
					c0.1-0.2,0.3-0.4,0.5-0.5c0.1-0.1,1.4-0.6,1.9-0.9C35.3-3.9,35.3-4,35.1-4l-8.8,0c-0.1,0-0.4,0-0.5,0c-0.1,0,0,0.3,0.1,0.4
					c1,0.3,2.3,0.6,2.4,1.8c0,0.2,0,0.5,0,0.8L28.4,11.1z"/>
			</g>
			<g id="Isotipo">
				<path id="Fill-27" class="st0" d="M97.9,31.8c-0.2-0.2-0.6,0-0.6,0L90,34.5c-0.6-1.4-1.2-2.7-2-3.9l2.4-6.4c0,0,0.3-0.6,0-0.8
					c-0.3-0.2-0.7,0.3-0.7,0.3l-4.3,3.5c-1.7-1.8-3.6-3.2-5.9-4.2c-0.8-0.4-1.7-0.7-2.6-0.9l-1.3-5.1c0,0-0.1-0.5-0.5-0.5
					c-0.3,0-0.4,0.5-0.4,0.5l-0.8,4.5C73,21.2,72,21.2,71,21.2c-3.2,0-6,0.6-8.5,1.7c-1.1,0.5-2.1,1-3,1.7c-0.2,0.1-0.3,0.2-0.5,0.3
					c-0.9-2.3-1.6-4.1-1.7-4.7c0.5-0.4,1.5-2.1,1.8-3.2c0.3-1.5,0.2-2.2-0.1-3.4c-0.3-0.8-0.8-1.6-0.8-2.2c0-0.4,0.2-0.7,0.4-0.9
					c-0.1-0.6-0.5-0.8-0.9-0.9c-0.4-0.1-0.7,0.1-1.1,0.1c-0.1-0.2-0.3-0.1-0.1-0.7c0.2-0.9,1.9-1.3,3.3-1.8c1.7-0.7,2.7-1.9,2.8-3.9
					c0-1.5-0.8-2.5-1.8-3c-0.2,0.6-1.1,1.4-1.6,1.7c-0.6,0.3-1.4,0.4-2,0.3c0.1-1.1-0.4-2-1.2-2.4c-0.3,0.5-1.2,1.1-2.6,1
					c-1.4,0-1.5-0.4-3.5-0.4c-2.8,0-5.2,1.7-5.5,4.2c-0.2,1.6,0.4,3,0.9,3.7C45,8.9,44.2,9.7,44,9.9c-0.2-0.2-0.8-0.6-1.4-0.1
					c0.1,0.4,0.2,0.8,0.1,1.2c-0.1,0.4-1.2,2.4-1.3,4.1c-0.2,2.8,1.4,4.6,2.7,5.2c-0.3,0.4-0.4,0.9-0.1,1.3c0.1,0.3,0.4,0.5,1,0.5
					c-0.3,0.4-0.4,0.9-0.2,1.4c0.2,0.6,0.9,1.5,1.5,1.5c0,0.5,0.2,1.7,0.3,2.2c-0.2,0.4-0.4,0.7-0.4,1.4c0,0.7,0.5,1.3,1.1,1.5
					c0.1,0.4,0.3,0.7,0.5,1c0.2,0.2,0.4,0.5,0.8,0.8c0.4,0.3,0.9,0.5,1.5,0.5c0.6,0,1.1,0,1.4-0.1c0,0.2,0.1,1.7,0.1,3.5
					c-1.5,4.1-2.2,8.9-2.2,14.1v0c0,9.2,2.6,17.5,7.7,22.8c0,0,0.3,0.4,1.1,0.9c0,0,1.6-2.7,4-5.8c0.6-0.8,1.3-1.5,2.1-2.2
					c1.2-1,2.3-1.9,3.4-2.7c3.1-2.1,6.7-3.7,10-4.4c-3.8,2-5.9,3-9.5,6.1c-2.3,1.9-5.9,5.4-8.3,10c0.5,0.4,1.2,0.8,2,0.9
					c0.5-0.6,3.2-5.5,7.3-9.5c8.3-7.8,18.1-9.6,23.2-9.5c0.3-2.1,0.4-4.3,0.4-6.6c0-3.7-0.4-7.3-1.2-10.5l6.1-6.8
					C97.7,32.5,98.1,32,97.9,31.8"/>
				<path id="Fill-28" class="st1" d="M52.4,28.7c-0.4-0.2-1.3-0.7-2.1-0.6c-0.8,0-1.5,0.2-2.1,0.6c-0.3-0.2-0.3-0.5-0.2-0.9
					c0.2-0.4,0.4-0.5,0.4-0.5l-0.2-3.9c0,0,1.1-0.8,1.4-0.9c0.3-0.1,0.4-0.3,0.4-0.6c0.5,0.3,1.2,1.1,1.6,1.6
					c0.4,0.5,0.6,1.1,0.6,1.7c0,0.6,0,1.4-0.1,2.1c0.2,0.2,0.5,0.4,0.5,0.7C52.7,28.4,52.5,28.5,52.4,28.7"/>
				<path id="Fill-29" class="st1" d="M87.8,40.8c0-0.8-0.9-2.8-1.5-3.2l9.2-4.1L87.8,40.8z"/>
				<path id="Fill-30" class="st1" d="M62.5,25.6l7.8,7.1c-0.8,0.4-1.9,1.6-2.2,2.5L62.5,25.6z"/>
				<path id="Fill-31" class="st1" d="M67.1,39.6c-0.3,0.4-0.4,0.7-0.5,1.2c-0.1,0.5,0,0.8,0,1.2l-2.4-1.6c0-0.6-0.1-1.5-0.2-2
					c0,0,0-0.1,0-0.2L67.1,39.6z"/>
				<path id="Fill-32" class="st1" d="M53.9,40.2C53.7,40,53.1,25.6,53,25.1l0.8-0.6v-0.1c-0.6,0-1.2-0.2-1.4-0.6l-0.2-4.4
					c-0.8-0.1-1.6-0.3-1.9-0.6c-0.4-0.4-0.7-0.8-0.2-1.6c0.4,0.3,1.5,0.6,2.5,0.6c0.2,0,0.6,0.5,0.9,0.6c0.3,0.1,0.8,0.4,1,0.5
					c0.2,0.1,0.3,0.6,0.4,0.7c0.1,0.2,7.2,18.7,7.3,18.9c0.1,0.2,0.5,3.3,0.6,3.6c0,0.2,1.1,2.7,1.3,3c-0.9,0-2.5,0.5-3.8,1.8
					c-1.2,1.2-2.3,3.9-2.6,5.1C57.5,51.2,54,40.5,53.9,40.2"/>
				<path id="Fill-33" class="st1" d="M63,57.9c-0.3,2.8-1,5.3-2,7.1c-0.7,1.1-2.6,3.4-3.2,4.3c0.7-1.4,1.3-4.8,1.2-7.5
					c0-1.7-0.6-5.6-0.1-8.1c0.5-2.7,1.3-4.2,3.1-5.9c0.9-0.9,2.8-1.9,5.5-1.2l2.2,4.1c-1.2-0.2-2.7,0-3.8,0.8
					C63.9,53,63.3,55,63,57.9"/>
				<path id="Fill-34" class="st1" d="M63.2,63.6c0.5-1.2,1.2-4.6,1.4-5.8c0.3-1.5,0.5-3.6,2.2-5.1c0.9-0.7,2.3-0.8,2.8-0.6l2.5,5.1
					c0.2,0.5,1,0.7,1.4,0.7C71.3,58.6,65.4,61.4,63.2,63.6"/>
				<path id="Fill-35" class="st1" d="M84.3,47.4c-0.4,0.6-0.3,1.2,0,1.6c0.3,0.5,1.6,2.9,1.6,2.9c0.4,1.1,0.7,1.7,1.1,2.4
					c0.7,0,1.5,0,2.3,0c-0.9-1.9-2.8-5.7-2.8-5.7l-0.1-3C85.6,46,84.7,46.8,84.3,47.4"/>
				<path id="Fill-36" class="st1" d="M73.7,31.4c1-0.2,3.2,0,3.9,0.4L75.3,19L73.7,31.4z"/>
				<path id="Fill-37" class="st1" d="M54.8,19.6c-0.1-0.2-0.2-0.7-0.4-0.7c-0.2-0.1-0.7-0.4-1-0.5c-0.2-0.1-0.7-0.6-0.9-0.6
					c-1,0-2.1-0.3-2.5-0.6c-0.4,0.8-0.1,1.3,0.2,1.6c0.3,0.3,1.1,0.5,1.9,0.6l0.2,4.4c0.2,0.3,0.9,0.5,1.4,0.6v0.2L53,25.1
					c0,0.5,0.7,14.9,0.9,15.2c0.1,0.3,3.6,10.9,3.7,11.6c0.3-1.2,1.3-3.9,2.6-5.1c1.3-1.2,2.8-1.8,3.8-1.8c-0.2-0.2-1.3-2.7-1.3-3
					c0-0.2-0.4-3.3-0.6-3.6C62,38.2,54.9,19.7,54.8,19.6"/>
				<path id="Fill-38" class="st1" d="M50.3,16c2,0,3,0.8,3.4,1.3c0.1-0.7,0-1.3-0.7-1.8c-0.5-0.4-1.4-0.8-2.9-0.8
					c-0.9,0-1.9,0.3-2.5,0.8c-0.5,0.5-0.6,1-0.5,1.8C47.3,16.7,48.6,16,50.3,16"/>
				<path id="Fill-39" class="st1" d="M46.7,5.5c0,0.8,0.2,1.6,0.5,2c0.2,0.3,0.7,0.8,1,0.8c0.5,0,1-1,2.2-0.9
					c0.8,0,1.3,1.1,1.9,1.2c0.5,0,0.8-0.5,1.3-0.5c0.4,0,0.6,0.2,0.9,0.4c0.2-0.4,0.4-0.7,1.1-1.2C56.3,6.6,59,6.1,60.2,5
					c0.6-0.5,0.7-1.5,0.5-2.1c-0.4,0.6-1.7,1.3-2.8,1.3c-0.6,0-2-0.2-2.5-0.5c0.3-0.4,0.3-0.9,0.1-1.4c-0.4,0.3-2.1,0.5-2.7,0.5
					c-0.6,0-1.9-0.3-2.9-0.2C47.7,2.7,46.7,4.2,46.7,5.5"/>
				<path id="Fill-40" class="st1" d="M50.4,12.2c4.7,0.1,6.8,2.3,6.9,4c0.2-0.5,0.2-1,0.2-1.6c0-0.5-0.7-1.8-0.8-2.2
					c0-0.4,0.1-0.7,0.2-1.2c-0.3,0.1-1.3,0.5-1.8,0.1c-0.5-0.4-0.1-1.3-0.8-1.6c-0.6-0.2-1.6,0.5-2.2,0.4c-0.6-0.1-1.2-0.9-1.8-0.9
					c-0.7,0-1,0.8-1.8,1c-0.6,0.1-1.4-0.2-1.7-0.2c-0.4,0-0.6,0.3-0.8,0.7c-0.2,0.4-0.3,0.5-0.8,0.7c-0.4,0.1-0.9-0.2-1.2-0.2
					c0.2,0.2,0.3,1,0.1,1.5c-0.2,0.6-0.7,1.3-0.8,2c0,0.7,0.2,1,0.4,1.5C43.5,13.8,46.3,12.1,50.4,12.2"/>
				<path id="Fill-41" class="st1" d="M47.4,21.2c-0.3,0.1-1,0.6-1.3,1.1c0.1,0.4,0.5,1.2,0.9,1.4c0.1-0.4,0.5-1,0.7-1.2
					c0.3-0.2,0.6-0.4,0.8-0.5c0.2-0.1,0.3-0.2,0.3-0.5c0-0.3,0-0.4-0.2-0.7c0.2,0,0.7,0,0.8-0.2c0.1-0.2,0.2-0.5,0.2-0.7
					c0-0.3-0.1-0.3-0.4-0.4c-0.3,0-1,0-1.4,0c0,0,0.6-0.3,0.8-0.4c0.2-0.1,0.2-0.3,0.3-0.4c0-0.1,0-0.5-0.1-0.9
					c-0.9,0-2.5,0.8-2.9,1.2l0.3,0.8l-0.6,0c-0.1,0.4,0,1,0.1,1.4C46.4,21.2,47.1,21.1,47.4,21.2"/>
				<path id="Fill-42" class="st1" d="M81.4,39.1c-1-0.6-2.9-1.6-3.5-1.7l0.8-2.2c0.7,0.4,3.3,2,3.7,2.4L81.4,39.1z M76.8,37
					c-0.7-0.5-3.1-0.4-4-0.2l-0.7-2c0.5-0.4,1.6-0.7,2.5-0.7c0.9,0,2,0.2,2.7,0.6L76.8,37z M69.8,38.5c-0.4-1.3,0.7-2.7,1.2-3.2
					l0.8,1.7C71.1,37.4,70.2,38.1,69.8,38.5z M72.1,42c0,0,1-0.6,1.9-0.8c1.4-0.3,2.9,0.5,3.9,1.4l-0.2,0.3l-1.5,0.4
					c-0.3-0.3-0.9-0.4-1.5-0.3c-0.5,0-1,0.2-1,0.2l0.3,0.5l-0.7,0.2c-0.3-0.4-0.8-0.9-1.2-1V42z M85.7,39.7c-0.1-0.6-1.6-2.3-4-4.2
					c-1.9-1.5-4.7-2.9-7-2.9c-3.9,0-5.5,2.7-5.8,4.1c-0.2,0.8-0.1,1.8,0,2.3c-0.6,0.5-0.9,1-1,1.6c-0.1,0.4,0,1.1,0.4,1.4
					c0-0.6,0.3-1.2,0.7-1.7c0.4-0.5,0.9-0.7,1.5-1l0.1,1.1c-0.5,0.3-1.1,0.9-1.2,1.2l0,1.8l1.3-0.8l0.3,0.5l-0.5,3.1l0.8-0.1
					l1.4,0.6l-1.3,1.1v0.4c0,0,0.2-0.3,0.7-0.3c0.5,0,1.7,0.6,1.7,0.6l0,0.3h-0.5h-1.8c-0.1,0.3,0.2,0.5,0.4,0.7
					c0.3-0.1,0.6-0.2,0.8-0.2c0.2,0,0.6,0.1,0.9,0.2L73,50c0,0-0.2,0.2-0.6,0.1c-0.2,0-0.4,0.3-0.4,0.5c0,0.3,0.2,0.9,0.2,0.9
					c0.2,1,1.2,0.8,1.4,0.8c0.6-0.1,2.8-0.8,2.8-0.8l-2,2.8l0.9,3c1.3-0.6,5.3-2,9.7-2.7c-0.5-0.8-0.6-1.1-1.1-2.3l-2.2-5.1l0.3-0.8
					c0.5,0.2,1.2-0.2,1.7-0.6c0.5-0.4,1.1-1.1,1.3-1.6c-0.3-0.2-0.6-0.1-0.8,0c-0.3,0.2-0.5,0.5-0.8,0.4c-0.4-0.2-0.2-0.6-0.2-1
					c0-0.4-0.5-0.4-0.8-0.1c-0.4,0.3-1.1,0.2-1.6-0.3c-0.5-0.5-2.8-2.4-3.7-2.9c-1.2-0.7-2.8-0.9-4-0.7c-0.7,0.1-1.2,0.4-1.5,0.3
					l-0.9-1.4l0.1-0.1c0.3,0.1,0.6,0.4,1,0.3c0.4-0.1,1.7-0.4,2.8-0.4c1.8,0,3.9,0.6,4.9,1c0,1.2,2.4,2.6,3.4,2.7
					c0.9,0.1,1.4-0.1,2-0.4l-2.3-2l1.2-1.5c0,0,1.9,1.8,2.2,2.2C85.9,40.3,85.8,39.9,85.7,39.7z"/>
				<path id="Fill-43" class="st1" d="M81.1,33.3c0.9,0.3,2.7,1.9,3.2,2.2l4.7-10L81.1,33.3z"/>
			</g>
		</g>
	</g>
</g>
</svg>
