<?xml version="1.0" encoding="utf-8"?>
<!-- Generator: Adobe Illustrator 25.0.0, SVG Export Plug-In . SVG Version: 6.00 Build 0)  -->
<svg version="1.1" id="Layer_2_1_" xmlns="http://www.w3.org/2000/svg" xmlns:xlink="http://www.w3.org/1999/xlink" x="0px" y="0px"
	 viewBox="0 0 60 60" style="enable-background:new 0 0 60 60;" xml:space="preserve">
<style type="text/css">
	.st0{fill:#FFFFFF;}
</style>
<g>
	<path d="M31,32.3C30.9,32.4,30.9,32.4,31,32.3c-0.1,0-0.1,0.1-0.1,0.1c-0.1,0.1-0.2,0.1-0.4,0.1c0,0,0,0,0,0
		c-0.1,0-0.3,0.1-0.4,0.1c0,0,0,0,0,0h0c-0.1,0-0.3,0-0.4-0.1c0,0,0,0,0,0c-0.1,0-0.2-0.1-0.4-0.1c0,0,0,0-0.1,0c0,0,0,0-0.1,0
		l-17-10.6c0,0.2-0.1,0.4-0.1,0.5v17c0,1.8,1.4,3.2,3.2,3.2h29.5c1.8,0,3.2-1.4,3.2-3.2h0v-17c0-0.2,0-0.4-0.1-0.5L31,32.3z"/>
	<polygon points="30,10.5 12.2,21.6 47.8,21.6 	"/>
	<path class="st0" d="M30,0C13.4,0,0,13.4,0,30c0,16.6,13.4,30,30,30s30-13.4,30-30C60,13.4,46.6,0,30,0z M30,10.5l17.8,11.1H12.2
		L30,10.5z M48,39.3L48,39.3c0,1.8-1.4,3.2-3.2,3.2H15.2c-1.8,0-3.2-1.4-3.2-3.2v-17c0-0.2,0-0.4,0.1-0.5l17,10.6c0,0,0,0,0.1,0
		c0,0,0,0,0.1,0c0.1,0.1,0.2,0.1,0.4,0.1c0,0,0,0,0,0c0.1,0,0.3,0.1,0.4,0.1h0c0,0,0,0,0,0c0.1,0,0.3,0,0.4-0.1c0,0,0,0,0,0
		c0.1,0,0.2-0.1,0.4-0.1c0,0,0,0,0.1,0c0,0,0,0,0.1,0l17-10.6c0,0.2,0.1,0.4,0.1,0.5V39.3z"/>
</g>
</svg>
