<svg height="512pt" viewBox="0 0 512 512" width="512pt" xmlns="http://www.w3.org/2000/svg"><path d="m407 242c-8.277344 0-15 6.722656-15 15s6.722656 15 15 15 15-6.722656 15-15-6.722656-15-15-15zm0 0"/><path d="m512 257c0-57.890625-47.109375-105-105-105s-105 47.109375-105 105c0 18.441406 4.847656 36.578125 14.019531 52.441406l68.578125 118.761719c-9.164062 5.316406-16.226562 13.683594-19.835937 23.796875h-304.761719c-16.539062 0-30-13.460938-30-30s13.460938-30 30-30h105c41.351562 0 75-33.648438 75-75s-33.648438-75-75-75h-77.761719c-4.535156-12.707031-14.53125-22.703125-27.238281-27.238281v-62.761719h120c6.0625 0 11.542969-3.648438 13.855469-9.257812 2.332031-5.609376 1.042969-12.054688-3.25-16.347657l-34.394531-34.394531 34.394531-34.394531c4.292969-4.292969 5.582031-10.738281 3.253906-16.347657-2.316406-5.609374-7.796875-9.257812-13.859375-9.257812h-120v-17c0-8.289062-6.710938-15-15-15s-15 6.710938-15 15v199.761719c-17.421875 6.214843-30 22.707031-30 42.238281 0 24.8125 20.1875 45 45 45 19.53125 0 36.023438-12.578125 42.238281-30h77.761719c24.8125 0 45 20.1875 45 45s-20.1875 45-45 45h-105c-33.089844 0-60 26.910156-60 60s26.910156 60 60 60h304.761719c6.214843 17.421875 22.707031 30 42.238281 30 24.8125 0 45-20.1875 45-45 0-16.621094-9.160156-31.003906-22.597656-38.796875l68.578125-118.761719c9.171875-15.863281 14.019531-34 14.019531-52.441406zm-105 45c-24.8125 0-45-20.1875-45-45s20.1875-45 45-45 45 20.1875 45 45-20.1875 45-45 45zm0 0"/></svg>