<?xml version="1.0" encoding="utf-8"?>
<!-- Generator: Adobe Illustrator 25.0.0, SVG Export Plug-In . SVG Version: 6.00 Build 0)  -->
<svg version="1.1" id="Capa_1" xmlns="http://www.w3.org/2000/svg" xmlns:xlink="http://www.w3.org/1999/xlink" x="0px" y="0px"
	 viewBox="0 0 32.1 32.1" style="enable-background:new 0 0 32.1 32.1;" xml:space="preserve">
<path d="M5.2,3.6h21.6c2.2,0,4,1.4,4,3.1l0,0c0,1.7-1.8,3.1-4,3.1H5.2c-2.2,0-4-1.4-4-3.1l0,0C1.2,5,3,3.6,5.2,3.6z"/>
<path d="M5.2,13.1h21.6c2.2,0,4,1.4,4,3.1l0,0c0,1.7-1.8,3.1-4,3.1H5.2c-2.2,0-4-1.4-4-3.1l0,0C1.2,14.5,3,13.1,5.2,13.1z"/>
<path d="M5.2,22.3h21.6c2.2,0,4,1.4,4,3.1l0,0c0,1.7-1.8,3.1-4,3.1H5.2c-2.2,0-4-1.4-4-3.1l0,0C1.2,23.7,3,22.3,5.2,22.3z"/>
</svg>
