<svg id="Capa_1" enable-background="new 0 0 512 512" height="512" viewBox="0 0 512 512" width="512" xmlns="http://www.w3.org/2000/svg"><g><path d="m451 422h-285c-8.276 0-15-6.724-15-15v-362c0-24.814-20.186-45-45-45h-45v30h45c8.276 0 15 6.724 15 15v362c0 20.744 14.178 38.077 33.303 43.264-2.089 5.184-3.303 10.813-3.303 16.736 0 24.814 20.186 45 45 45s45-20.186 45-45c0-5.284-1.082-10.285-2.763-15.01h95.526c-1.681 4.725-2.763 9.726-2.763 15.01 0 24.814 20.186 45 45 45s45-20.186 45-45c0-5.284-1.082-10.285-2.763-15h32.763z"/><path d="m211 121v90h180v-90h-75v30h-30v-30z"/><path d="m286 241h30v30h-30z"/><path d="m346 301h-90v-60h-75v151h240v-151h-75z"/></g></svg>