<svg id="Capa_1" enable-background="new 0 0 609.668 609.668" height="512" viewBox="0 0 609.668 609.668" width="512" xmlns="http://www.w3.org/2000/svg"><g><g id="Page-1_52_"><g id="_x30_53---Valet-Service" transform="translate(0 -1)"><path id="Path_405_" clip-rule="evenodd" d="m559.862 419.444-135.902 138.253c-5.615 5.728-13.212 9.087-21.228 9.384l-206.922.044c-16.888-.018-32.824 7.819-43.12 21.206l-12.639 14.718c-4.132 4.831-10.168 7.614-16.525 7.62h-101.729c-12.024 0-21.772-9.748-21.772-21.772v-13.357c.004-5.421 2.03-10.646 5.683-14.653l56.607-62.159c7.62-7.979 14.87-15.382 21.348-21.859 31.772-33.927 76.572-52.593 123.034-51.262 15.101-.081 29.747 5.16 41.367 14.805 5.706 4.581 12.823 7.043 20.139 6.967h121.858c10.384-.183 19.666 6.447 22.861 16.329.092.564.223 1.12.392 1.666.176.876.285 1.764.327 2.656.314 5.97-1.841 11.806-5.958 16.14-4.118 4.334-9.836 6.784-15.814 6.776h-130.71c-6.012 0-10.886 4.874-10.886 10.886s4.874 10.886 10.886 10.886h130.687c11.936.015 23.355-4.87 31.586-13.514 8.232-8.643 12.555-20.287 11.958-32.208v-.501l94.709-79.261c8.986-7.561 22.327-6.722 30.296 1.904 7.968 8.626 7.748 21.992-.5 30.351z" fill-rule="evenodd"/><path id="Shape_95_" d="m206.86 120.796c.121-32.357 23.869-59.769 55.878-64.5 3.116-.546 6.274-.819 9.438-.816 27.607.119 52.176 17.534 61.43 43.544h-28.663c-11.947-.05-23.387 4.825-31.626 13.476s-12.55 20.315-11.918 32.245c1.287 17.669 13.015 32.856 29.784 38.569-19.8 6.022-41.283 2.305-57.908-10.021-16.625-12.325-26.424-31.801-26.415-52.497zm97.974 206.835-32.658 32.658-32.658-32.658v-126.158c6.981 2.824 14.3 4.727 21.772 5.661v76.953c0 6.012 4.874 10.886 10.886 10.886s10.886-4.874 10.886-10.886v-76.953c7.469-.908 14.788-2.786 21.772-5.585zm206.835-141.519h-21.663c-15.08.063-29.701-5.182-41.302-14.816-5.726-4.588-12.867-7.047-20.204-6.956h-121.815c-12.048.325-22.31-8.693-23.536-20.683-.334-5.97 1.816-11.812 5.939-16.142 4.124-4.33 9.854-6.762 15.833-6.719h130.633c6.012 0 10.886-4.874 10.886-10.886s-4.874-10.886-10.886-10.886h-79.185c-8.514-32.562-34.952-57.354-67.994-63.76l27.498-25.038c8.59-7.858 20.511-10.959 31.842-8.284l196.613 51.056v100.456c-.001 18.037-14.622 32.658-32.659 32.658zm97.974-10.886c0 6.012-4.874 10.886-10.886 10.886h-21.772c-6.012 0-10.886-4.874-10.886-10.886v-130.632c0-6.012 4.874-10.886 10.886-10.886h21.772c6.012 0 10.886 4.874 10.886 10.886z"/></g></g></g></svg>