<?xml version="1.0" encoding="utf-8"?>
<!-- Generator: Adobe Illustrator 25.0.0, SVG Export Plug-In . SVG Version: 6.00 Build 0)  -->
<svg version="1.1" id="Mark" xmlns="http://www.w3.org/2000/svg" xmlns:xlink="http://www.w3.org/1999/xlink" x="0px" y="0px"
	 viewBox="0 0 240 80" style="enable-background:new 0 0 240 80;" xml:space="preserve">
<style type="text/css">
	.st0{fill:#2167AE;}
</style>
<g>
	<path id="logoSymbol" class="st0" d="M32.1,12C16.6,12,4.2,24.5,4.2,39.9c0,6.3,2,12.3,5.8,16.9l23.3-30.5h-2.4h-2.4
		c-2.6,0-5.2,0.2-6.9,0.6c-1.1,0.2-2,0.6-2.8,1.1c-0.9,0.6-2,2-2.8,3.3c0,0.2-0.2,0.4-0.4,0.7l-1.7-0.2l2.2-8.7h29L22,53.9
		c1.5-0.2,2-0.2,3.3-0.2c0.9,0,2.4,0,4.3,0.2l4.1,0.2c1.5,0,2.8,0.2,3.7,0.2c2,0,3.5-0.2,4.8-0.6c1.1-0.4,2-0.7,3-1.5
		c1.7-1.1,3.2-3,4.1-4.7c0-0.2,0.2-0.4,0.4-0.7l1.3,0.4c-0.4,1.5-0.6,2-1.3,3.5c-1.3,2.8-2.6,4.7-4.7,6.1c-2,1.5-4.1,2.2-6.7,2.2H38
		c-1.9,0-3.3-0.2-8-0.9c-4.7-0.7-7.1-0.9-9.5-0.9c-1.5,0-3,0.2-4.5,0.4c-2,0.4-2.8,0.6-4.7,1.3c5,5.6,12.5,9.1,20.7,9.1
		C47.5,68,60,55.5,60,40.1C60,24.5,47.5,12,32.1,12"/>
	<path id="logoText" class="st0" d="M154.1,38.2c-0.9,0.6-2,0.9-3.3,1.1c-0.6,0-1.1,0.2-1.5,0.2c-0.2,0-0.2,0-0.4,0v-10
		c0.4,0,0.6,0,0.7,0c1.3,0,2.6,0.2,3.7,0.4c0.7,0.2,1.3,0.6,1.9,0.9c0.9,0.7,1.5,1.9,1.5,3.3c0,1.3-0.4,2.2-1.1,3
		C155.1,37.7,154.5,38,154.1,38.2 M164.4,51.6c-0.9-0.9-1.9-1.9-3.2-3.2c-0.7-0.9-1.5-1.7-2-2.2l-4.3-5c0.6-0.2,0.7-0.2,1.1-0.4
		c1.3-0.6,2.4-1.1,3.3-1.9c1.1-0.9,1.7-1.9,2.2-3.2c0.2-0.7,0.4-1.3,0.4-2c0-1.7-0.6-3.2-1.9-4.5c-1.1-1.1-2.6-2-4.5-2.4
		c-1.3-0.4-2.4-0.4-4.7-0.6c-0.7,0-1.7,0-2.6,0h-7.1c0.6,0.4,0.6,0.6,0.9,1.1c0.2,0.4,0.4,0.7,0.6,0.9c0.2,0.6,0.2,1.5,0.2,3v17.9
		c0,1.3,0,2-0.4,2.6c-0.2,0.4-0.2,0.6-0.4,0.9c-0.2,0.4-0.4,0.6-0.9,0.9h8.6c-0.4-0.4-0.6-0.6-0.7-0.9c-0.2-0.2-0.4-0.6-0.4-0.7
		c-0.2-0.6-0.4-1.3-0.4-2.6c0-0.4,0-0.9,0-1.3V42l5,6c0.2,0.4,0.6,0.7,1.1,1.3c0.6,0.7,1.1,1.1,1.3,1.5c0.9,0.9,1.9,1.7,2.8,2.2
		c0.7,0.4,1.5,0.6,2.6,0.6c0.4,0,0.9,0,1.5,0h3.3c-0.4-0.4-0.6-0.6-0.9-0.7C165.3,52.4,164.9,52,164.4,51.6 M175.9,31.3
		c0-1.9,0-2.2,0.4-3c0-0.4,0-0.6,0.2-0.9c0.4-0.4,0.6-0.7,0.9-1.1h-8.6c0.6,0.6,0.7,0.7,0.9,1.1c0.2,0.4,0.4,0.6,0.4,0.9
		c0.2,0.7,0.2,1.3,0.4,3c0,0.7,0,1.3,0,1.7v16.2c0,0.9-0.2,2-0.4,2.6c-0.2,0.2-0.2,0.6-0.4,0.7c-0.2,0.4-0.4,0.4-0.7,0.9h8.6
		c-0.4-0.4-0.6-0.6-0.7-0.9c-0.2-0.2-0.4-0.6-0.4-0.7c-0.2-0.6-0.4-1.5-0.4-2.4V33L175.9,31.3z M202,49.6c-1.7,0.7-3.2,0.9-4.8,0.9
		c-2.8,0-5.2-0.9-7.1-3c-1.7-1.9-2.8-4.5-2.8-7.4c0-2.8,0.9-5.6,2.4-7.3c0.7-0.7,1.5-1.5,2.4-2c1.5-0.9,3.3-1.3,5.2-1.3
		c1.7,0,3.3,0.4,4.8,0.9c0.9,0.4,1.3,0.6,2.2,1.3v-5.2c-0.7-0.2-0.9-0.4-1.7-0.4c-1.5-0.4-3.2-0.6-4.8-0.6c-3,0-5.4,0.6-7.8,1.5
		c-1.3,0.6-2.6,1.3-3.7,2.2c-3.3,2.6-5.2,6.5-5.2,11.2c0,4.3,1.7,8.2,5,10.6c2.6,2,6.1,3.2,10.2,3.2c2.6,0,5-0.4,7.6-1.3
		c0.2,0,0.2,0,0.4-0.2v-4.8c-0.7,0.4-0.9,0.6-1.3,0.7C203.1,49,202.5,49.4,202,49.6 M234,31.3c0-1.1,0.2-2,0.4-2.8
		c0.2-0.4,0.2-0.7,0.4-0.9c0.4-0.4,0.6-0.7,1.1-1.1h-8.9c0.6,0.4,0.7,0.6,0.9,1.1c0.2,0.4,0.4,0.6,0.4,0.9c0.2,0.6,0.4,1.5,0.4,2.8
		v6.5h-12.3v-5c0-1.5,0-2.4,0-3.2c0-0.4,0.2-0.7,0.2-1.1c0.2-0.6,0.7-1.5,1.1-1.9c0,0,0.2-0.2,0.4-0.4h-8.7c0.6,0.6,0.7,0.7,0.9,1.1
		c0.2,0.2,0.4,0.6,0.6,0.9c0.2,0.7,0.2,1.1,0.4,2.8v1.7v14.9c0,1.5,0,2.2-0.2,2.8c0,0.4-0.2,0.7-0.2,1.1c-0.2,0.6-0.6,1.1-1.1,1.5
		c0,0-0.2,0.2-0.4,0.2h8.6c-0.4-0.4-0.6-0.6-0.7-0.9c-0.2-0.2-0.4-0.6-0.4-0.9c-0.2-0.7-0.4-1.3-0.4-2.4c0-0.6,0-1.1,0-1.7v-6.5
		h12.3v6.7c0,1.5,0,2-0.2,2.8c0,0.4-0.2,0.7-0.4,1.1c-0.2,0.6-0.6,0.9-0.9,1.5c0,0-0.2,0.2-0.4,0.4h8.7c-0.4-0.4-0.6-0.6-0.7-0.9
		c-0.2-0.4-0.4-0.6-0.6-0.9c-0.2-0.6-0.4-1.1-0.4-2.4c0-0.7,0-1.3,0-1.5V32.6L234,31.3L234,31.3L234,31.3z M99.8,49.8
		c-1.1,0.2-2.6,0.4-4.3,0.4c-0.6,0-1.3,0-2.2,0h-4.1l16.6-23.8H84.4l-2.6,5.8c0.9-0.4,1.3-0.6,2-0.9c1.3-0.6,2.6-0.9,3.9-1.1
		c1.1-0.2,2.2-0.4,3.9-0.4c0.7,0,1.5,0,2,0h3.2L79.9,53.5h23.4l2.8-6.1c-0.9,0.6-1.3,0.7-2,1.1C102.8,49,101.3,49.4,99.8,49.8
		 M129.6,27.4c0.2,0.4,0.4,0.6,0.4,0.9c0.2,0.7,0.2,1.3,0.2,2.8v10.4c0,2.2,0,3.5-0.2,4.7c-0.2,0.7-0.4,1.5-0.7,2
		c-0.7,1.1-1.9,1.9-3.3,2.2c-0.6,0.2-1.3,0.2-1.9,0.2c-2.4,0-4.3-0.9-5.4-2.2c-0.7-1.1-0.9-2.2-0.9-5v-2.2V33c0-1.7,0-2.4,0-3.2
		c0-0.6,0.2-0.9,0.2-1.3c0.2-0.6,0.6-1.5,1.1-2l0.2-0.2h-8.7c0.6,0.4,0.7,0.7,1.1,1.1c0.2,0.4,0.4,0.6,0.4,0.9
		c0.2,0.4,0.2,0.7,0.2,1.3c0,0.2,0,0.7,0,1.7v1.5v7.8c0,3,0,3.5,0.2,4.8c0.2,2,0.7,3.5,1.9,5c2,2.6,5.4,3.9,9.7,3.9
		c2,0,3.9-0.4,5.4-0.9c1.5-0.6,3-1.5,4.1-2.8c1.3-1.5,2-3.2,2.2-5.2c0.2-1.3,0.2-2.8,0.2-4.8v-7.8v-1.5V31c0-1.1,0-1.9,0.2-2.4
		c0.2-0.4,0.2-0.7,0.6-1.1s0.6-0.7,1.1-1.1h-8.7C129.2,26.7,129.4,26.9,129.6,27.4"/>
</g>
</svg>
