<?xml version="1.0" encoding="utf-8"?>
<!-- Generator: Adobe Illustrator 25.0.0, SVG Export Plug-In . SVG Version: 6.00 Build 0)  -->
<svg version="1.1" id="Layer_1" xmlns="http://www.w3.org/2000/svg" xmlns:xlink="http://www.w3.org/1999/xlink" x="0px" y="0px"
	 viewBox="0 0 240 234" style="enable-background:new 0 0 240 234;" xml:space="preserve">
<style type="text/css">
	.st0{fill:#B30B00;}
	.st1{fill:#FFFFFF;}
</style>
<g>
	<path class="st0" d="M42.7,0h154.7C220.6,0,240,18.6,240,42.6v148.7c0,23.1-18.6,42.6-42.6,42.6H42.7
		c-23.2-0.1-42.6-18.7-42.6-42.6V42.5C0.1,18.6,18.7,0,42.7,0z"/>
	<path class="st1" d="M191.4,135.2c-11.2-12-41.9-6.7-49.3-6c-10.5-10.5-17.9-22.4-20.9-26.9c3.7-11.2,6.7-23.9,6.7-35.9
		c0-11.2-4.5-22.4-16.4-22.4c-4.5,0-8.2,2.2-10.5,6c-5.2,9-3,26.9,5.2,45.5c-4.5,13.5-12,33.6-20.9,49.3
		c-12,4.5-38.1,16.4-40.4,29.9c-0.7,3.7,0.7,8.2,3.7,10.5c3,3,6.7,3.7,10.5,3.7c15.6,0,31.4-21.6,42.6-41.1c9-3,23.1-7.5,37.4-9.7
		c16.4,15,31.4,17.1,38.9,17.1c10.5,0,14.2-4.5,15.6-8.2C195.8,143.5,194.4,138.2,191.4,135.2z M180.9,142.7c-0.7,3-4.5,6-11.2,4.5
		c-8.2-2.2-15.6-6-21.6-11.2c5.2-0.7,17.9-2.2,26.9-0.7C177.9,136,181.7,138.2,180.9,142.7z M108.4,53c0.7-1.5,2.2-2.2,3.7-2.2
		c3.7,0,4.5,4.5,4.5,8.2c-0.7,9-2.2,18.6-5.2,26.9C105.4,69.5,106.1,57.5,108.4,53z M107.6,137.5c3.7-6.7,8.2-19.4,9.7-23.9
		c3.7,6.7,10.5,14.2,13.5,17.9C131.6,130.8,118.1,133.7,107.6,137.5z M82.2,154.7c-10.4,16.4-20.1,26.9-26.1,26.9
		c-0.7,0-2.2,0-3-0.7c-0.7-1.5-1.5-3-0.7-4.5C53.1,170.4,65.1,162.1,82.2,154.7z"/>
</g>
</svg>
