<?xml version="1.0" encoding="utf-8"?>
<!-- Generator: Adobe Illustrator 25.0.0, SVG Export Plug-In . SVG Version: 6.00 Build 0)  -->
<svg version="1.1" id="Layer_2_1_" xmlns="http://www.w3.org/2000/svg" xmlns:xlink="http://www.w3.org/1999/xlink" x="0px" y="0px"
	 viewBox="0 0 60 60" style="enable-background:new 0 0 60 60;" xml:space="preserve">
<style type="text/css">
	.st0{fill:#FFFFFF;}
</style>
<path d="M37.5,57c0-1,0-4.2,0-8.2c0-2.8-1-4.6-2-5.5c6.7-0.8,13.7-3.3,13.7-14.8c0-3-1.1-5.8-3.1-8c0.9-2.6,0.8-5.4-0.3-7.9
	c0,0-2.5-0.8-8.2,3.1c-4.9-1.3-10.1-1.3-15,0c-5.7-3.9-8.3-3.1-8.3-3.1c-1.1,2.5-1.2,5.3-0.3,7.9c-2,2.2-3.1,5.1-3.1,8
	c0,11.5,7,14.1,13.7,14.8c-1.1,1.1-1.8,2.5-1.9,4c-1.7,0.8-6.1,2.1-8.7-2.5c-1-1.7-2.7-2.8-4.6-3.1c0,0-2.9,0-0.2,1.8
	c0,0,2,0.9,3.3,4.4c0,0,1.8,5.8,10.1,4c0,2.5,0,4.4,0,5.1s-0.5,1.7-2,1.5c3.1,1,6.3,1.5,9.5,1.5c3.2,0,6.3-0.5,9.3-1.5
	c-0.8,0.2-1.6-0.2-1.8-1C37.5,57.4,37.4,57.2,37.5,57z"/>
<path class="st0" d="M46.7,54.9l0.2-0.1c3.1-2.1,5.9-4.9,8-8c0-0.1,0.1-0.1,0.1-0.2c1.6-2.4,2.9-5,3.7-7.8l0,0
	c0.3-0.9,0.5-1.8,0.7-2.7l0.1-0.3c0.2-0.9,0.3-1.8,0.4-2.7c0,0,0-0.1,0-0.1c0.1-1,0.2-2,0.2-3C60,13.5,46.6,0,30,0S0,13.4,0,30
	c0,1,0.1,1.9,0.1,2.8c0,0.3,0.1,0.5,0.1,0.8c0.1,0.7,0.2,1.3,0.3,2l0.2,0.9c0.1,0.7,0.3,1.3,0.5,2c0.1,0.2,0.1,0.5,0.2,0.7
	c0.6,1.7,1.3,3.4,2.1,5l0.3,0.5c0.4,0.6,0.7,1.2,1.1,1.8l0.4,0.6c0.4,0.6,0.8,1.2,1.3,1.7C6.7,49,6.8,49.1,7,49.3
	c1.2,1.4,2.5,2.7,3.8,3.8c0.1,0.1,0.2,0.2,0.4,0.3c0.6,0.5,1.2,0.9,1.8,1.3l0.5,0.3c0.6,0.4,1.3,0.8,1.9,1.2l0.4,0.2
	c1.5,0.8,3.1,1.5,4.8,2c1.4,0.2,2-0.7,2-1.5s0-2.6,0-5.1c-8.4,1.8-10.1-4-10.1-4c-1.4-3.5-3.3-4.4-3.3-4.4c-2.7-1.9,0.2-1.8,0.2-1.8
	c1.9,0.3,3.6,1.4,4.6,3.1c2.7,4.6,7,3.3,8.7,2.5c0.1-1.5,0.8-2.9,1.9-4C18,42.6,10.9,40,10.9,28.5c0-3,1.1-5.8,3.1-8
	c-0.9-2.6-0.8-5.4,0.3-7.9c0,0,2.5-0.8,8.3,3.1c4.9-1.3,10.1-1.3,15,0c5.7-3.9,8.2-3.1,8.2-3.1c1.1,2.5,1.2,5.4,0.3,7.9
	c2,2.2,3.1,5.1,3.1,8.1c0,11.5-7,14.1-13.7,14.8c1.1,0.9,2,2.8,2,5.5c0,4,0,7.2,0,8.2c0,0.8,0.6,1.5,1.4,1.5c0.2,0,0.3,0,0.5-0.1
	c1.7-0.6,3.4-1.3,5-2.1l0,0C45.1,56,45.9,55.5,46.7,54.9z"/>
</svg>
